<svg width="1446" height="199" viewBox="0 0 1446 199" fill="none" xmlns="http://www.w3.org/2000/svg">
<rect width="1446" height="199" fill="white"/>
<mask id="mask0_736_38" style="mask-type:alpha" maskUnits="userSpaceOnUse" x="0" y="0" width="1446" height="199">
<rect width="1446" height="199" fill="#fcf1e9"/>
</mask>
<g mask="url(#mask0_736_38)">
<g filter="url(#filter0_d_736_38)">
<path d="M-1 1303C-1 1303 444.345 1384.21 734 1385.5C1013.57 1386.74 1447 1303 1447 1303V-0.00012207C1447 -0.00012207 1212.63 201.027 736 195.93C259.367 190.833 -1 -0.00012207 -1 -0.00012207V1303Z" fill="#fcf1e9"/>
<path d="M-1 1297.49C-0.723858 1297.49 -0.5 1297.71 -0.5 1297.99V1302.58C-0.298179 1302.62 -0.0225046 1302.67 0.325693 1302.73C1.14421 1302.88 2.36348 1303.1 3.96622 1303.39C4.23806 1303.43 4.41906 1303.69 4.37049 1303.97C6.59493 1304.36 9.48899 1304.88 13.0125 1305.5C13.0603 1305.22 13.3195 1305.04 13.5915 1305.09C16.4782 1305.6 19.7728 1306.17 23.4541 1306.81C23.7262 1306.86 23.9085 1307.12 23.8613 1307.39C26.6228 1307.87 29.5974 1308.38 32.7765 1308.93C32.8231 1308.65 33.0816 1308.47 33.3538 1308.52C36.4944 1309.06 39.8315 1309.63 43.3569 1310.22C43.6292 1310.27 43.8124 1310.53 43.7662 1310.8C46.5791 1311.28 49.5106 1311.77 52.5563 1312.29C52.6021 1312.01 52.86 1311.83 53.1323 1311.88C56.2867 1312.41 59.5625 1312.95 62.9553 1313.52C63.2277 1313.56 63.4118 1313.82 63.3664 1314.09C66.3092 1314.58 69.3394 1315.09 72.4539 1315.6C72.4988 1315.33 72.7561 1315.14 73.0286 1315.19C76.1687 1315.71 79.394 1316.24 82.7014 1316.78C82.9739 1316.82 83.1587 1317.08 83.1142 1317.35C86.0644 1317.83 89.0796 1318.32 92.1577 1318.82C92.2019 1318.55 92.4587 1318.37 92.7313 1318.41C95.9111 1318.93 99.1575 1319.45 102.468 1319.98C102.741 1320.03 102.927 1320.28 102.883 1320.55C105.845 1321.03 108.859 1321.51 111.922 1322C111.966 1321.73 112.222 1321.54 112.495 1321.59C115.689 1322.09 118.938 1322.61 122.238 1323.13C122.511 1323.17 122.697 1323.43 122.654 1323.7C125.635 1324.17 128.658 1324.65 131.722 1325.13C131.764 1324.86 132.02 1324.67 132.293 1324.71C135.492 1325.21 138.736 1325.72 142.022 1326.23C142.295 1326.27 142.482 1326.53 142.44 1326.8C145.4 1327.26 148.394 1327.72 151.422 1328.19C151.464 1327.91 151.72 1327.73 151.993 1327.77C155.236 1328.27 158.518 1328.77 161.837 1329.27C162.11 1329.32 162.298 1329.57 162.256 1329.84C165.193 1330.29 168.159 1330.74 171.153 1331.19C171.194 1330.92 171.449 1330.73 171.722 1330.77C175.013 1331.27 178.338 1331.77 181.695 1332.27C181.968 1332.31 182.156 1332.57 182.116 1332.84C185.031 1333.28 187.97 1333.72 190.933 1334.16C190.973 1333.88 191.228 1333.69 191.501 1333.73C194.799 1334.22 198.126 1334.71 201.48 1335.21C201.753 1335.25 201.942 1335.5 201.902 1335.77C204.837 1336.2 207.794 1336.64 210.77 1337.07C210.81 1336.8 211.064 1336.61 211.337 1336.65C214.608 1337.12 217.903 1337.6 221.222 1338.08C221.495 1338.12 221.685 1338.37 221.646 1338.64C224.633 1339.07 227.64 1339.51 230.665 1339.94C230.704 1339.66 230.957 1339.47 231.231 1339.51C234.479 1339.98 237.749 1340.44 241.038 1340.9C241.312 1340.94 241.502 1341.2 241.464 1341.47C244.427 1341.89 247.407 1342.31 250.403 1342.73C250.441 1342.45 250.694 1342.26 250.967 1342.3C254.267 1342.76 257.585 1343.22 260.921 1343.68C261.195 1343.72 261.386 1343.97 261.348 1344.25C264.288 1344.65 267.242 1345.06 270.21 1345.47C270.248 1345.19 270.5 1345 270.773 1345.04C274.074 1345.49 277.391 1345.94 280.725 1346.39C280.998 1346.43 281.19 1346.68 281.153 1346.95C284.12 1347.35 287.099 1347.76 290.089 1348.16C290.126 1347.88 290.377 1347.69 290.651 1347.73C293.93 1348.16 297.224 1348.6 300.531 1349.04C300.805 1349.08 300.997 1349.33 300.961 1349.6C303.94 1349.99 306.93 1350.39 309.931 1350.78C309.967 1350.51 310.218 1350.31 310.491 1350.35C313.785 1350.78 317.092 1351.21 320.41 1351.64C320.684 1351.67 320.877 1351.92 320.842 1352.2C323.801 1352.58 326.77 1352.96 329.748 1353.34C329.783 1353.06 330.033 1352.87 330.307 1352.9C333.617 1353.33 336.938 1353.75 340.269 1354.17C340.543 1354.2 340.738 1354.45 340.703 1354.72C343.672 1355.1 346.649 1355.47 349.634 1355.84C349.668 1355.57 349.917 1355.37 350.191 1355.4C353.486 1355.81 356.789 1356.22 360.101 1356.63C360.375 1356.66 360.57 1356.91 360.537 1357.18C363.52 1357.55 366.51 1357.91 369.506 1358.27C369.539 1358 369.788 1357.8 370.062 1357.83C373.365 1358.23 376.676 1358.63 379.994 1359.02C380.268 1359.06 380.464 1359.3 380.431 1359.58C383.402 1359.93 386.378 1360.28 389.359 1360.63C389.391 1360.36 389.64 1360.16 389.914 1360.19C393.227 1360.58 396.547 1360.97 399.872 1361.35C400.146 1361.38 400.343 1361.63 400.311 1361.9C403.291 1362.24 406.274 1362.59 409.262 1362.92C409.293 1362.65 409.541 1362.45 409.815 1362.48C413.12 1362.86 416.431 1363.23 419.745 1363.6C420.02 1363.63 420.217 1363.88 420.187 1364.15C423.171 1364.48 426.159 1364.81 429.15 1365.14C429.18 1364.86 429.427 1364.67 429.701 1364.7C433.015 1365.06 436.333 1365.42 439.655 1365.77C439.929 1365.8 440.128 1366.05 440.098 1366.32C443.079 1366.64 446.062 1366.96 449.046 1367.27C449.075 1367 449.321 1366.8 449.596 1366.83C452.912 1367.18 456.231 1367.52 459.551 1367.87C459.826 1367.89 460.026 1368.14 459.997 1368.41C462.985 1368.72 465.974 1369.03 468.963 1369.33C468.991 1369.05 469.236 1368.85 469.511 1368.88C472.828 1369.22 476.147 1369.55 479.466 1369.87C479.74 1369.9 479.941 1370.15 479.914 1370.42C482.902 1370.71 485.89 1371.01 488.878 1371.29C488.904 1371.02 489.148 1370.82 489.423 1370.84C492.744 1371.16 496.065 1371.48 499.384 1371.79C499.659 1371.82 499.861 1372.06 499.835 1372.34C502.828 1372.62 505.82 1372.89 508.811 1373.17C508.836 1372.89 509.08 1372.69 509.355 1372.72C512.677 1373.02 515.998 1373.32 519.317 1373.62C519.592 1373.64 519.795 1373.88 519.77 1374.16C522.76 1374.42 525.748 1374.69 528.733 1374.94C528.757 1374.67 528.999 1374.46 529.274 1374.49C532.607 1374.78 535.936 1375.06 539.262 1375.34C539.538 1375.36 539.742 1375.6 539.719 1375.88C542.713 1376.13 545.704 1376.37 548.692 1376.62C548.715 1376.34 548.956 1376.14 549.231 1376.16C552.552 1376.43 555.869 1376.69 559.182 1376.95C559.457 1376.97 559.663 1377.21 559.641 1377.49C562.649 1377.72 565.653 1377.95 568.653 1378.18C568.674 1377.9 568.914 1377.7 569.189 1377.72C572.52 1377.97 575.846 1378.21 579.166 1378.45C579.441 1378.47 579.649 1378.71 579.629 1378.99C582.616 1379.2 585.598 1379.41 588.575 1379.62C588.594 1379.34 588.832 1379.14 589.108 1379.16C592.457 1379.39 595.8 1379.61 599.136 1379.83C599.411 1379.85 599.62 1380.09 599.602 1380.36C602.604 1380.56 605.6 1380.75 608.59 1380.94C608.607 1380.66 608.845 1380.45 609.12 1380.47C612.441 1380.68 615.753 1380.88 619.057 1381.07C619.333 1381.09 619.543 1381.33 619.527 1381.6C622.55 1381.78 625.566 1381.95 628.575 1382.12C628.59 1381.84 628.826 1381.63 629.102 1381.64C632.442 1381.83 635.772 1382.01 639.092 1382.18C639.368 1382.19 639.58 1382.43 639.566 1382.7C642.552 1382.85 645.53 1383 648.499 1383.14C648.512 1382.87 648.746 1382.65 649.022 1382.67C652.389 1382.83 655.744 1382.98 659.087 1383.12C659.363 1383.13 659.577 1383.37 659.565 1383.64C662.573 1383.77 665.572 1383.9 668.559 1384.01C668.57 1383.74 668.803 1383.52 669.078 1383.53C672.404 1383.66 675.717 1383.78 679.016 1383.9C679.292 1383.9 679.508 1384.14 679.499 1384.41C682.536 1384.52 685.562 1384.61 688.576 1384.7C688.584 1384.43 688.815 1384.21 689.091 1384.22C692.434 1384.31 695.762 1384.4 699.074 1384.49C699.35 1384.49 699.568 1384.72 699.561 1385C702.563 1385.07 705.551 1385.13 708.526 1385.19C708.531 1384.92 708.759 1384.7 709.036 1384.7C712.411 1384.77 715.768 1384.82 719.107 1384.87C719.383 1384.87 719.604 1385.1 719.6 1385.37C722.603 1385.41 725.591 1385.44 728.563 1385.47C728.565 1385.19 728.79 1384.97 729.066 1384.97C730.717 1384.98 732.362 1384.99 734.002 1385C735.638 1385.01 737.279 1385.01 738.925 1385.01C739.202 1385.01 739.425 1385.24 739.425 1385.51C742.389 1385.52 745.37 1385.51 748.367 1385.49C748.366 1385.21 748.588 1384.99 748.864 1384.99C752.197 1384.97 755.55 1384.94 758.921 1384.9C759.197 1384.89 759.424 1385.11 759.427 1385.39C762.388 1385.35 765.364 1385.3 768.353 1385.25C768.348 1384.97 768.567 1384.75 768.843 1384.74C772.151 1384.68 775.476 1384.61 778.816 1384.53C779.092 1384.52 779.321 1384.74 779.328 1385.01C782.333 1384.94 785.35 1384.86 788.379 1384.77C788.371 1384.49 788.588 1384.26 788.864 1384.26C792.152 1384.16 795.454 1384.05 798.77 1383.93C799.046 1383.92 799.277 1384.14 799.287 1384.42C802.273 1384.31 805.27 1384.2 808.277 1384.08C808.266 1383.8 808.481 1383.57 808.757 1383.56C812.08 1383.43 815.417 1383.28 818.765 1383.13C819.041 1383.12 819.275 1383.34 819.287 1383.61C822.254 1383.48 825.229 1383.34 828.214 1383.19C828.2 1382.92 828.413 1382.68 828.689 1382.67C832.008 1382.5 835.337 1382.33 838.677 1382.15C838.953 1382.14 839.188 1382.35 839.203 1382.63C842.191 1382.47 845.186 1382.3 848.189 1382.13C848.173 1381.85 848.384 1381.61 848.66 1381.6C851.962 1381.41 855.273 1381.21 858.592 1381C858.867 1380.99 859.105 1381.2 859.122 1381.47C862.11 1381.29 865.106 1381.1 868.107 1380.9C868.089 1380.62 868.297 1380.39 868.573 1380.37C871.888 1380.15 875.211 1379.93 878.54 1379.7C878.815 1379.68 879.054 1379.88 879.073 1380.16C882.048 1379.95 885.028 1379.74 888.012 1379.52C887.992 1379.25 888.199 1379.01 888.475 1378.99C891.792 1378.75 895.116 1378.5 898.445 1378.25C898.72 1378.22 898.961 1378.43 898.982 1378.71C901.964 1378.48 904.951 1378.25 907.942 1378.01C907.92 1377.73 908.126 1377.49 908.401 1377.47C911.708 1377.21 915.02 1376.94 918.336 1376.66C918.611 1376.64 918.852 1376.85 918.875 1377.12C921.86 1376.87 924.847 1376.62 927.838 1376.36C927.814 1376.09 928.018 1375.85 928.293 1375.82C931.606 1375.54 934.922 1375.25 938.241 1374.95C938.516 1374.93 938.759 1375.13 938.783 1375.41C941.761 1375.14 944.741 1374.87 947.722 1374.6C947.697 1374.33 947.899 1374.08 948.174 1374.06C951.487 1373.75 954.802 1373.44 958.118 1373.13C958.393 1373.1 958.637 1373.31 958.663 1373.58C961.644 1373.3 964.626 1373.01 967.609 1372.72C967.582 1372.45 967.783 1372.2 968.058 1372.18C971.368 1371.85 974.679 1371.53 977.99 1371.2C978.264 1371.17 978.509 1371.37 978.537 1371.64C981.516 1371.35 984.495 1371.04 987.474 1370.74C987.445 1370.47 987.645 1370.22 987.92 1370.19C991.232 1369.85 994.543 1369.51 997.852 1369.16C998.127 1369.13 998.372 1369.33 998.401 1369.61C1001.38 1369.29 1004.36 1368.98 1007.34 1368.66C1007.31 1368.38 1007.51 1368.13 1007.78 1368.11C1011.09 1367.75 1014.4 1367.39 1017.7 1367.03C1017.97 1367 1018.22 1367.2 1018.25 1367.47C1021.23 1367.14 1024.21 1366.81 1027.18 1366.48C1027.15 1366.2 1027.35 1365.96 1027.62 1365.93C1030.94 1365.55 1034.25 1365.18 1037.55 1364.8C1037.83 1364.77 1038.07 1364.97 1038.11 1365.24C1041.08 1364.9 1044.05 1364.56 1047.02 1364.21C1046.99 1363.94 1047.18 1363.69 1047.46 1363.65C1050.77 1363.27 1054.07 1362.88 1057.37 1362.49C1057.65 1362.45 1057.89 1362.65 1057.93 1362.92C1060.91 1362.57 1063.89 1362.21 1066.86 1361.85C1066.83 1361.58 1067.03 1361.33 1067.3 1361.3C1070.6 1360.9 1073.9 1360.49 1077.19 1360.09C1077.47 1360.06 1077.72 1360.25 1077.75 1360.53C1080.73 1360.16 1083.7 1359.79 1086.67 1359.42C1086.63 1359.14 1086.83 1358.89 1087.1 1358.86C1090.42 1358.45 1093.73 1358.03 1097.03 1357.61C1097.3 1357.57 1097.55 1357.77 1097.59 1358.04C1100.55 1357.66 1103.52 1357.29 1106.47 1356.9C1106.43 1356.63 1106.63 1356.38 1106.9 1356.34C1110.21 1355.92 1113.52 1355.49 1116.81 1355.06C1117.08 1355.02 1117.33 1355.21 1117.37 1355.49C1120.36 1355.1 1123.33 1354.7 1126.3 1354.31C1126.26 1354.04 1126.46 1353.79 1126.73 1353.75C1130.03 1353.31 1133.31 1352.87 1136.59 1352.43C1136.86 1352.39 1137.11 1352.59 1137.15 1352.86C1140.13 1352.46 1143.11 1352.05 1146.07 1351.65C1146.04 1351.38 1146.23 1351.12 1146.5 1351.09C1149.82 1350.63 1153.12 1350.18 1156.41 1349.73C1156.68 1349.69 1156.94 1349.88 1156.97 1350.15C1159.93 1349.74 1162.88 1349.33 1165.81 1348.92C1165.77 1348.65 1165.96 1348.4 1166.24 1348.36C1169.57 1347.89 1172.88 1347.43 1176.18 1346.96C1176.45 1346.92 1176.7 1347.11 1176.74 1347.38C1179.72 1346.96 1182.69 1346.54 1185.64 1346.11C1185.6 1345.84 1185.79 1345.59 1186.07 1345.55C1189.35 1345.08 1192.62 1344.61 1195.87 1344.13C1196.14 1344.09 1196.39 1344.28 1196.43 1344.56C1199.44 1344.12 1202.44 1343.68 1205.41 1343.25C1205.37 1342.97 1205.56 1342.72 1205.84 1342.68C1209.14 1342.19 1212.42 1341.71 1215.68 1341.23C1215.96 1341.19 1216.21 1341.37 1216.25 1341.65C1219.23 1341.21 1222.18 1340.76 1225.12 1340.32C1225.08 1340.05 1225.27 1339.8 1225.54 1339.76C1228.87 1339.25 1232.18 1338.76 1235.47 1338.26C1235.74 1338.22 1236 1338.4 1236.04 1338.68C1238.99 1338.23 1241.92 1337.78 1244.83 1337.34C1244.79 1337.06 1244.98 1336.81 1245.25 1336.77C1248.59 1336.25 1251.91 1335.74 1255.19 1335.23C1255.47 1335.19 1255.72 1335.38 1255.76 1335.65C1258.74 1335.19 1261.7 1334.73 1264.63 1334.27C1264.59 1334 1264.77 1333.74 1265.05 1333.7C1268.35 1333.18 1271.62 1332.67 1274.87 1332.16C1275.14 1332.11 1275.39 1332.3 1275.44 1332.57C1278.45 1332.1 1281.43 1331.62 1284.39 1331.15C1284.34 1330.88 1284.53 1330.62 1284.8 1330.58C1288.08 1330.06 1291.32 1329.54 1294.52 1329.02C1294.8 1328.98 1295.05 1329.16 1295.1 1329.43C1298.13 1328.95 1301.14 1328.46 1304.1 1327.98C1304.06 1327.7 1304.25 1327.45 1304.52 1327.4C1307.82 1326.87 1311.07 1326.33 1314.29 1325.81C1314.56 1325.76 1314.82 1325.95 1314.86 1326.22C1317.88 1325.72 1320.86 1325.23 1323.8 1324.74C1323.76 1324.47 1323.94 1324.21 1324.21 1324.17C1327.53 1323.62 1330.8 1323.07 1334.01 1322.54C1334.28 1322.49 1334.54 1322.67 1334.59 1322.95C1337.6 1322.44 1340.57 1321.94 1343.49 1321.45C1343.45 1321.18 1343.63 1320.92 1343.9 1320.87C1347.23 1320.31 1350.5 1319.76 1353.7 1319.21C1353.97 1319.16 1354.23 1319.35 1354.28 1319.62C1357.31 1319.1 1360.29 1318.59 1363.2 1318.09C1363.15 1317.82 1363.33 1317.56 1363.61 1317.51C1366.93 1316.94 1370.17 1316.38 1373.32 1315.83C1373.59 1315.79 1373.85 1315.97 1373.9 1316.24C1376.98 1315.7 1379.98 1315.18 1382.9 1314.67C1382.85 1314.4 1383.03 1314.14 1383.3 1314.09C1386.66 1313.5 1389.9 1312.93 1393.03 1312.38C1393.3 1312.33 1393.56 1312.51 1393.61 1312.78C1396.68 1312.24 1399.63 1311.71 1402.46 1311.2C1402.41 1310.93 1402.6 1310.67 1402.87 1310.62C1406.37 1310 1409.68 1309.4 1412.8 1308.83C1413.07 1308.79 1413.33 1308.97 1413.38 1309.24C1416.53 1308.67 1419.49 1308.13 1422.24 1307.62C1422.19 1307.35 1422.37 1307.09 1422.64 1307.04C1426.31 1306.37 1429.59 1305.76 1432.46 1305.23C1432.74 1305.18 1433 1305.36 1433.05 1305.63C1436.54 1304.98 1439.41 1304.44 1441.62 1304.02C1441.57 1303.75 1441.74 1303.49 1442.02 1303.44C1443.62 1303.14 1444.84 1302.9 1445.67 1302.75L1446.17 1302.65L1446.5 1302.59V1297.99C1446.5 1297.71 1446.72 1297.49 1447 1297.49V1288.46C1446.72 1288.46 1446.5 1288.24 1446.5 1287.96V1277.94C1446.5 1277.67 1446.72 1277.44 1447 1277.44V1268.42C1446.72 1268.42 1446.5 1268.19 1446.5 1267.92V1257.9C1446.5 1257.62 1446.72 1257.4 1447 1257.4V1248.37C1446.72 1248.37 1446.5 1248.15 1446.5 1247.87V1237.85C1446.5 1237.57 1446.72 1237.35 1447 1237.35V1228.33C1446.72 1228.33 1446.5 1228.1 1446.5 1227.83V1217.8C1446.5 1217.53 1446.72 1217.3 1447 1217.3V1208.28C1446.72 1208.28 1446.5 1208.06 1446.5 1207.78V1197.76C1446.5 1197.48 1446.72 1197.26 1447 1197.26V1188.23C1446.72 1188.23 1446.5 1188.01 1446.5 1187.73V1177.71C1446.5 1177.43 1446.72 1177.21 1447 1177.21V1168.19C1446.72 1168.19 1446.5 1167.96 1446.5 1167.69V1157.66C1446.5 1157.39 1446.72 1157.16 1447 1157.16V1148.14C1446.72 1148.14 1446.5 1147.92 1446.5 1147.64V1137.62C1446.5 1137.34 1446.72 1137.12 1447 1137.12V1128.1C1446.72 1128.1 1446.5 1127.87 1446.5 1127.6V1117.57C1446.5 1117.3 1446.72 1117.07 1447 1117.07V1108.05C1446.72 1108.05 1446.5 1107.83 1446.5 1107.55V1097.53C1446.5 1097.25 1446.72 1097.03 1447 1097.03V1088C1446.72 1088 1446.5 1087.78 1446.5 1087.5V1077.48C1446.5 1077.2 1446.72 1076.98 1447 1076.98V1067.96C1446.72 1067.96 1446.5 1067.73 1446.5 1067.46V1057.43C1446.5 1057.16 1446.72 1056.93 1447 1056.93V1047.91C1446.72 1047.91 1446.5 1047.69 1446.5 1047.41V1037.39C1446.5 1037.11 1446.72 1036.89 1447 1036.89V1027.86C1446.72 1027.86 1446.5 1027.64 1446.5 1027.36V1017.34C1446.5 1017.07 1446.72 1016.84 1447 1016.84V1007.82C1446.72 1007.82 1446.5 1007.59 1446.5 1007.32V997.296C1446.5 997.019 1446.72 996.796 1447 996.796V987.772C1446.72 987.772 1446.5 987.549 1446.5 987.272V977.249C1446.5 976.973 1446.72 976.749 1447 976.749V967.726C1446.72 967.726 1446.5 967.502 1446.5 967.226V957.203C1446.5 956.927 1446.72 956.703 1447 956.703V947.68C1446.72 947.68 1446.5 947.456 1446.5 947.18V937.157C1446.5 936.881 1446.72 936.657 1447 936.657V927.634C1446.72 927.634 1446.5 927.41 1446.5 927.134V917.111C1446.5 916.835 1446.72 916.611 1447 916.611V907.588C1446.72 907.588 1446.5 907.364 1446.5 907.088V897.065C1446.5 896.789 1446.72 896.565 1447 896.565V887.542C1446.72 887.542 1446.5 887.318 1446.5 887.042V877.019C1446.5 876.743 1446.72 876.519 1447 876.519V867.496C1446.72 867.496 1446.5 867.272 1446.5 866.996V856.973C1446.5 856.696 1446.72 856.473 1447 856.473V847.45C1446.72 847.45 1446.5 847.226 1446.5 846.95V836.926C1446.5 836.65 1446.72 836.426 1447 836.426V827.403C1446.72 827.403 1446.5 827.18 1446.5 826.903V816.88C1446.5 816.604 1446.72 816.38 1447 816.38V807.357C1446.72 807.357 1446.5 807.133 1446.5 806.857V796.834C1446.5 796.558 1446.72 796.334 1447 796.334V787.311C1446.72 787.311 1446.5 787.087 1446.5 786.811V776.788C1446.5 776.512 1446.72 776.288 1447 776.288V767.265C1446.72 767.265 1446.5 767.041 1446.5 766.765V756.742C1446.5 756.466 1446.72 756.242 1447 756.242V747.219C1446.72 747.219 1446.5 746.995 1446.5 746.719V736.696C1446.5 736.42 1446.72 736.196 1447 736.196V727.173C1446.72 727.173 1446.5 726.949 1446.5 726.673V716.65C1446.5 716.373 1446.72 716.15 1447 716.15V707.127C1446.72 707.127 1446.5 706.903 1446.5 706.627V696.603C1446.5 696.327 1446.72 696.103 1447 696.103V687.08C1446.72 687.08 1446.5 686.857 1446.5 686.58V676.557C1446.5 676.281 1446.72 676.057 1447 676.057V667.034C1446.72 667.034 1446.5 666.81 1446.5 666.534V656.511C1446.5 656.235 1446.72 656.011 1447 656.011V646.988C1446.72 646.988 1446.5 646.764 1446.5 646.488V636.465C1446.5 636.189 1446.72 635.965 1447 635.965V626.942C1446.72 626.942 1446.5 626.718 1446.5 626.442V616.419C1446.5 616.143 1446.72 615.919 1447 615.919V606.896C1446.72 606.896 1446.5 606.672 1446.5 606.396V596.373C1446.5 596.097 1446.72 595.873 1447 595.873V586.85C1446.72 586.85 1446.5 586.626 1446.5 586.35V576.327C1446.5 576.05 1446.72 575.827 1447 575.827V566.804C1446.72 566.804 1446.5 566.58 1446.5 566.304V556.28C1446.5 556.004 1446.72 555.78 1447 555.78V546.757C1446.72 546.757 1446.5 546.534 1446.5 546.257V536.234C1446.5 535.958 1446.72 535.734 1447 535.734V526.711C1446.72 526.711 1446.5 526.487 1446.5 526.211V516.188C1446.5 515.912 1446.72 515.688 1447 515.688V506.665C1446.72 506.665 1446.5 506.441 1446.5 506.165V496.142C1446.5 495.866 1446.72 495.642 1447 495.642V486.619C1446.72 486.619 1446.5 486.395 1446.5 486.119V476.096C1446.5 475.82 1446.72 475.596 1447 475.596V466.573C1446.72 466.573 1446.5 466.349 1446.5 466.073V456.05C1446.5 455.774 1446.72 455.55 1447 455.55V446.527C1446.72 446.527 1446.5 446.303 1446.5 446.027V436.004C1446.5 435.727 1446.72 435.504 1447 435.504V426.48C1446.72 426.48 1446.5 426.257 1446.5 425.98V415.957C1446.5 415.681 1446.72 415.457 1447 415.457V406.434C1446.72 406.434 1446.5 406.211 1446.5 405.934V395.911C1446.5 395.635 1446.72 395.411 1447 395.411V386.388C1446.72 386.388 1446.5 386.164 1446.5 385.888V375.865C1446.5 375.589 1446.72 375.365 1447 375.365V366.342C1446.72 366.342 1446.5 366.118 1446.5 365.842V355.819C1446.5 355.543 1446.72 355.319 1447 355.319V346.296C1446.72 346.296 1446.5 346.072 1446.5 345.796V335.773C1446.5 335.497 1446.72 335.273 1447 335.273V326.25C1446.72 326.25 1446.5 326.026 1446.5 325.75V315.727C1446.5 315.451 1446.72 315.227 1447 315.227V306.204C1446.72 306.204 1446.5 305.98 1446.5 305.704V295.681C1446.5 295.404 1446.72 295.181 1447 295.181V286.157C1446.72 286.157 1446.5 285.934 1446.5 285.657V275.634C1446.5 275.358 1446.72 275.134 1447 275.134V266.111C1446.72 266.111 1446.5 265.887 1446.5 265.611V255.588C1446.5 255.312 1446.72 255.088 1447 255.088V246.065C1446.72 246.065 1446.5 245.841 1446.5 245.565V235.542C1446.5 235.266 1446.72 235.042 1447 235.042V226.019C1446.72 226.019 1446.5 225.795 1446.5 225.519V215.496C1446.5 215.22 1446.72 214.996 1447 214.996V205.973C1446.72 205.973 1446.5 205.749 1446.5 205.473V195.45C1446.5 195.174 1446.72 194.95 1447 194.95V185.927C1446.72 185.927 1446.5 185.703 1446.5 185.427V175.404C1446.5 175.128 1446.72 174.904 1447 174.904V165.881C1446.72 165.881 1446.5 165.657 1446.5 165.381V155.358C1446.5 155.081 1446.72 154.858 1447 154.858V145.834C1446.72 145.834 1446.5 145.611 1446.5 145.334V135.311C1446.5 135.035 1446.72 134.811 1447 134.811V125.788C1446.72 125.788 1446.5 125.564 1446.5 125.288V115.265C1446.5 114.989 1446.72 114.765 1447 114.765V105.742C1446.72 105.742 1446.5 105.518 1446.5 105.242V95.2191C1446.5 94.943 1446.72 94.7191 1447 94.7191V85.696C1446.72 85.696 1446.5 85.4722 1446.5 85.196V75.173C1446.5 74.8969 1446.72 74.673 1447 74.673V65.6499C1446.72 65.6499 1446.5 65.426 1446.5 65.1499V55.1268C1446.5 54.8507 1446.72 54.6268 1447 54.6268V45.6038C1446.72 45.6038 1446.5 45.3799 1446.5 45.1038V35.0807C1446.5 34.8044 1446.72 34.5807 1447 34.5807V25.5576C1446.72 25.5576 1446.5 25.3337 1446.5 25.0576V15.0345C1446.5 14.7583 1446.72 14.5345 1447 14.5345V5.51147C1446.72 5.51147 1446.5 5.2876 1446.5 5.01147V1.07104C1446.47 1.09839 1446.43 1.12634 1446.4 1.15527C1445.78 1.66406 1444.86 2.41663 1443.63 3.3938C1443.41 3.56543 1443.1 3.5293 1442.93 3.31311C1441.14 4.72546 1438.77 6.56299 1435.8 8.77502C1435.97 8.99646 1435.92 9.30969 1435.7 9.47461C1433.4 11.1852 1430.76 13.1112 1427.79 15.2302C1427.56 15.3903 1427.25 15.3376 1427.09 15.1125C1424.85 16.7004 1422.42 18.3945 1419.81 20.1857C1419.96 20.4136 1419.91 20.7247 1419.68 20.8806C1417.11 22.6354 1414.36 24.4816 1411.44 26.4106C1411.21 26.5626 1410.9 26.499 1410.75 26.2684C1408.35 27.8448 1405.84 29.4761 1403.2 31.1573C1403.35 31.3901 1403.28 31.6992 1403.05 31.8477C1400.42 33.5262 1397.67 35.2542 1394.8 37.0269C1394.57 37.172 1394.26 37.0992 1394.11 36.8644C1391.68 38.3661 1389.16 39.8997 1386.56 41.4624C1386.7 41.6992 1386.62 42.0063 1386.39 42.1484C1383.61 43.8156 1380.73 45.5155 1377.76 47.245C1377.52 47.3839 1377.21 47.3031 1377.07 47.0643C1374.61 48.4945 1372.09 49.9448 1369.5 51.4132C1369.63 51.6536 1369.55 51.9586 1369.31 52.0947C1366.5 53.6865 1363.61 55.2994 1360.64 56.9312C1360.4 57.0643 1360.09 56.9761 1359.96 56.7341C1357.42 58.1293 1354.83 59.5382 1352.18 60.9592C1352.31 61.2026 1352.22 61.5056 1351.97 61.636C1349.13 63.1588 1346.22 64.6954 1343.25 66.2441C1343 66.3717 1342.7 66.2766 1342.57 66.0317C1339.98 67.3785 1337.35 68.7344 1334.66 70.0981C1334.79 70.3445 1334.69 70.6454 1334.44 70.7703C1331.56 72.2323 1328.62 73.7032 1325.63 75.1816C1325.38 75.304 1325.08 75.2023 1324.96 74.9547C1322.34 76.2462 1319.68 77.5435 1316.98 78.8453C1317.1 79.0941 1316.99 79.3929 1316.74 79.5126C1313.82 80.9213 1310.84 82.3352 1307.81 83.7534C1307.56 83.8706 1307.26 83.7628 1307.14 83.5128C1304.51 84.7457 1301.84 85.9817 1299.13 87.22C1299.24 87.4712 1299.13 87.7677 1298.88 87.8823C1295.9 89.2435 1292.87 90.6074 1289.79 91.973C1289.54 92.0851 1289.25 91.9714 1289.13 91.7191C1286.49 92.892 1283.81 94.066 1281.1 95.2407C1281.21 95.4941 1281.1 95.7886 1280.84 95.8982C1277.82 97.2075 1274.75 98.5175 1271.64 99.827C1271.39 99.9343 1271.1 99.8149 1270.99 99.5604C1268.32 100.682 1265.63 101.803 1262.9 102.924C1263.01 103.18 1262.88 103.472 1262.63 103.577C1259.61 104.817 1256.55 106.056 1253.45 107.293C1253.2 107.395 1252.91 107.271 1252.8 107.014C1250.07 108.106 1247.3 109.196 1244.51 110.284C1244.61 110.541 1244.48 110.831 1244.22 110.931C1241.21 112.103 1238.16 113.273 1235.08 114.44C1234.82 114.538 1234.53 114.408 1234.44 114.15C1231.66 115.199 1228.86 116.245 1226.03 117.289C1226.13 117.548 1225.99 117.835 1225.73 117.931C1222.69 119.051 1219.62 120.167 1216.52 121.28C1216.26 121.373 1215.97 121.238 1215.88 120.978C1213.12 121.964 1210.34 122.947 1207.53 123.927C1207.63 124.187 1207.49 124.472 1207.23 124.563C1204.1 125.653 1200.94 126.739 1197.75 127.819C1197.49 127.907 1197.21 127.767 1197.12 127.506C1194.38 128.432 1191.62 129.354 1188.84 130.272C1188.92 130.535 1188.78 130.817 1188.52 130.904C1185.41 131.926 1182.28 132.944 1179.12 133.955C1178.85 134.039 1178.57 133.894 1178.49 133.631C1175.66 134.536 1172.8 135.437 1169.92 136.332C1170 136.596 1169.86 136.876 1169.59 136.958C1166.51 137.916 1163.4 138.867 1160.27 139.812C1160 139.892 1159.73 139.743 1159.65 139.478C1156.83 140.327 1153.99 141.171 1151.13 142.009C1151.21 142.274 1151.05 142.552 1150.79 142.629C1147.62 143.558 1144.42 144.48 1141.19 145.395C1140.93 145.47 1140.65 145.316 1140.58 145.05C1137.79 145.84 1134.98 146.625 1132.15 147.404C1132.22 147.671 1132.07 147.946 1131.8 148.019C1128.65 148.887 1125.47 149.748 1122.27 150.601C1122 150.672 1121.72 150.514 1121.65 150.247C1118.77 151.014 1115.87 151.775 1112.95 152.53C1113.02 152.797 1112.85 153.07 1112.59 153.139C1109.46 153.945 1106.31 154.745 1103.13 155.537C1102.87 155.604 1102.6 155.441 1102.53 155.173C1099.68 155.883 1096.82 156.586 1093.93 157.283C1094 157.552 1093.83 157.822 1093.56 157.886C1090.35 158.662 1087.12 159.429 1083.86 160.188C1083.59 160.251 1083.32 160.084 1083.26 159.815C1080.41 160.478 1077.55 161.134 1074.66 161.784C1074.72 162.053 1074.55 162.321 1074.29 162.381C1071.11 163.096 1067.91 163.803 1064.7 164.501C1064.43 164.56 1064.16 164.388 1064.1 164.119C1061.21 164.746 1058.3 165.366 1055.37 165.979C1055.43 166.249 1055.25 166.514 1054.98 166.571C1051.76 167.244 1048.52 167.909 1045.26 168.566C1044.99 168.62 1044.73 168.445 1044.67 168.174C1041.82 168.748 1038.95 169.314 1036.07 169.874C1036.12 170.145 1035.94 170.407 1035.67 170.46C1032.45 171.083 1029.22 171.697 1025.96 172.302C1025.69 172.353 1025.43 172.174 1025.38 171.902C1022.45 172.446 1019.51 172.982 1016.55 173.511C1016.59 173.783 1016.41 174.043 1016.14 174.091C1012.94 174.662 1009.72 175.224 1006.49 175.776C1006.22 175.823 1005.96 175.64 1005.91 175.368C1003.03 175.86 1000.13 176.345 997.211 176.822C997.256 177.095 997.071 177.352 996.798 177.396C993.551 177.928 990.285 178.45 987.002 178.962C986.729 179.005 986.474 178.818 986.431 178.545C983.493 179.003 980.541 179.453 977.575 179.896C977.616 180.169 977.427 180.423 977.154 180.464C973.95 180.94 970.73 181.408 967.493 181.867C967.219 181.906 966.966 181.715 966.927 181.442C964.019 181.853 961.096 182.257 958.161 182.653C958.198 182.927 958.006 183.178 957.732 183.215C954.462 183.655 951.175 184.086 947.872 184.507C947.598 184.542 947.348 184.348 947.313 184.074C944.381 184.447 941.437 184.812 938.48 185.169C938.513 185.443 938.317 185.692 938.043 185.725C934.82 186.113 931.581 186.492 928.327 186.862C928.052 186.893 927.805 186.696 927.773 186.422C924.849 186.753 921.911 187.076 918.962 187.392C918.991 187.667 918.792 187.913 918.518 187.942C915.233 188.293 911.932 188.634 908.616 188.965C908.341 188.992 908.096 188.792 908.069 188.517C905.136 188.809 902.19 189.093 899.233 189.369C899.259 189.644 899.057 189.888 898.782 189.914C895.546 190.215 892.296 190.507 889.032 190.789C888.756 190.813 888.514 190.609 888.49 190.334C885.556 190.586 882.611 190.831 879.653 191.068C879.675 191.344 879.47 191.585 879.195 191.607C875.901 191.87 872.593 192.123 869.271 192.366C868.996 192.386 868.756 192.179 868.736 191.904C865.793 192.118 862.838 192.325 859.872 192.523C859.89 192.799 859.682 193.037 859.406 193.056C856.164 193.272 852.909 193.478 849.641 193.675C849.365 193.692 849.128 193.482 849.112 193.206C846.174 193.382 843.226 193.55 840.267 193.71C840.281 193.986 840.07 194.222 839.794 194.237C836.498 194.414 833.189 194.582 829.866 194.739C829.591 194.752 829.356 194.539 829.343 194.264C826.381 194.403 823.407 194.535 820.423 194.658C820.435 194.934 820.22 195.167 819.944 195.178C816.702 195.311 813.448 195.435 810.181 195.549C809.905 195.559 809.673 195.343 809.663 195.067C806.728 195.168 803.782 195.262 800.826 195.348C800.834 195.624 800.617 195.854 800.341 195.862C797.048 195.956 793.743 196.041 790.425 196.115C790.149 196.121 789.92 195.903 789.914 195.627C786.927 195.693 783.931 195.751 780.924 195.801C780.929 196.077 780.709 196.304 780.432 196.309C777.191 196.362 773.937 196.405 770.671 196.438C770.395 196.441 770.169 196.22 770.166 195.944C767.237 195.973 764.299 195.994 761.351 196.008C761.352 196.284 761.129 196.509 760.853 196.51C757.568 196.524 754.272 196.528 750.963 196.523C750.687 196.522 750.464 196.298 750.464 196.022C747.488 196.016 744.502 196.002 741.506 195.98C741.504 196.256 741.278 196.478 741.002 196.476C739.336 196.463 737.667 196.448 735.995 196.43C734.321 196.412 732.649 196.392 730.98 196.369C730.704 196.365 730.483 196.139 730.487 195.863C727.486 195.821 724.493 195.773 721.509 195.717C721.504 195.993 721.276 196.213 720.999 196.207C717.683 196.144 714.378 196.072 711.083 195.991C710.807 195.985 710.588 195.755 710.595 195.479C707.636 195.406 704.686 195.325 701.745 195.238C701.737 195.514 701.506 195.731 701.23 195.723C697.952 195.624 694.684 195.517 691.428 195.401C691.152 195.391 690.936 195.16 690.946 194.884C687.936 194.776 684.935 194.66 681.944 194.538C681.932 194.814 681.699 195.028 681.424 195.017C678.1 194.88 674.788 194.734 671.488 194.579C671.212 194.566 670.999 194.332 671.012 194.056C668.047 193.917 665.092 193.77 662.146 193.616C662.131 193.891 661.896 194.103 661.62 194.089C658.343 193.917 655.076 193.736 651.821 193.546C651.546 193.53 651.335 193.294 651.351 193.018C648.363 192.843 645.384 192.661 642.415 192.472C642.397 192.748 642.16 192.957 641.884 192.94C638.557 192.727 635.243 192.505 631.941 192.275C631.665 192.256 631.457 192.017 631.477 191.741C628.51 191.534 625.553 191.319 622.606 191.097C622.586 191.373 622.345 191.579 622.07 191.558C618.792 191.311 615.526 191.055 612.273 190.79C611.997 190.768 611.792 190.526 611.815 190.251C608.845 190.009 605.886 189.76 602.937 189.504C602.913 189.779 602.671 189.982 602.396 189.958C599.07 189.668 595.757 189.37 592.457 189.063C592.182 189.037 591.98 188.793 592.005 188.518C589.041 188.242 586.086 187.958 583.143 187.667C583.115 187.942 582.871 188.143 582.596 188.115C579.322 187.791 576.061 187.459 572.813 187.118C572.538 187.089 572.339 186.843 572.368 186.569C569.41 186.257 566.463 185.939 563.527 185.615C563.497 185.889 563.25 186.087 562.975 186.056C559.655 185.688 556.348 185.311 553.055 184.926C552.781 184.894 552.584 184.645 552.616 184.371C549.658 184.024 546.711 183.67 543.775 183.31C543.741 183.584 543.492 183.779 543.218 183.745C539.953 183.343 536.701 182.933 533.464 182.515C533.19 182.48 532.997 182.229 533.032 181.955C530.079 181.573 527.137 181.184 524.207 180.788C524.17 181.062 523.918 181.254 523.645 181.217C520.334 180.769 517.039 180.313 513.758 179.849C513.485 179.81 513.294 179.557 513.333 179.283C510.386 178.865 507.451 178.441 504.528 178.01C504.488 178.283 504.234 178.472 503.961 178.431C500.71 177.951 497.473 177.463 494.252 176.967C493.979 176.925 493.792 176.669 493.834 176.397C490.878 175.94 487.934 175.478 485.002 175.009C484.959 175.281 484.702 175.467 484.43 175.423C481.135 174.895 477.857 174.359 474.594 173.815C474.321 173.77 474.137 173.512 474.183 173.24C471.253 172.75 468.336 172.255 465.432 171.753C465.385 172.025 465.126 172.207 464.854 172.16C461.623 171.601 458.408 171.034 455.209 170.46C454.938 170.411 454.757 170.151 454.806 169.879C451.838 169.346 448.884 168.806 445.944 168.26C445.894 168.531 445.633 168.71 445.361 168.66C442.089 168.051 438.834 167.435 435.596 166.811C435.325 166.759 435.147 166.496 435.2 166.225C432.293 165.664 429.4 165.098 426.522 164.525C426.468 164.796 426.204 164.972 425.934 164.918C422.691 164.272 419.467 163.619 416.26 162.959C415.989 162.903 415.815 162.639 415.871 162.368C412.923 161.76 409.989 161.146 407.071 160.527C407.013 160.797 406.748 160.969 406.478 160.912C403.235 160.223 400.011 159.526 396.806 158.823C396.536 158.764 396.365 158.497 396.425 158.227C393.549 157.595 390.689 156.958 387.843 156.316C387.782 156.585 387.514 156.754 387.245 156.693C383.976 155.954 380.727 155.208 377.498 154.455C377.229 154.393 377.062 154.124 377.125 153.855C374.21 153.175 371.312 152.489 368.43 151.798C368.365 152.066 368.095 152.232 367.827 152.167C364.623 151.398 361.439 150.623 358.275 149.841C358.007 149.775 357.843 149.504 357.91 149.236C355.012 148.519 352.131 147.797 349.266 147.07C349.198 147.338 348.926 147.5 348.659 147.432C345.417 146.608 342.197 145.778 338.999 144.943C338.732 144.873 338.572 144.6 338.642 144.333C335.771 143.581 332.918 142.825 330.082 142.065C330.01 142.332 329.736 142.49 329.469 142.418C326.278 141.561 323.109 140.699 319.962 139.831C319.695 139.758 319.539 139.482 319.612 139.216C316.704 138.413 313.815 137.606 310.945 136.794C310.87 137.06 310.594 137.214 310.328 137.139C307.14 136.236 303.976 135.328 300.835 134.415C300.57 134.338 300.418 134.061 300.495 133.796C297.655 132.969 294.835 132.139 292.034 131.305C291.955 131.57 291.677 131.72 291.412 131.642C288.19 130.681 284.993 129.715 281.822 128.746C281.557 128.665 281.409 128.385 281.49 128.121C278.643 127.25 275.817 126.374 273.012 125.496C272.929 125.76 272.648 125.906 272.385 125.823C269.237 124.837 266.115 123.846 263.019 122.851C262.756 122.766 262.612 122.485 262.696 122.222C259.816 121.296 256.959 120.366 254.124 119.434C254.038 119.696 253.755 119.839 253.493 119.752C250.346 118.716 247.227 117.676 244.136 116.634C243.874 116.546 243.733 116.262 243.822 116C241.002 115.048 238.207 114.094 235.434 113.137C235.344 113.398 235.059 113.537 234.798 113.447C231.623 112.35 228.478 111.25 225.364 110.149C225.104 110.057 224.967 109.771 225.059 109.511C222.266 108.521 219.498 107.531 216.756 106.539C216.662 106.799 216.375 106.933 216.115 106.839C212.969 105.7 209.855 104.559 206.775 103.417C206.516 103.321 206.384 103.034 206.48 102.775C203.663 101.729 200.873 100.684 198.112 99.6373C198.014 99.8955 197.725 100.025 197.467 99.9275C194.395 98.7622 191.357 97.5967 188.354 96.4315C188.097 96.3315 187.969 96.0419 188.069 95.7844C185.228 94.6808 182.418 93.5776 179.639 92.4753C179.537 92.7321 179.247 92.8574 178.99 92.7555C175.907 91.5311 172.862 90.308 169.856 89.0867C169.6 88.9828 169.477 88.6912 169.581 88.4353C166.795 87.3024 164.043 86.1713 161.324 85.0424C161.218 85.2974 160.925 85.4181 160.67 85.3121C157.575 84.0256 154.522 82.7422 151.513 81.4626C151.259 81.3546 151.141 81.061 151.249 80.8069C148.513 79.6423 145.813 78.4811 143.149 77.3239C143.039 77.5771 142.744 77.6931 142.491 77.583C139.387 76.2332 136.333 74.8889 133.327 73.5513C133.074 73.439 132.961 73.1434 133.073 72.8911C130.376 71.6892 127.718 70.4926 125.099 69.3022C124.985 69.5536 124.688 69.6647 124.437 69.5502C121.332 68.1368 118.283 66.7322 115.29 65.3378C115.04 65.2212 114.931 64.9237 115.048 64.6733C112.369 63.4236 109.735 62.1821 107.147 60.9498C107.028 61.1992 106.73 61.3049 106.48 61.186C103.39 59.7126 100.364 58.2524 97.4029 56.8071C97.1547 56.686 97.0518 56.3866 97.1729 56.1384C94.5044 54.8341 91.8891 53.5421 89.3272 52.2634C89.2037 52.5104 88.9034 52.6106 88.6564 52.4872C85.5886 50.9541 82.5978 49.4404 79.684 47.9482C79.4382 47.8224 79.341 47.5211 79.4669 47.2754C76.7847 45.9001 74.1683 44.5431 71.6179 43.2063C71.4895 43.4509 71.1873 43.545 70.9428 43.4167C67.9331 41.8372 65.0158 40.2859 62.1911 38.7654C61.948 38.6345 61.857 38.3313 61.9879 38.0881C59.2749 36.6259 56.648 35.1925 54.1077 33.7905C53.9741 34.0322 53.6699 34.1199 53.4282 33.9863C50.4501 32.3405 47.5916 30.7382 44.8532 29.1833C44.6131 29.047 44.529 28.7418 44.6653 28.5017C41.9972 26.9846 39.4444 25.5133 37.0072 24.0916C36.8679 24.33 36.5617 24.4103 36.3233 24.271C33.2761 22.4907 30.4116 20.7888 27.7308 19.173C27.4942 19.0304 27.4181 18.7231 27.5606 18.4867C24.8345 16.8408 22.3013 15.2858 19.9621 13.8293C19.816 14.0636 19.5075 14.135 19.2732 13.9889C16.1693 12.0529 13.4134 10.2948 11.0078 8.73389C10.7761 8.58362 10.7102 8.27393 10.8605 8.04224C7.73121 6.0072 5.21689 4.31995 3.32249 3.02539C3.3224 3.02539 3.32232 3.02576 3.32223 3.02576C3.16605 3.25342 2.85483 3.3114 2.6271 3.15527C1.3242 2.26172 0.344559 1.57446 -0.309874 1.11023C-0.376634 1.06287 -0.44001 1.01782 -0.5 0.975098V5.01184C-0.5 5.28796 -0.723858 5.51184 -1 5.51184V14.5349C-0.723858 14.5349 -0.5 14.7588 -0.5 15.0349V25.058C-0.5 25.3341 -0.723858 25.558 -1 25.558V34.5811C-0.723858 34.5811 -0.5 34.8049 -0.5 35.0811V45.1041C-0.5 45.3802 -0.723858 45.6041 -1 45.6041V54.6272C-0.723858 54.6272 -0.5 54.8511 -0.5 55.1272V65.1503C-0.5 65.4264 -0.723858 65.6503 -1 65.6503V74.6733C-0.723858 74.6733 -0.5 74.8972 -0.5 75.1733V85.1964C-0.5 85.4725 -0.723858 85.6964 -1 85.6964V94.7195C-0.723858 94.7195 -0.5 94.9434 -0.5 95.2195V105.243C-0.5 105.519 -0.723858 105.743 -1 105.743V114.766C-0.723858 114.766 -0.5 114.99 -0.5 115.266V125.289C-0.5 125.565 -0.723858 125.789 -1 125.789V134.812C-0.723858 134.812 -0.5 135.036 -0.5 135.312V145.335C-0.5 145.611 -0.723858 145.835 -1 145.835V154.858C-0.723858 154.858 -0.5 155.082 -0.5 155.358V165.381C-0.5 165.657 -0.723858 165.881 -1 165.881V174.904C-0.723858 174.904 -0.5 175.128 -0.5 175.404V185.427C-0.5 185.703 -0.723858 185.927 -1 185.927V194.95C-0.723858 194.95 -0.5 195.174 -0.5 195.45V205.473C-0.5 205.749 -0.723858 205.973 -1 205.973V214.996C-0.723858 214.996 -0.5 215.22 -0.5 215.496V225.519C-0.5 225.796 -0.723858 226.019 -1 226.019V235.042C-0.723858 235.042 -0.5 235.266 -0.5 235.542V245.566C-0.5 245.842 -0.723858 246.066 -1 246.066V255.089C-0.723858 255.089 -0.5 255.312 -0.5 255.589V265.612C-0.5 265.888 -0.723858 266.112 -1 266.112V275.135C-0.723858 275.135 -0.5 275.359 -0.5 275.635V285.658C-0.5 285.934 -0.723858 286.158 -1 286.158V295.181C-0.723858 295.181 -0.5 295.405 -0.5 295.681V305.704C-0.5 305.98 -0.723858 306.204 -1 306.204V315.227C-0.723858 315.227 -0.5 315.451 -0.5 315.727V325.75C-0.5 326.026 -0.723858 326.25 -1 326.25V335.273C-0.723858 335.273 -0.5 335.497 -0.5 335.773V345.796C-0.5 346.072 -0.723858 346.296 -1 346.296V355.319C-0.723858 355.319 -0.5 355.543 -0.5 355.819V365.842C-0.5 366.119 -0.723858 366.342 -1 366.342V375.366C-0.723858 375.366 -0.5 375.589 -0.5 375.866V385.889C-0.5 386.165 -0.723858 386.389 -1 386.389V395.412C-0.723858 395.412 -0.5 395.635 -0.5 395.912V405.935C-0.5 406.211 -0.723858 406.435 -1 406.435V415.458C-0.723858 415.458 -0.5 415.682 -0.5 415.958V425.981C-0.5 426.257 -0.723858 426.481 -1 426.481V435.504C-0.723858 435.504 -0.5 435.728 -0.5 436.004V446.027C-0.5 446.303 -0.723858 446.527 -1 446.527V455.55C-0.723858 455.55 -0.5 455.774 -0.5 456.05V466.073C-0.5 466.349 -0.723858 466.573 -1 466.573V475.596C-0.723858 475.596 -0.5 475.82 -0.5 476.096V486.119C-0.5 486.395 -0.723858 486.619 -1 486.619V495.642C-0.723858 495.642 -0.5 495.866 -0.5 496.142V506.165C-0.5 506.442 -0.723858 506.665 -1 506.665V515.689C-0.723858 515.689 -0.5 515.912 -0.5 516.189V526.212C-0.5 526.488 -0.723858 526.712 -1 526.712V535.735C-0.723858 535.735 -0.5 535.959 -0.5 536.235V546.258C-0.5 546.534 -0.723858 546.758 -1 546.758V555.781C-0.723858 555.781 -0.5 556.005 -0.5 556.281V566.304C-0.5 566.58 -0.723858 566.804 -1 566.804V575.827C-0.723858 575.827 -0.5 576.051 -0.5 576.327V586.35C-0.5 586.626 -0.723858 586.85 -1 586.85V595.873C-0.723858 595.873 -0.5 596.097 -0.5 596.373V606.396C-0.5 606.672 -0.723858 606.896 -1 606.896V615.919C-0.723858 615.919 -0.5 616.143 -0.5 616.419V626.442C-0.5 626.718 -0.723858 626.942 -1 626.942V635.965C-0.723858 635.965 -0.5 636.189 -0.5 636.465V646.488C-0.5 646.765 -0.723858 646.988 -1 646.988V656.012C-0.723858 656.012 -0.5 656.235 -0.5 656.512V666.535C-0.5 666.811 -0.723858 667.035 -1 667.035V676.058C-0.723858 676.058 -0.5 676.281 -0.5 676.558V686.581C-0.5 686.857 -0.723858 687.081 -1 687.081V696.104C-0.723858 696.104 -0.5 696.328 -0.5 696.604V706.627C-0.5 706.903 -0.723858 707.127 -1 707.127V716.15C-0.723858 716.15 -0.5 716.374 -0.5 716.65V726.673C-0.5 726.949 -0.723858 727.173 -1 727.173V736.196C-0.723858 736.196 -0.5 736.42 -0.5 736.696V746.719C-0.5 746.995 -0.723858 747.219 -1 747.219V756.242C-0.723858 756.242 -0.5 756.466 -0.5 756.742V766.765C-0.5 767.041 -0.723858 767.265 -1 767.265V776.288C-0.723858 776.288 -0.5 776.512 -0.5 776.788V786.811C-0.5 787.088 -0.723858 787.311 -1 787.311V796.335C-0.723858 796.335 -0.5 796.558 -0.5 796.835V806.858C-0.5 807.134 -0.723858 807.358 -1 807.358V816.381C-0.723858 816.381 -0.5 816.605 -0.5 816.881V826.904C-0.5 827.18 -0.723858 827.404 -1 827.404V836.427C-0.723858 836.427 -0.5 836.651 -0.5 836.927V846.95C-0.5 847.226 -0.723858 847.45 -1 847.45V856.473C-0.723858 856.473 -0.5 856.697 -0.5 856.973V866.996C-0.5 867.272 -0.723858 867.496 -1 867.496V876.519C-0.723858 876.519 -0.5 876.743 -0.5 877.019V887.042C-0.5 887.318 -0.723858 887.542 -1 887.542V896.565C-0.723858 896.565 -0.5 896.789 -0.5 897.065V907.088C-0.5 907.364 -0.723858 907.588 -1 907.588V916.611C-0.723858 916.611 -0.5 916.835 -0.5 917.111V927.134C-0.5 927.411 -0.723858 927.634 -1 927.634V936.658C-0.723858 936.658 -0.5 936.881 -0.5 937.158V947.181C-0.5 947.457 -0.723858 947.681 -1 947.681V956.704C-0.723858 956.704 -0.5 956.928 -0.5 957.204V967.227C-0.5 967.503 -0.723858 967.727 -1 967.727V976.75C-0.723858 976.75 -0.5 976.974 -0.5 977.25V987.273C-0.5 987.549 -0.723858 987.773 -1 987.773V996.796C-0.723858 996.796 -0.5 997.02 -0.5 997.296V1007.32C-0.5 1007.6 -0.723858 1007.82 -1 1007.82V1016.84C-0.723858 1016.84 -0.5 1017.07 -0.5 1017.34V1027.37C-0.5 1027.64 -0.723858 1027.87 -1 1027.87V1036.89C-0.723858 1036.89 -0.5 1037.11 -0.5 1037.39V1047.41C-0.5 1047.69 -0.723858 1047.91 -1 1047.91V1056.93C-0.723858 1056.93 -0.5 1057.16 -0.5 1057.43V1067.46C-0.5 1067.73 -0.723858 1067.96 -1 1067.96V1076.98C-0.723858 1076.98 -0.5 1077.2 -0.5 1077.48V1087.5C-0.5 1087.78 -0.723858 1088 -1 1088V1097.03C-0.723858 1097.03 -0.5 1097.25 -0.5 1097.53V1107.55C-0.5 1107.83 -0.723858 1108.05 -1 1108.05V1117.07C-0.723858 1117.07 -0.5 1117.3 -0.5 1117.57V1127.6C-0.5 1127.87 -0.723858 1128.1 -1 1128.1V1137.12C-0.723858 1137.12 -0.5 1137.34 -0.5 1137.62V1147.64C-0.5 1147.92 -0.723858 1148.14 -1 1148.14V1157.17C-0.723858 1157.17 -0.5 1157.39 -0.5 1157.67V1167.69C-0.5 1167.96 -0.723858 1168.19 -1 1168.19V1177.21C-0.723858 1177.21 -0.5 1177.44 -0.5 1177.71V1187.73C-0.5 1188.01 -0.723858 1188.23 -1 1188.23V1197.26C-0.723858 1197.26 -0.5 1197.48 -0.5 1197.76V1207.78C-0.5 1208.06 -0.723858 1208.28 -1 1208.28V1217.3C-0.723858 1217.3 -0.5 1217.53 -0.5 1217.8V1227.83C-0.5 1228.1 -0.723858 1228.33 -1 1228.33V1237.35C-0.723858 1237.35 -0.5 1237.57 -0.5 1237.85V1247.87C-0.5 1248.15 -0.723858 1248.37 -1 1248.37V1257.4C-0.723858 1257.4 -0.5 1257.62 -0.5 1257.9V1267.92C-0.5 1268.2 -0.723858 1268.42 -1 1268.42V1277.44C-0.723858 1277.44 -0.5 1277.67 -0.5 1277.94V1287.97C-0.5 1288.24 -0.723858 1288.47 -1 1288.47V1297.49Z" stroke="black" stroke-linecap="round" stroke-dasharray="10 10"/>
</g>
</g>
<defs>
<filter id="filter0_d_736_38" x="-21" y="-16" width="1488" height="1425.51" filterUnits="userSpaceOnUse" color-interpolation-filters="sRGB">
<feFlood flood-opacity="0" result="BackgroundImageFix"/>
<feColorMatrix in="SourceAlpha" type="matrix" values="0 0 0 0 0 0 0 0 0 0 0 0 0 0 0 0 0 0 127 0" result="hardAlpha"/>
<feOffset dy="4"/>
<feGaussianBlur stdDeviation="10"/>
<feComposite in2="hardAlpha" operator="out"/>
<feColorMatrix type="matrix" values="0 0 0 0 0.554167 0 0 0 0 0.435944 0 0 0 0 0 0 0 0 0.64 0"/>
<feBlend mode="normal" in2="BackgroundImageFix" result="effect1_dropShadow_736_38"/>
<feBlend mode="normal" in="SourceGraphic" in2="effect1_dropShadow_736_38" result="shape"/>
</filter>
</defs>
</svg>
