<svg width="1438" height="90" viewBox="0 0 1438 90" fill="none" xmlns="http://www.w3.org/2000/svg">
<rect width="1438" height="90" fill="white"/>
<mask id="mask0_734_27" style="mask-type:alpha" maskUnits="userSpaceOnUse" x="0" y="0" width="1438" height="90">
<rect width="1438" height="90" fill="#fcf1e9"/>
</mask>
<g mask="url(#mask0_734_27)">
<g filter="url(#filter0_d_734_27)">
<path d="M-1 -874C-1 -874 440.25 -792.421 722.5 -792.5C1005.53 -792.58 1439 -874 1439 -874V53C1439 53 938.5 3.49951 722.5 1.99951C506.5 0.499512 -1 53 -1 53V-874Z" fill="#fcf1e9"/>
<path d="M-1 -868.462C-0.723858 -868.462 -0.5 -868.686 -0.5 -868.962V-873.4C-0.318285 -873.366 -0.095072 -873.325 0.169068 -873.277C1.00276 -873.124 2.24416 -872.898 3.87528 -872.603C4.147 -872.554 4.40716 -872.734 4.45635 -873.006C4.45636 -873.006 4.45636 -873.006 4.45636 -873.006C6.70449 -872.599 9.62534 -872.074 13.1778 -871.441C13.1778 -871.441 13.1778 -871.441 13.1778 -871.441C13.1295 -871.169 13.3106 -870.91 13.5825 -870.861C16.5045 -870.341 19.839 -869.751 23.5642 -869.097C23.8361 -869.049 24.0953 -869.231 24.1431 -869.503C24.1431 -869.503 24.1431 -869.503 24.1431 -869.503C26.9353 -869.013 29.9426 -868.487 33.156 -867.929C33.1087 -867.657 33.291 -867.398 33.5631 -867.351C36.7308 -866.801 40.0959 -866.219 43.6497 -865.609C43.9219 -865.562 44.1804 -865.745 44.2272 -866.017C47.1051 -865.523 50.1055 -865.01 53.2239 -864.48C53.1776 -864.207 53.3608 -863.949 53.633 -863.903C56.8079 -863.363 60.1038 -862.805 63.5164 -862.23C63.7887 -862.184 64.0466 -862.368 64.0925 -862.64C67.0579 -862.141 70.1106 -861.629 73.2476 -861.106C73.2021 -860.833 73.3861 -860.576 73.6585 -860.53C76.8586 -859.996 80.1458 -859.45 83.5169 -858.893C83.7894 -858.848 84.0467 -859.032 84.0918 -859.305C87.0549 -858.815 90.0825 -858.317 93.1723 -857.811C93.1277 -857.538 93.3124 -857.281 93.5849 -857.236C96.8302 -856.705 100.144 -856.164 103.523 -855.616C103.796 -855.572 104.053 -855.757 104.097 -856.029C107.068 -855.547 110.091 -855.059 113.162 -854.565C113.118 -854.292 113.303 -854.035 113.576 -853.992C116.836 -853.467 120.151 -852.937 123.518 -852.4C123.791 -852.356 124.047 -852.542 124.091 -852.815C127.083 -852.338 130.117 -851.857 133.191 -851.371C133.148 -851.098 133.334 -850.842 133.607 -850.799C136.866 -850.284 140.17 -849.765 143.517 -849.241C143.79 -849.198 144.046 -849.385 144.089 -849.658C147.11 -849.185 150.166 -848.709 153.257 -848.23C153.215 -847.957 153.402 -847.701 153.675 -847.659C156.926 -847.155 160.214 -846.647 163.539 -846.137C163.812 -846.095 164.067 -846.282 164.109 -846.555C167.111 -846.094 170.142 -845.631 173.201 -845.165C173.159 -844.892 173.347 -844.637 173.62 -844.595C176.913 -844.094 180.239 -843.591 183.597 -843.085C183.87 -843.043 184.125 -843.231 184.166 -843.505C187.144 -843.056 190.147 -842.606 193.174 -842.154C193.133 -841.881 193.322 -841.626 193.595 -841.585C196.934 -841.087 200.303 -840.587 203.699 -840.085C203.972 -840.045 204.226 -840.233 204.266 -840.506C207.224 -840.07 210.203 -839.632 213.202 -839.193C213.162 -838.92 213.351 -838.666 213.624 -838.626C216.957 -838.138 220.316 -837.649 223.698 -837.16C223.971 -837.12 224.225 -837.31 224.264 -837.583C227.253 -837.15 230.26 -836.717 233.285 -836.284C233.246 -836.01 233.436 -835.757 233.709 -835.718C237.019 -835.244 240.35 -834.769 243.702 -834.294C243.975 -834.255 244.228 -834.445 244.267 -834.719C247.292 -834.29 250.333 -833.862 253.39 -833.433C253.352 -833.16 253.542 -832.907 253.816 -832.868C257.117 -832.406 260.437 -831.943 263.774 -831.48C264.048 -831.442 264.3 -831.633 264.338 -831.907C267.338 -831.491 270.352 -831.076 273.379 -830.661C273.341 -830.387 273.533 -830.135 273.806 -830.098C277.156 -829.639 280.521 -829.18 283.903 -828.722C284.176 -828.685 284.428 -828.877 284.465 -829.151C287.446 -828.747 290.439 -828.345 293.444 -827.942C293.407 -827.669 293.6 -827.417 293.873 -827.38C297.211 -826.934 300.563 -826.488 303.928 -826.044C304.202 -826.008 304.453 -826.2 304.489 -826.474C307.505 -826.076 310.531 -825.679 313.567 -825.282C313.532 -825.009 313.725 -824.758 313.998 -824.722C317.32 -824.289 320.654 -823.857 323.998 -823.426C324.272 -823.391 324.523 -823.585 324.558 -823.859C327.574 -823.471 330.598 -823.084 333.631 -822.699C333.597 -822.425 333.791 -822.174 334.064 -822.14C337.408 -821.715 340.761 -821.293 344.124 -820.872C344.398 -820.837 344.648 -821.032 344.683 -821.306C347.684 -820.93 350.694 -820.556 353.71 -820.184C353.676 -819.91 353.871 -819.66 354.145 -819.627C357.494 -819.214 360.851 -818.802 364.217 -818.394C364.491 -818.36 364.74 -818.556 364.773 -818.83C367.789 -818.464 370.811 -818.099 373.839 -817.737C373.806 -817.463 374.002 -817.214 374.276 -817.181C377.615 -816.782 380.96 -816.385 384.312 -815.99C384.586 -815.958 384.835 -816.154 384.867 -816.429C387.889 -816.073 390.916 -815.72 393.947 -815.369C393.915 -815.095 394.112 -814.847 394.386 -814.815C397.735 -814.428 401.09 -814.043 404.45 -813.661C404.724 -813.63 404.972 -813.827 405.003 -814.101C408.018 -813.759 411.037 -813.419 414.059 -813.081C414.028 -812.807 414.226 -812.56 414.5 -812.529C417.855 -812.155 421.213 -811.783 424.575 -811.415C424.85 -811.385 425.096 -811.583 425.127 -811.858C428.149 -811.527 431.175 -811.199 434.202 -810.874C434.173 -810.6 434.372 -810.353 434.646 -810.324C437.998 -809.964 441.353 -809.608 444.709 -809.255C444.984 -809.226 445.23 -809.425 445.259 -809.7C448.284 -809.382 451.311 -809.068 454.339 -808.756C454.311 -808.481 454.51 -808.236 454.785 -808.208C458.143 -807.862 461.503 -807.521 464.863 -807.183C465.138 -807.156 465.383 -807.356 465.411 -807.631C468.437 -807.327 471.464 -807.027 474.491 -806.73C474.464 -806.455 474.665 -806.21 474.94 -806.183C478.299 -805.854 481.658 -805.529 485.017 -805.208C485.292 -805.182 485.536 -805.383 485.562 -805.658C488.592 -805.369 491.622 -805.083 494.651 -804.801C494.625 -804.526 494.827 -804.283 495.102 -804.257C498.467 -803.944 501.831 -803.636 505.192 -803.332C505.467 -803.307 505.711 -803.51 505.735 -803.785C508.764 -803.512 511.792 -803.242 514.817 -802.977C514.793 -802.701 514.996 -802.459 515.271 -802.435C518.638 -802.14 522.002 -801.85 525.362 -801.564C525.638 -801.541 525.88 -801.745 525.903 -802.02C528.941 -801.763 531.977 -801.51 535.009 -801.261C534.987 -800.986 535.192 -800.744 535.467 -800.722C538.831 -800.446 542.192 -800.176 545.547 -799.911C545.823 -799.889 546.063 -800.094 546.085 -800.37C549.122 -800.13 552.156 -799.896 555.185 -799.665C555.164 -799.39 555.37 -799.15 555.646 -799.129C559.024 -798.873 562.397 -798.622 565.764 -798.378C566.039 -798.358 566.279 -798.565 566.299 -798.84C569.331 -798.62 572.358 -798.406 575.38 -798.196C575.361 -797.92 575.569 -797.681 575.844 -797.662C579.221 -797.428 582.591 -797.2 585.953 -796.979C586.229 -796.961 586.467 -797.17 586.485 -797.445C589.534 -797.245 592.578 -797.05 595.614 -796.861C595.597 -796.585 595.807 -796.348 596.082 -796.33C599.45 -796.121 602.81 -795.918 606.16 -795.722C606.436 -795.706 606.673 -795.916 606.689 -796.192C609.738 -796.014 612.78 -795.842 615.813 -795.676C615.798 -795.4 616.01 -795.165 616.285 -795.15C619.675 -794.965 623.054 -794.787 626.422 -794.617C626.697 -794.603 626.932 -794.815 626.946 -795.091C629.978 -794.939 633.001 -794.792 636.015 -794.652C636.002 -794.377 636.215 -794.143 636.491 -794.13C639.888 -793.973 643.272 -793.824 646.643 -793.683C646.919 -793.672 647.152 -793.886 647.163 -794.162C650.219 -794.035 653.264 -793.915 656.297 -793.802C656.287 -793.526 656.502 -793.294 656.778 -793.283C660.143 -793.159 663.494 -793.043 666.829 -792.935C667.105 -792.927 667.336 -793.143 667.345 -793.419C670.422 -793.321 673.486 -793.23 676.537 -793.147C676.53 -792.871 676.747 -792.641 677.023 -792.634C680.414 -792.543 683.788 -792.461 687.145 -792.389C687.421 -792.383 687.649 -792.602 687.655 -792.878C690.691 -792.813 693.712 -792.757 696.718 -792.709C696.713 -792.433 696.934 -792.205 697.21 -792.201C700.633 -792.147 704.036 -792.104 707.419 -792.072C707.695 -792.069 707.921 -792.291 707.924 -792.567C710.968 -792.539 713.996 -792.519 717.007 -792.509C717.006 -792.233 717.229 -792.008 717.505 -792.008C719.175 -792.002 720.841 -792 722.5 -792C724.145 -792.001 725.796 -792.004 727.451 -792.01C727.727 -792.011 727.95 -792.236 727.949 -792.512C730.929 -792.524 733.925 -792.544 736.937 -792.573C736.94 -792.297 737.166 -792.075 737.442 -792.078C740.791 -792.111 744.16 -792.155 747.546 -792.21C747.822 -792.214 748.043 -792.441 748.038 -792.717C751.016 -792.766 754.008 -792.823 757.013 -792.887C757.02 -792.611 757.248 -792.392 757.524 -792.398C760.849 -792.47 764.189 -792.552 767.545 -792.643C767.821 -792.65 768.039 -792.88 768.031 -793.156C771.052 -793.239 774.086 -793.329 777.131 -793.427C777.14 -793.151 777.371 -792.934 777.647 -792.943C780.952 -793.05 784.27 -793.166 787.601 -793.289C787.877 -793.3 788.093 -793.532 788.082 -793.808C791.082 -793.92 794.093 -794.039 797.113 -794.165C797.125 -793.889 797.358 -793.674 797.634 -793.686C800.976 -793.826 804.331 -793.974 807.697 -794.13C807.973 -794.142 808.186 -794.376 808.174 -794.652C811.155 -794.791 814.145 -794.936 817.144 -795.087C817.158 -794.811 817.392 -794.599 817.668 -794.613C821.002 -794.782 824.347 -794.958 827.701 -795.141C827.977 -795.156 828.188 -795.392 828.173 -795.667C831.178 -795.832 834.191 -796.003 837.211 -796.179C837.227 -795.904 837.463 -795.693 837.739 -795.709C841.057 -795.904 844.383 -796.105 847.718 -796.313C847.993 -796.33 848.203 -796.568 848.186 -796.843C851.188 -797.031 854.197 -797.224 857.212 -797.422C857.23 -797.147 857.468 -796.938 857.744 -796.956C861.077 -797.176 864.418 -797.403 867.765 -797.635C868.041 -797.654 868.248 -797.893 868.229 -798.168C871.219 -798.377 874.213 -798.59 877.212 -798.808C877.232 -798.532 877.472 -798.325 877.747 -798.345C881.08 -798.588 884.419 -798.837 887.763 -799.091C888.038 -799.112 888.244 -799.352 888.223 -799.627C891.223 -799.856 894.227 -800.089 897.234 -800.327C897.256 -800.052 897.497 -799.846 897.772 -799.868C901.096 -800.131 904.423 -800.4 907.755 -800.674C908.03 -800.696 908.235 -800.938 908.212 -801.213C911.211 -801.46 914.213 -801.711 917.218 -801.967C917.241 -801.692 917.483 -801.488 917.758 -801.511C921.089 -801.795 924.422 -802.083 927.758 -802.377C928.033 -802.401 928.236 -802.644 928.212 -802.919C931.206 -803.182 934.201 -803.45 937.197 -803.722C937.222 -803.447 937.465 -803.244 937.74 -803.269C941.069 -803.571 944.4 -803.878 947.731 -804.189C948.006 -804.215 948.208 -804.458 948.182 -804.733C951.18 -805.014 954.178 -805.298 957.176 -805.585C957.202 -805.31 957.446 -805.109 957.721 -805.135C961.049 -805.455 964.376 -805.779 967.703 -806.106C967.978 -806.133 968.179 -806.378 968.152 -806.653C971.146 -806.948 974.141 -807.247 977.134 -807.549C977.162 -807.274 977.407 -807.074 977.682 -807.102C981.01 -807.438 984.337 -807.778 987.662 -808.122C987.937 -808.15 988.136 -808.396 988.108 -808.671C991.105 -808.981 994.1 -809.294 997.094 -809.61C997.123 -809.336 997.369 -809.136 997.644 -809.165C1000.97 -809.517 1004.29 -809.872 1007.61 -810.23C1007.89 -810.26 1008.08 -810.507 1008.05 -810.781C1011.05 -811.105 1014.04 -811.431 1017.03 -811.76C1017.06 -811.486 1017.31 -811.288 1017.58 -811.318C1020.91 -811.685 1024.24 -812.055 1027.56 -812.429C1027.84 -812.46 1028.03 -812.707 1028 -812.982C1030.99 -813.318 1033.98 -813.657 1036.97 -813.998C1037 -813.724 1037.24 -813.527 1037.52 -813.558C1040.84 -813.939 1044.16 -814.322 1047.48 -814.708C1047.75 -814.74 1047.95 -814.988 1047.92 -815.263C1050.92 -815.613 1053.91 -815.965 1056.91 -816.319C1056.94 -816.045 1057.19 -815.849 1057.46 -815.882C1060.78 -816.275 1064.1 -816.672 1067.41 -817.07C1067.68 -817.103 1067.87 -817.352 1067.84 -817.627C1070.83 -817.987 1073.82 -818.35 1076.8 -818.715C1076.83 -818.441 1077.08 -818.246 1077.35 -818.279C1080.69 -818.688 1084.02 -819.098 1087.34 -819.511C1087.61 -819.545 1087.81 -819.795 1087.77 -820.069C1090.76 -820.441 1093.74 -820.814 1096.71 -821.189C1096.74 -820.915 1096.99 -820.721 1097.27 -820.755C1100.59 -821.175 1103.91 -821.597 1107.21 -822.02C1107.49 -822.055 1107.68 -822.306 1107.65 -822.58C1110.65 -822.965 1113.65 -823.351 1116.63 -823.738C1116.67 -823.465 1116.92 -823.271 1117.19 -823.307C1120.51 -823.737 1123.81 -824.169 1127.11 -824.603C1127.38 -824.639 1127.57 -824.89 1127.54 -825.164C1130.53 -825.558 1133.52 -825.954 1136.5 -826.351C1136.53 -826.077 1136.79 -825.885 1137.06 -825.921C1140.4 -826.366 1143.72 -826.812 1147.03 -827.259C1147.3 -827.296 1147.49 -827.548 1147.46 -827.822C1150.43 -828.224 1153.4 -828.627 1156.35 -829.03C1156.39 -828.757 1156.64 -828.565 1156.91 -828.603C1160.25 -829.059 1163.58 -829.517 1166.89 -829.975C1167.16 -830.013 1167.35 -830.265 1167.32 -830.539C1170.32 -830.954 1173.3 -831.37 1176.27 -831.786C1176.31 -831.512 1176.57 -831.322 1176.84 -831.36C1180.14 -831.822 1183.42 -832.284 1186.68 -832.746C1186.96 -832.785 1187.15 -833.038 1187.11 -833.312C1190.13 -833.74 1193.15 -834.169 1196.14 -834.598C1196.18 -834.325 1196.43 -834.135 1196.71 -834.174C1200.03 -834.65 1203.33 -835.126 1206.62 -835.601C1206.89 -835.641 1207.08 -835.894 1207.04 -836.168C1210.02 -836.6 1212.99 -837.032 1215.94 -837.463C1215.98 -837.19 1216.23 -837.001 1216.5 -837.041C1219.86 -837.532 1223.19 -838.022 1226.5 -838.511C1226.77 -838.552 1226.96 -838.806 1226.92 -839.079C1229.89 -839.519 1232.84 -839.958 1235.77 -840.395C1235.81 -840.122 1236.07 -839.934 1236.34 -839.975C1239.69 -840.476 1243.02 -840.976 1246.32 -841.474C1246.59 -841.515 1246.78 -841.77 1246.74 -842.043C1249.74 -842.496 1252.72 -842.947 1255.67 -843.397C1255.71 -843.124 1255.97 -842.937 1256.24 -842.978C1259.55 -843.484 1262.84 -843.987 1266.09 -844.488C1266.36 -844.53 1266.55 -844.785 1266.51 -845.058C1269.54 -845.525 1272.55 -845.99 1275.52 -846.453C1275.56 -846.18 1275.82 -845.993 1276.09 -846.035C1279.39 -846.548 1282.65 -847.058 1285.88 -847.564C1286.15 -847.607 1286.34 -847.863 1286.3 -848.136C1289.34 -848.614 1292.36 -849.09 1295.34 -849.562C1295.38 -849.289 1295.64 -849.103 1295.91 -849.146C1299.23 -849.673 1302.51 -850.195 1305.75 -850.712C1306.02 -850.755 1306.2 -851.012 1306.16 -851.284C1309.19 -851.77 1312.18 -852.25 1315.14 -852.727C1315.18 -852.454 1315.44 -852.269 1315.71 -852.313C1319.05 -852.852 1322.34 -853.386 1325.58 -853.913C1325.85 -853.957 1326.03 -854.214 1325.99 -854.487C1329.02 -854.981 1332 -855.469 1334.93 -855.951C1334.98 -855.678 1335.23 -855.494 1335.51 -855.538C1338.86 -856.09 1342.15 -856.634 1345.37 -857.168C1345.64 -857.214 1345.83 -857.471 1345.78 -857.743C1348.83 -858.25 1351.82 -858.748 1354.74 -859.238C1354.79 -858.965 1355.04 -858.781 1355.32 -858.827C1358.66 -859.388 1361.93 -859.937 1365.1 -860.475C1365.38 -860.521 1365.56 -860.779 1365.51 -861.051C1368.61 -861.575 1371.62 -862.087 1374.55 -862.587C1374.6 -862.315 1374.85 -862.132 1375.13 -862.178C1378.5 -862.754 1381.76 -863.313 1384.9 -863.854C1385.17 -863.901 1385.35 -864.16 1385.3 -864.432C1388.4 -864.966 1391.38 -865.482 1394.23 -865.98C1394.28 -865.708 1394.54 -865.526 1394.81 -865.573C1398.32 -866.185 1401.65 -866.769 1404.79 -867.321C1405.06 -867.369 1405.24 -867.628 1405.19 -867.9C1408.37 -868.46 1411.34 -868.987 1414.1 -869.478C1414.15 -869.207 1414.41 -869.025 1414.68 -869.074C1418.37 -869.731 1421.67 -870.325 1424.56 -870.847C1424.84 -870.896 1425.02 -871.157 1424.97 -871.428C1428.47 -872.062 1431.36 -872.589 1433.58 -872.997C1433.58 -872.997 1433.58 -872.997 1433.58 -872.997C1433.63 -872.725 1433.89 -872.546 1434.16 -872.596C1435.78 -872.893 1437.01 -873.122 1437.84 -873.275C1438.1 -873.324 1438.32 -873.364 1438.5 -873.398V-868.963C1438.5 -868.687 1438.72 -868.463 1439 -868.463V-859.387C1438.72 -859.387 1438.5 -859.163 1438.5 -858.887V-848.81C1438.5 -848.534 1438.72 -848.31 1439 -848.31V-839.234C1438.72 -839.234 1438.5 -839.011 1438.5 -838.734V-828.658C1438.5 -828.382 1438.72 -828.158 1439 -828.158V-819.082C1438.72 -819.082 1438.5 -818.858 1438.5 -818.582V-808.506C1438.5 -808.23 1438.72 -808.006 1439 -808.006V-798.93C1438.72 -798.93 1438.5 -798.706 1438.5 -798.43V-788.354C1438.5 -788.078 1438.72 -787.854 1439 -787.854V-778.778C1438.72 -778.778 1438.5 -778.554 1438.5 -778.278V-768.202C1438.5 -767.925 1438.72 -767.702 1439 -767.702V-758.625C1438.72 -758.625 1438.5 -758.402 1438.5 -758.125V-748.049C1438.5 -747.773 1438.72 -747.549 1439 -747.549V-738.473C1438.72 -738.473 1438.5 -738.249 1438.5 -737.973V-727.897C1438.5 -727.621 1438.72 -727.397 1439 -727.397V-718.321C1438.72 -718.321 1438.5 -718.097 1438.5 -717.821V-707.745C1438.5 -707.469 1438.72 -707.245 1439 -707.245V-698.169C1438.72 -698.169 1438.5 -697.945 1438.5 -697.669V-687.593C1438.5 -687.317 1438.72 -687.093 1439 -687.093V-678.017C1438.72 -678.017 1438.5 -677.793 1438.5 -677.517V-667.441C1438.5 -667.164 1438.72 -666.941 1439 -666.941V-657.864C1438.72 -657.864 1438.5 -657.641 1438.5 -657.364V-647.288C1438.5 -647.012 1438.72 -646.788 1439 -646.788V-637.712C1438.72 -637.712 1438.5 -637.488 1438.5 -637.212V-627.136C1438.5 -626.86 1438.72 -626.636 1439 -626.636V-617.56C1438.72 -617.56 1438.5 -617.336 1438.5 -617.06V-606.984C1438.5 -606.708 1438.72 -606.484 1439 -606.484V-597.408C1438.72 -597.408 1438.5 -597.184 1438.5 -596.908V-586.832C1438.5 -586.555 1438.72 -586.332 1439 -586.332V-577.255C1438.72 -577.255 1438.5 -577.032 1438.5 -576.755V-566.679C1438.5 -566.403 1438.72 -566.179 1439 -566.179V-557.103C1438.72 -557.103 1438.5 -556.879 1438.5 -556.603V-546.527C1438.5 -546.251 1438.72 -546.027 1439 -546.027V-536.951C1438.72 -536.951 1438.5 -536.727 1438.5 -536.451V-526.375C1438.5 -526.099 1438.72 -525.875 1439 -525.875V-516.799C1438.72 -516.799 1438.5 -516.575 1438.5 -516.299V-506.223C1438.5 -505.947 1438.72 -505.723 1439 -505.723V-496.647C1438.72 -496.647 1438.5 -496.423 1438.5 -496.147V-486.07C1438.5 -485.794 1438.72 -485.57 1439 -485.57V-476.494C1438.72 -476.494 1438.5 -476.271 1438.5 -475.994V-465.918C1438.5 -465.642 1438.72 -465.418 1439 -465.418V-456.342C1438.72 -456.342 1438.5 -456.118 1438.5 -455.842V-445.766C1438.5 -445.49 1438.72 -445.266 1439 -445.266V-436.19C1438.72 -436.19 1438.5 -435.966 1438.5 -435.69V-425.614C1438.5 -425.338 1438.72 -425.114 1439 -425.114V-416.038C1438.72 -416.038 1438.5 -415.814 1438.5 -415.538V-405.462C1438.5 -405.186 1438.72 -404.962 1439 -404.962V-395.886C1438.72 -395.886 1438.5 -395.662 1438.5 -395.386V-385.31C1438.5 -385.033 1438.72 -384.81 1439 -384.81V-375.734C1438.72 -375.734 1438.5 -375.51 1438.5 -375.234V-365.157C1438.5 -364.881 1438.72 -364.657 1439 -364.657V-355.581C1438.72 -355.581 1438.5 -355.357 1438.5 -355.081V-345.005C1438.5 -344.729 1438.72 -344.505 1439 -344.505V-335.429C1438.72 -335.429 1438.5 -335.205 1438.5 -334.929V-324.853C1438.5 -324.577 1438.72 -324.353 1439 -324.353V-315.277C1438.72 -315.277 1438.5 -315.053 1438.5 -314.777V-304.701C1438.5 -304.425 1438.72 -304.201 1439 -304.201V-295.125C1438.72 -295.125 1438.5 -294.901 1438.5 -294.625V-284.549C1438.5 -284.273 1438.72 -284.049 1439 -284.049V-274.973C1438.72 -274.973 1438.5 -274.749 1438.5 -274.473V-264.397C1438.5 -264.12 1438.72 -263.897 1439 -263.897V-254.821C1438.72 -254.821 1438.5 -254.597 1438.5 -254.321V-244.244C1438.5 -243.968 1438.72 -243.744 1439 -243.744V-234.668C1438.72 -234.668 1438.5 -234.445 1438.5 -234.168V-224.092C1438.5 -223.816 1438.72 -223.592 1439 -223.592V-214.516C1438.72 -214.516 1438.5 -214.292 1438.5 -214.016V-203.94C1438.5 -203.664 1438.72 -203.44 1439 -203.44V-194.364C1438.72 -194.364 1438.5 -194.14 1438.5 -193.864V-183.788C1438.5 -183.512 1438.72 -183.288 1439 -183.288V-174.212C1438.72 -174.212 1438.5 -173.988 1438.5 -173.712V-163.636C1438.5 -163.36 1438.72 -163.136 1439 -163.136V-154.06C1438.72 -154.06 1438.5 -153.836 1438.5 -153.56V-143.484C1438.5 -143.208 1438.72 -142.984 1439 -142.984V-133.908C1438.72 -133.908 1438.5 -133.684 1438.5 -133.408V-123.331C1438.5 -123.055 1438.72 -122.831 1439 -122.831V-113.755C1438.72 -113.755 1438.5 -113.532 1438.5 -113.255V-103.179C1438.5 -102.903 1438.72 -102.679 1439 -102.679V-93.6033C1438.72 -93.6033 1438.5 -93.3794 1438.5 -93.1033V-83.0272C1438.5 -82.751 1438.72 -82.5272 1439 -82.5272V-73.4511C1438.72 -73.4511 1438.5 -73.2272 1438.5 -72.9511V-62.875C1438.5 -62.5989 1438.72 -62.375 1439 -62.375V-53.299C1438.72 -53.299 1438.5 -53.0751 1438.5 -52.799V-42.7228C1438.5 -42.4467 1438.72 -42.2228 1439 -42.2228V-33.1467C1438.72 -33.1467 1438.5 -32.9229 1438.5 -32.6467V-22.5707C1438.5 -22.2945 1438.72 -22.0707 1439 -22.0707V-12.9946C1438.72 -12.9946 1438.5 -12.7707 1438.5 -12.4946V-2.41846C1438.5 -2.14233 1438.72 -1.91846 1439 -1.91846V7.15759C1438.72 7.15759 1438.5 7.38147 1438.5 7.65759V17.7337C1438.5 18.0098 1438.72 18.2337 1439 18.2337V27.3098C1438.72 27.3098 1438.5 27.5336 1438.5 27.8098V37.8859C1438.5 38.162 1438.72 38.3859 1439 38.3859V47.462C1438.72 47.462 1438.5 47.6858 1438.5 47.962V52.4482L1437.84 52.3829C1437.03 52.304 1435.84 52.1868 1434.27 52.0336C1434 52.0067 1433.75 52.2078 1433.72 52.4826C1431.45 52.2607 1428.47 51.9705 1424.83 51.6182C1424.86 51.3433 1424.65 51.0989 1424.38 51.0724C1422.8 50.9199 1421.11 50.7562 1419.3 50.5818C1417.76 50.4336 1416.13 50.2776 1414.43 50.1141C1414.16 50.0877 1413.91 50.2891 1413.89 50.564C1411.07 50.2943 1408.05 50.0047 1404.81 49.6964C1404.84 49.4215 1404.64 49.1774 1404.36 49.1512C1401.27 48.8561 1397.98 48.5443 1394.52 48.2166C1394.25 48.1906 1394.01 48.3923 1393.98 48.6672C1391.14 48.3984 1388.18 48.119 1385.11 47.8297C1385.14 47.5547 1384.94 47.3109 1384.66 47.285L1380.85 46.9269C1378.79 46.7331 1376.68 46.5352 1374.52 46.3334C1374.25 46.3077 1374.01 46.5097 1373.98 46.7847C1371.14 46.5185 1368.21 46.2456 1365.21 45.9663C1365.24 45.6913 1365.04 45.4477 1364.76 45.4221C1361.5 45.1184 1358.15 44.8072 1354.71 44.489C1354.44 44.4636 1354.19 44.6658 1354.17 44.9408C1351.28 44.6731 1348.33 44.4005 1345.32 44.1232C1345.34 43.8482 1345.14 43.6047 1344.86 43.5794C1341.59 43.2775 1338.24 42.9702 1334.83 42.6577C1334.55 42.6325 1334.31 42.835 1334.28 43.11C1331.38 42.8441 1328.43 42.5745 1325.43 42.3015C1325.46 42.0264 1325.26 41.7832 1324.98 41.7581C1321.68 41.4569 1318.31 41.1516 1314.9 40.8422C1314.63 40.8173 1314.38 41.0201 1314.36 41.295C1311.46 41.0324 1308.52 40.767 1305.55 40.4989C1305.57 40.2239 1305.37 39.9808 1305.1 39.9561L1301.61 39.6418C1299.43 39.446 1297.23 39.2489 1295.02 39.0505C1294.75 39.0258 1294.5 39.2288 1294.48 39.5038C1291.56 39.2426 1288.62 38.9792 1285.64 38.7137C1285.66 38.4386 1285.46 38.1957 1285.19 38.1713L1283.42 38.0135C1280.71 37.7722 1277.97 37.5292 1275.21 37.2848C1274.94 37.2604 1274.7 37.4636 1274.67 37.7387C1271.71 37.4758 1268.71 37.211 1265.69 36.9447C1265.72 36.6696 1265.51 36.427 1265.24 36.4027C1261.97 36.1151 1258.68 35.8255 1255.36 35.5342C1255.08 35.5101 1254.84 35.7136 1254.82 35.9887C1251.82 35.7262 1248.8 35.4623 1245.76 35.1972C1245.79 34.9221 1245.58 34.6797 1245.31 34.6557C1242.04 34.3714 1238.76 34.0858 1235.44 33.7988C1235.17 33.775 1234.93 33.9786 1234.9 34.2538C1231.94 33.997 1228.95 33.7392 1225.95 33.4806C1225.98 33.2055 1225.77 32.9633 1225.5 32.9396C1223.65 32.7802 1221.79 32.6204 1219.92 32.4604C1218.45 32.3336 1216.97 32.2067 1215.48 32.0795C1215.2 32.056 1214.96 32.2599 1214.94 32.5351C1212 32.2834 1209.04 32.0311 1206.07 31.7783C1206.09 31.5031 1205.89 31.261 1205.61 31.2377L1202.96 31.0122C1200.53 30.8057 1198.08 30.5988 1195.63 30.3915C1195.36 30.3683 1195.12 30.5725 1195.09 30.8477C1192.12 30.5963 1189.13 30.3444 1186.12 30.0923C1186.15 29.8171 1185.94 29.5753 1185.67 29.5522C1182.38 29.2764 1179.08 29.0001 1175.76 28.7236C1175.49 28.7006 1175.25 28.9051 1175.22 29.1803C1172.24 28.9313 1169.24 28.6821 1166.23 28.4328C1166.25 28.1576 1166.05 27.916 1165.77 27.8932L1163.05 27.6675C1160.65 27.4694 1158.24 27.2712 1155.83 27.073C1155.56 27.0504 1155.32 27.2551 1155.29 27.5304C1152.33 27.2866 1149.35 27.0427 1146.37 26.799C1146.39 26.5237 1146.18 26.2823 1145.91 26.2599C1142.59 25.989 1139.26 25.7181 1135.92 25.4474C1135.64 25.4252 1135.4 25.6302 1135.38 25.9055C1132.41 25.6649 1129.43 25.4244 1126.44 25.1843C1126.47 24.9091 1126.26 24.668 1125.99 24.6459C1122.68 24.3802 1119.37 24.1151 1116.05 23.8502C1115.77 23.8283 1115.53 24.0336 1115.51 24.3089C1112.52 24.0706 1109.53 23.8327 1106.53 23.5952C1106.55 23.3199 1106.34 23.0792 1106.07 23.0574C1102.76 22.7959 1099.45 22.535 1096.13 22.2748C1095.86 22.2532 1095.61 22.4589 1095.59 22.7342C1092.62 22.5008 1089.63 22.2679 1086.65 22.0357C1086.67 21.7604 1086.46 21.5199 1086.19 21.4985C1082.87 21.2404 1079.54 20.9832 1076.21 20.7269C1075.94 20.7056 1075.7 20.9117 1075.68 21.187C1072.7 20.9576 1069.71 20.7289 1066.73 20.5011C1066.75 20.2258 1066.54 19.9855 1066.27 19.9645C1062.96 19.7118 1059.64 19.46 1056.32 19.2093C1056.04 19.1885 1055.8 19.3949 1055.78 19.6702C1052.8 19.4448 1049.81 19.2202 1046.82 18.9966C1046.84 18.7213 1046.63 18.4813 1046.36 18.4608C1043.04 18.2127 1039.72 17.9659 1036.4 17.7205C1036.13 17.7001 1035.89 17.9068 1035.87 18.1822C1032.88 17.9615 1029.89 17.742 1026.91 17.5236C1026.93 17.2481 1026.72 17.0085 1026.45 16.9884C1023.13 16.7458 1019.81 16.5046 1016.5 16.265C1016.22 16.2451 1015.98 16.4521 1015.96 16.7276C1012.97 16.5116 1009.98 16.2968 1006.99 16.0834C1007.01 15.8079 1006.8 15.5687 1006.53 15.549C1003.21 15.3119 999.886 15.0764 996.569 14.8426C996.293 14.8232 996.054 15.0308 996.035 15.3062C993.051 15.0961 990.07 14.8875 987.092 14.6803C987.111 14.4048 986.903 14.166 986.628 14.1468C983.297 13.9153 979.971 13.6857 976.65 13.4581C976.374 13.4392 976.136 13.6472 976.117 13.9227C973.124 13.7178 970.134 13.5145 967.15 13.3129C967.169 13.0374 966.96 12.7989 966.685 12.7803C963.369 12.5565 960.058 12.3348 956.755 12.1154C956.48 12.097 956.241 12.3056 956.223 12.5811C953.219 12.3818 950.221 12.1843 947.23 11.9887C947.248 11.7132 947.039 11.4752 946.763 11.4572C943.432 11.2396 940.109 11.0245 936.795 10.812C936.519 10.7943 936.281 11.0034 936.264 11.2789C933.284 11.088 930.312 10.899 927.347 10.7123C927.365 10.4368 927.155 10.1993 926.88 10.1819C923.532 9.97131 920.194 9.76337 916.867 9.55835C916.592 9.54132 916.355 9.75098 916.338 10.0266C913.339 9.84192 910.349 9.65961 907.369 9.47974C907.385 9.2041 907.175 8.96716 906.9 8.95056C903.589 8.75092 900.291 8.55432 897.005 8.36084C896.73 8.3446 896.493 8.55493 896.477 8.83057C893.45 8.65253 890.434 8.47717 887.431 8.30457C887.447 8.02887 887.236 7.79254 886.96 7.77673C883.626 7.58533 880.306 7.3974 877.002 7.21295C876.727 7.19757 876.491 7.40863 876.475 7.68433C873.491 7.51794 870.519 7.35455 867.562 7.19409C867.577 6.91833 867.365 6.68274 867.09 6.66779C863.722 6.48535 860.372 6.30688 857.042 6.13245C856.766 6.11798 856.531 6.32983 856.517 6.60559C853.523 6.4491 850.546 6.29584 847.585 6.146C847.598 5.87018 847.386 5.63531 847.11 5.6214C843.767 5.45258 840.445 5.28802 837.145 5.12799C836.869 5.11462 836.635 5.32739 836.622 5.60321C833.594 5.45667 830.585 5.3139 827.596 5.17511C827.609 4.89929 827.395 4.66528 827.119 4.65253C823.802 4.49884 820.509 4.34991 817.241 4.20605C816.965 4.19391 816.732 4.40771 816.72 4.68353C813.677 4.54987 810.656 4.42059 807.659 4.29578C807.671 4.0199 807.456 3.78693 807.18 3.77545C803.828 3.63629 800.505 3.50275 797.214 3.37494C796.938 3.36426 796.705 3.57928 796.695 3.85522C793.695 3.73926 790.722 3.62805 787.777 3.52191C787.786 3.24597 787.571 3.01422 787.295 3.00433C783.901 2.88251 780.543 2.7674 777.222 2.65906C776.946 2.65009 776.715 2.86652 776.706 3.14252C773.727 3.04584 770.779 2.95471 767.863 2.86926C767.871 2.59326 767.653 2.36298 767.377 2.35492C763.961 2.25549 760.588 2.16382 757.261 2.08032C756.985 2.07336 756.756 2.29156 756.749 2.56763C753.741 2.49274 750.771 2.42444 747.84 2.36304C747.845 2.08698 747.626 1.85852 747.35 1.85278C743.95 1.78235 740.603 1.72113 737.312 1.66949C737.036 1.66516 736.808 1.88544 736.804 2.16156C733.769 2.11475 730.782 2.07605 727.844 2.04572C727.846 1.76953 727.625 1.54346 727.349 1.54071C725.718 1.52435 724.103 1.51062 722.503 1.49951C720.889 1.48834 719.259 1.4801 717.613 1.47491C717.337 1.474 717.112 1.69714 717.111 1.97333C714.142 1.96503 711.12 1.96631 708.049 1.97693C708.048 1.70081 707.824 1.47778 707.547 1.47882C704.227 1.49139 700.849 1.51489 697.415 1.54889C697.139 1.55164 696.917 1.77771 696.92 2.05383C693.956 2.08405 690.95 2.12207 687.906 2.16772C687.902 1.89166 687.674 1.6712 687.398 1.67542C684.042 1.72662 680.639 1.78705 677.19 1.85638C676.914 1.86194 676.694 2.09021 676.7 2.36633C673.75 2.42633 670.766 2.49286 667.751 2.56567C667.744 2.28961 667.515 2.07123 667.239 2.07794C663.882 2.15973 660.486 2.24939 657.052 2.34656C656.776 2.35437 656.559 2.58447 656.566 2.86053C653.594 2.94525 650.593 3.03558 647.566 3.13147C647.557 2.85547 647.326 2.63885 647.05 2.64764C643.722 2.7536 640.363 2.86621 636.972 2.98523C636.696 2.99493 636.48 3.2265 636.49 3.50244C633.465 3.60913 630.416 3.72089 627.343 3.83765C627.333 3.56171 627.1 3.34656 626.824 3.35706C623.522 3.48297 620.193 3.61462 616.838 3.75183C616.562 3.76312 616.348 3.99591 616.359 4.27185C613.333 4.396 610.287 4.5246 607.221 4.65759C607.209 4.38171 606.976 4.16779 606.7 4.17981C603.373 4.32452 600.023 4.47437 596.652 4.62909C596.376 4.64178 596.162 4.87567 596.175 5.15149C593.178 5.28937 590.165 5.43121 587.135 5.57678C587.122 5.30096 586.887 5.08813 586.611 5.10144C583.244 5.26355 579.857 5.43036 576.452 5.60168C576.176 5.61554 575.963 5.85034 575.977 6.12616C572.993 6.27655 569.994 6.43036 566.982 6.58752C566.968 6.31177 566.733 6.09991 566.457 6.11432C563.118 6.28888 559.762 6.46747 556.391 6.65002C556.115 6.66498 555.904 6.90057 555.919 7.17633C552.886 7.34082 549.841 7.50854 546.784 7.67932C546.769 7.40363 546.533 7.19257 546.257 7.20801C542.938 7.39374 539.604 7.58307 536.259 7.77588C535.983 7.79175 535.772 8.02814 535.788 8.30377C532.773 8.47778 529.748 8.6546 526.713 8.83411C526.697 8.55847 526.46 8.34821 526.184 8.36456C522.828 8.56335 519.461 8.76544 516.082 8.9707C515.807 8.98743 515.597 9.22449 515.614 9.50012C512.615 9.68256 509.609 9.86743 506.594 10.0547C506.577 9.77911 506.34 9.56958 506.064 9.58673C502.716 9.7951 499.357 10.0064 495.991 10.2205C495.715 10.238 495.506 10.4756 495.524 10.7512C492.502 10.9437 489.473 11.1384 486.439 11.3352C486.421 11.0596 486.183 10.8508 485.907 10.8687C482.571 11.0854 479.227 11.3047 475.877 11.5265C475.601 11.5447 475.393 11.7829 475.411 12.0584C472.392 12.2585 469.369 12.4606 466.341 12.6646C466.323 12.389 466.084 12.1807 465.809 12.1993C462.456 12.4254 459.099 12.6539 455.737 12.8846C455.461 12.9034 455.253 13.1422 455.272 13.4176C452.261 13.6244 449.247 13.8329 446.23 14.0432C446.211 13.7678 445.972 13.56 445.696 13.5792C442.346 13.8129 438.992 14.0487 435.636 14.2864C435.36 14.306 435.153 14.5451 435.172 14.8206C432.152 15.0347 429.13 15.2504 426.107 15.4676C426.087 15.1921 425.847 14.9849 425.572 15.0047C422.224 15.2454 418.873 15.488 415.523 15.7323C415.247 15.7524 415.04 15.9919 415.06 16.2673C412.042 16.4875 409.024 16.7092 406.005 16.9321C405.985 16.6567 405.745 16.4499 405.47 16.4703C402.117 16.718 398.765 16.9673 395.414 17.2181C395.139 17.2387 394.932 17.4787 394.953 17.754C391.932 17.9803 388.911 18.2078 385.892 18.4364C385.872 18.1611 385.632 17.9548 385.356 17.9756C382.005 18.2295 378.656 18.4847 375.311 18.7413C375.035 18.7624 374.829 19.0027 374.85 19.278C371.831 19.5096 368.814 19.7423 365.8 19.9758C365.779 19.7005 365.538 19.4946 365.263 19.5159C364.004 19.6136 362.746 19.7114 361.488 19.8093C359.389 19.9727 357.291 20.1365 355.196 20.3008C354.92 20.3223 354.715 20.563 354.736 20.8383C351.719 21.075 348.705 21.3124 345.696 21.5507C345.674 21.2753 345.433 21.0699 345.158 21.0917C341.805 21.3572 338.457 21.6237 335.117 21.891C334.841 21.913 334.636 22.154 334.658 22.4293C331.626 22.6719 328.6 22.9152 325.58 23.1591C325.557 22.8839 325.316 22.6787 325.041 22.7009C321.69 22.9717 318.347 23.243 315.012 23.5149C314.737 23.5374 314.532 23.7787 314.555 24.0539C311.533 24.3004 308.519 24.5473 305.512 24.7946C305.489 24.5193 305.248 24.3146 304.973 24.3373C301.602 24.6146 298.241 24.8924 294.892 25.1705C294.616 25.1933 294.412 25.4349 294.435 25.7101C291.419 25.9606 288.413 26.2111 285.416 26.4619C285.393 26.1868 285.152 25.9824 284.876 26.0054C281.514 26.2869 278.165 26.5685 274.828 26.8501C274.553 26.8734 274.349 27.1152 274.372 27.3904C271.333 27.647 268.305 27.9037 265.288 28.1603C265.265 27.8852 265.023 27.6811 264.748 27.7045C261.402 27.9893 258.071 28.2739 254.755 28.5582C254.48 28.5818 254.276 28.824 254.3 29.0991C251.26 29.3599 248.234 29.6204 245.222 29.8807C245.198 29.6056 244.955 29.4018 244.68 29.4256C241.306 29.7172 237.95 30.0084 234.613 30.299C234.337 30.3229 234.134 30.5653 234.158 30.8404C231.156 31.1018 228.17 31.3628 225.2 31.6232C225.176 31.3481 224.933 31.1447 224.658 31.1688C222.489 31.3591 220.327 31.549 218.175 31.7386C216.957 31.8459 215.742 31.9532 214.529 32.0602C214.254 32.0845 214.051 32.3272 214.075 32.6023C211.044 32.8701 208.031 33.1372 205.038 33.4033C205.014 33.1283 204.771 32.9251 204.496 32.9496C201.146 33.2475 197.821 33.5443 194.521 33.8398C194.246 33.8644 194.043 34.1073 194.068 34.3824C190.998 34.6573 187.951 34.9312 184.927 35.2037C184.903 34.9286 184.66 34.7258 184.385 34.7505C181.034 35.0526 177.712 35.3531 174.421 35.6517C174.146 35.6767 173.944 35.9199 173.968 36.1949C170.91 36.4725 167.879 36.7485 164.874 37.0228C164.849 36.7478 164.606 36.5452 164.331 36.5704C160.944 36.8797 157.592 37.1868 154.277 37.4916C154.002 37.5168 153.8 37.7603 153.825 38.0352C150.81 38.3124 147.826 38.5877 144.873 38.8607C144.847 38.5858 144.604 38.3835 144.329 38.4089C140.9 38.7261 137.513 39.0403 134.172 39.3514C133.897 39.377 133.695 39.6206 133.721 39.8956C130.72 40.1749 127.756 40.4517 124.83 40.7256C124.805 40.4507 124.561 40.2487 124.286 40.2744C120.835 40.5977 117.436 40.9169 114.094 41.2319C113.819 41.2579 113.617 41.5017 113.643 41.7767C110.619 42.0616 107.642 42.3431 104.712 42.6208C104.686 42.3459 104.442 42.1442 104.167 42.1703C100.718 42.4974 97.3343 42.8192 94.0201 43.1354C93.7452 43.1616 93.5437 43.4057 93.5699 43.6806C90.5333 43.9704 87.555 44.2554 84.6373 44.5354C84.6109 44.2605 84.3666 44.0591 84.0918 44.0854C80.6177 44.4189 77.2299 44.7452 73.9324 45.0637C73.6576 45.0903 73.4563 45.3347 73.4828 45.6095C70.4578 45.9018 67.5092 46.1876 64.6402 46.4664C64.6134 46.1915 64.369 45.9904 64.0941 46.0171C60.5562 46.361 57.1402 46.6942 53.8517 47.0159C53.5769 47.0428 53.3759 47.2874 53.4028 47.5623C50.2955 47.8664 47.3032 48.1602 44.4306 48.4431C44.4036 48.1683 44.1589 47.9674 43.884 47.9945C40.3986 48.3378 37.0917 48.6648 33.972 48.9742C33.6972 49.0015 33.4965 49.2464 33.5238 49.5212C30.2536 49.8457 27.1924 50.1506 24.3502 50.4347C24.3228 50.1599 24.0777 49.9594 23.803 49.9869C20.0589 50.3612 16.7031 50.6984 13.7596 50.9953C13.4848 51.023 13.2846 51.2682 13.3123 51.543C9.62667 51.9149 6.6108 52.2212 4.31413 52.4554C4.2861 52.1807 4.04068 51.9807 3.76596 52.0087C2.18507 52.17 0.980772 52.2935 0.17167 52.3767L-0.5 52.4458V47.9627C-0.5 47.6866 -0.723858 47.4627 -1 47.4627V38.3866C-0.723858 38.3866 -0.5 38.1628 -0.5 37.8866V27.8105C-0.5 27.5344 -0.723858 27.3105 -1 27.3105V18.2344C-0.723858 18.2344 -0.5 18.0106 -0.5 17.7344V7.65826C-0.5 7.38214 -0.723858 7.15826 -1 7.15826V-1.91785C-0.723858 -1.91785 -0.5 -2.14166 -0.5 -2.41785V-12.494C-0.5 -12.7701 -0.723858 -12.994 -1 -12.994V-22.0701C-0.723858 -22.0701 -0.5 -22.2939 -0.5 -22.5701V-32.6462C-0.5 -32.9224 -0.723858 -33.1462 -1 -33.1462V-42.2223C-0.723858 -42.2223 -0.5 -42.4461 -0.5 -42.7223V-52.7984C-0.5 -53.0746 -0.723858 -53.2984 -1 -53.2984V-62.3745C-0.723858 -62.3745 -0.5 -62.5984 -0.5 -62.8745V-72.9506C-0.5 -73.2268 -0.723858 -73.4506 -1 -73.4506V-82.5267C-0.723858 -82.5267 -0.5 -82.7506 -0.5 -83.0267V-93.1028C-0.5 -93.379 -0.723858 -93.6028 -1 -93.6028V-102.679C-0.723858 -102.679 -0.5 -102.903 -0.5 -103.179V-113.255C-0.5 -113.531 -0.723858 -113.755 -1 -113.755V-122.831C-0.723858 -122.831 -0.5 -123.055 -0.5 -123.331V-133.407C-0.5 -133.683 -0.723858 -133.907 -1 -133.907V-142.983C-0.723858 -142.983 -0.5 -143.207 -0.5 -143.483V-153.56C-0.5 -153.836 -0.723858 -154.06 -1 -154.06V-163.136C-0.723858 -163.136 -0.5 -163.359 -0.5 -163.636V-173.712C-0.5 -173.988 -0.723858 -174.212 -1 -174.212V-183.288C-0.723858 -183.288 -0.5 -183.512 -0.5 -183.788V-193.864C-0.5 -194.14 -0.723858 -194.364 -1 -194.364V-203.44C-0.723858 -203.44 -0.5 -203.664 -0.5 -203.94V-214.016C-0.5 -214.292 -0.723858 -214.516 -1 -214.516V-223.592C-0.723858 -223.592 -0.5 -223.816 -0.5 -224.092V-234.168C-0.5 -234.445 -0.723858 -234.668 -1 -234.668V-243.745C-0.723858 -243.745 -0.5 -243.968 -0.5 -244.245V-254.321C-0.5 -254.597 -0.723858 -254.821 -1 -254.821V-263.897C-0.723858 -263.897 -0.5 -264.121 -0.5 -264.397V-274.473C-0.5 -274.749 -0.723858 -274.973 -1 -274.973V-284.049C-0.723858 -284.049 -0.5 -284.273 -0.5 -284.549V-294.625C-0.5 -294.901 -0.723858 -295.125 -1 -295.125V-304.201C-0.723858 -304.201 -0.5 -304.425 -0.5 -304.701V-314.777C-0.5 -315.053 -0.723858 -315.277 -1 -315.277V-324.353C-0.723858 -324.353 -0.5 -324.577 -0.5 -324.853V-334.93C-0.5 -335.206 -0.723858 -335.43 -1 -335.43V-344.506C-0.723858 -344.506 -0.5 -344.729 -0.5 -345.006V-355.082C-0.5 -355.358 -0.723858 -355.582 -1 -355.582V-364.658C-0.723858 -364.658 -0.5 -364.882 -0.5 -365.158V-375.234C-0.5 -375.51 -0.723858 -375.734 -1 -375.734V-384.81C-0.723858 -384.81 -0.5 -385.034 -0.5 -385.31V-395.386C-0.5 -395.662 -0.723858 -395.886 -1 -395.886V-404.962C-0.723858 -404.962 -0.5 -405.186 -0.5 -405.462V-415.538C-0.5 -415.814 -0.723858 -416.038 -1 -416.038V-425.114C-0.723858 -425.114 -0.5 -425.338 -0.5 -425.614V-435.69C-0.5 -435.967 -0.723858 -436.19 -1 -436.19V-445.266C-0.723858 -445.266 -0.5 -445.49 -0.5 -445.766V-455.843C-0.5 -456.119 -0.723858 -456.343 -1 -456.343V-465.419C-0.723858 -465.419 -0.5 -465.642 -0.5 -465.919V-475.995C-0.5 -476.271 -0.723858 -476.495 -1 -476.495V-485.571C-0.723858 -485.571 -0.5 -485.795 -0.5 -486.071V-496.147C-0.5 -496.423 -0.723858 -496.647 -1 -496.647V-505.723C-0.723858 -505.723 -0.5 -505.947 -0.5 -506.223V-516.299C-0.5 -516.575 -0.723858 -516.799 -1 -516.799V-525.875C-0.723858 -525.875 -0.5 -526.099 -0.5 -526.375V-536.451C-0.5 -536.727 -0.723858 -536.951 -1 -536.951V-546.027C-0.723858 -546.027 -0.5 -546.251 -0.5 -546.527V-556.603C-0.5 -556.88 -0.723858 -557.103 -1 -557.103V-566.179C-0.723858 -566.179 -0.5 -566.403 -0.5 -566.679V-576.756C-0.5 -577.032 -0.723858 -577.256 -1 -577.256V-586.332C-0.723858 -586.332 -0.5 -586.555 -0.5 -586.832V-596.908C-0.5 -597.184 -0.723858 -597.408 -1 -597.408V-606.484C-0.723858 -606.484 -0.5 -606.708 -0.5 -606.984V-617.06C-0.5 -617.336 -0.723858 -617.56 -1 -617.56V-626.636C-0.723858 -626.636 -0.5 -626.86 -0.5 -627.136V-637.212C-0.5 -637.488 -0.723858 -637.712 -1 -637.712V-646.788C-0.723858 -646.788 -0.5 -647.012 -0.5 -647.288V-657.364C-0.5 -657.64 -0.723858 -657.864 -1 -657.864V-666.94C-0.723858 -666.94 -0.5 -667.164 -0.5 -667.44V-677.516C-0.5 -677.792 -0.723858 -678.016 -1 -678.016V-687.092C-0.723858 -687.092 -0.5 -687.316 -0.5 -687.592V-697.669C-0.5 -697.945 -0.723858 -698.169 -1 -698.169V-707.245C-0.723858 -707.245 -0.5 -707.468 -0.5 -707.745V-717.821C-0.5 -718.097 -0.723858 -718.321 -1 -718.321V-727.397C-0.723858 -727.397 -0.5 -727.621 -0.5 -727.897V-737.973C-0.5 -738.249 -0.723858 -738.473 -1 -738.473V-747.549C-0.723858 -747.549 -0.5 -747.773 -0.5 -748.049V-758.125C-0.5 -758.401 -0.723858 -758.625 -1 -758.625V-767.701C-0.723858 -767.701 -0.5 -767.925 -0.5 -768.201V-778.277C-0.5 -778.553 -0.723858 -778.777 -1 -778.777V-787.853C-0.723858 -787.853 -0.5 -788.077 -0.5 -788.353V-798.429C-0.5 -798.705 -0.723858 -798.929 -1 -798.929V-808.005C-0.723858 -808.005 -0.5 -808.229 -0.5 -808.505V-818.582C-0.5 -818.858 -0.723858 -819.082 -1 -819.082V-828.158C-0.723858 -828.158 -0.5 -828.381 -0.5 -828.658V-838.734C-0.5 -839.01 -0.723858 -839.234 -1 -839.234V-848.31C-0.723858 -848.31 -0.5 -848.534 -0.5 -848.81V-858.886C-0.5 -859.162 -0.723858 -859.386 -1 -859.386V-868.462Z" stroke="black" stroke-linecap="round" stroke-dasharray="10 10"/>
</g>
</g>
<defs>
<filter id="filter0_d_734_27" x="-21" y="-890" width="1480" height="967" filterUnits="userSpaceOnUse" color-interpolation-filters="sRGB">
<feFlood flood-opacity="0" result="BackgroundImageFix"/>
<feColorMatrix in="SourceAlpha" type="matrix" values="0 0 0 0 0 0 0 0 0 0 0 0 0 0 0 0 0 0 127 0" result="hardAlpha"/>
<feOffset dy="4"/>
<feGaussianBlur stdDeviation="10"/>
<feComposite in2="hardAlpha" operator="out"/>
<feColorMatrix type="matrix" values="0 0 0 0 0.554167 0 0 0 0 0.435944 0 0 0 0 0 0 0 0 0.64 0"/>
<feBlend mode="normal" in2="BackgroundImageFix" result="effect1_dropShadow_734_27"/>
<feBlend mode="normal" in="SourceGraphic" in2="effect1_dropShadow_734_27" result="shape"/>
</filter>
</defs>
</svg>
