<svg width="1438" height="165" viewBox="0 0 1438 165" fill="none" xmlns="http://www.w3.org/2000/svg">
<rect width="1438" height="165" fill="white"/>
<mask id="mask0_734_33" style="mask-type:alpha" maskUnits="userSpaceOnUse" x="0" y="0" width="1438" height="165">
<rect width="1438" height="165" fill="#D9D9D9"/>
</mask>
<g mask="url(#mask0_734_33)">
<g filter="url(#filter0_d_734_33)">
<path d="M-5 0.99971C-5 0.99971 440.345 82.2108 730 83.5C1009.57 84.7443 1443 0.99971 1443 0.99971V-1302C1443 -1302 1208.63 -1100.97 732 -1106.07C255.367 -1111.17 -5 -1302 -5 -1302V0.99971Z" fill="#fcf1e9"/>
<path d="M-5 -4.51183C-4.72386 -4.51183 -4.5 -4.28797 -4.5 -4.01183V0.582359C-4.29818 0.618958 -4.0225 0.668869 -3.67431 0.731728C-2.85579 0.879509 -1.63652 1.09888 -0.0337791 1.38523C0.238059 1.43379 0.419056 1.69353 0.370491 1.96537C2.59493 2.36235 5.48899 2.87597 9.01253 3.49549C9.06031 3.22352 9.31953 3.04177 9.59151 3.08956C12.4782 3.59675 15.7728 4.17242 19.4541 4.81093C19.7262 4.85812 19.9085 5.11694 19.8613 5.38902C22.6228 5.86771 25.5974 6.38096 28.7765 6.92647C28.8231 6.6543 29.0816 6.4715 29.3538 6.51818C32.4944 7.0568 35.8315 7.62637 39.3569 8.22471C39.6292 8.27091 39.8124 8.52907 39.7662 8.80132C42.5791 9.27849 45.5106 9.77372 48.5563 10.2859C48.6021 10.0136 48.86 9.82994 49.1323 9.87572C52.2867 10.4059 55.5625 10.9541 58.9553 11.5191C59.2277 11.5645 59.4118 11.8221 59.3664 12.0945C62.3092 12.5843 65.3394 13.0866 68.4539 13.6007C68.4988 13.3282 68.7561 13.1438 69.0286 13.1887C72.1687 13.7068 75.394 14.2367 78.7014 14.7776C78.9739 14.8222 79.1587 15.0792 79.1142 15.3517C82.0644 15.834 85.0796 16.325 88.1577 16.8241C88.2019 16.5515 88.4587 16.3663 88.7313 16.4105C91.9111 16.9259 95.1575 17.4499 98.4684 17.9819C98.7411 18.0257 98.9266 18.2822 98.8828 18.5549C101.845 19.0307 104.859 19.5128 107.922 20.0009C107.966 19.7282 108.222 19.5424 108.495 19.5858C111.689 20.0946 114.938 20.6098 118.238 21.1309C118.511 21.174 118.697 21.43 118.654 21.7027C121.635 22.1732 124.658 22.6485 127.722 23.1281C127.764 22.8553 128.02 22.6688 128.293 22.7115C131.492 23.2121 134.736 23.7176 138.022 24.2275C138.295 24.2698 138.482 24.5253 138.44 24.7982C141.4 25.2573 144.394 25.7198 147.422 26.1857C147.464 25.9127 147.72 25.7255 147.993 25.7674C151.236 26.2662 154.518 26.7687 157.837 27.2745C158.11 27.3161 158.298 27.5711 158.256 27.8441C161.193 28.2915 164.159 28.7415 167.153 29.1939C167.194 28.9208 167.449 28.7329 167.722 28.7741C171.013 29.2712 174.338 29.7711 177.695 30.2734C177.968 30.3143 178.156 30.5688 178.116 30.8419C181.031 31.2779 183.97 31.7158 186.933 32.1552C186.973 31.8821 187.228 31.6935 187.501 31.734C190.799 32.2229 194.126 32.7139 197.48 33.2066C197.753 33.2467 197.942 33.5007 197.902 33.7739C200.837 34.2048 203.794 34.6369 206.77 35.0702C206.81 34.7969 207.064 34.6076 207.337 34.6473C210.608 35.1231 213.903 35.6002 217.222 36.0783C217.495 36.1177 217.685 36.3712 217.646 36.6445C220.633 37.0747 223.64 37.5057 226.665 37.9373C226.704 37.6639 226.957 37.4739 227.231 37.5129C230.479 37.9762 233.749 38.4402 237.038 38.9047C237.312 38.9433 237.502 39.1962 237.464 39.4697C240.427 39.8879 243.407 40.3065 246.403 40.7253C246.441 40.4519 246.694 40.2611 246.967 40.2993C250.267 40.7604 253.585 41.2216 256.921 41.6829C257.195 41.7207 257.386 41.9731 257.348 42.2467C260.288 42.6529 263.242 43.0592 266.21 43.4653C266.248 43.1917 266.5 43.0003 266.773 43.0377C270.074 43.4892 273.391 43.9404 276.725 44.3913C276.998 44.4283 277.19 44.6801 277.153 44.9538C280.12 45.3548 283.099 45.7555 286.089 46.1556C286.126 45.8819 286.377 45.6897 286.651 45.7263C289.93 46.1648 293.224 46.6028 296.531 47.0399C296.805 47.0761 296.997 47.3273 296.961 47.6011C299.94 47.9946 302.93 48.3875 305.931 48.7796C305.967 48.5058 306.218 48.3128 306.491 48.3486C309.785 48.7788 313.092 49.208 316.41 49.636C316.684 49.6713 316.877 49.922 316.842 50.1958C319.801 50.5774 322.77 50.958 325.748 51.3375C325.783 51.0636 326.033 50.8698 326.307 50.9047C329.617 51.3264 332.938 51.7467 336.269 52.1654C336.543 52.1999 336.738 52.4499 336.703 52.7239C339.672 53.0969 342.649 53.4686 345.634 53.8391C345.668 53.565 345.917 53.3704 346.191 53.4044C349.486 53.813 352.789 54.22 356.101 54.6251C356.375 54.6586 356.57 54.908 356.537 55.1821C359.52 55.5467 362.51 55.9098 365.506 56.2713C365.539 55.9971 365.788 55.8017 366.062 55.8347C369.365 56.233 372.676 56.6292 375.994 57.0233C376.268 57.0559 376.464 57.3046 376.431 57.5788C379.402 57.9314 382.378 58.2822 385.359 58.6312C385.391 58.3569 385.64 58.1606 385.914 58.1927C389.227 58.5802 392.547 58.9654 395.872 59.3481C396.146 59.3797 396.343 59.6277 396.311 59.902C399.291 60.2447 402.274 60.5853 405.262 60.9238C405.293 60.6495 405.541 60.4522 405.815 60.4833C409.12 60.8574 412.431 61.229 415.745 61.5978C416.02 61.6284 416.217 61.8756 416.187 62.1501C419.171 62.4818 422.159 62.8113 425.15 63.1385C425.18 62.8639 425.427 62.6657 425.701 62.6957C429.015 63.0579 432.333 63.4172 435.655 63.7734C435.929 63.8028 436.128 64.0493 436.098 64.3239C439.079 64.6432 442.062 64.96 445.046 65.2743C445.075 64.9996 445.321 64.8004 445.596 64.8293C448.912 65.1781 452.231 65.5236 455.551 65.8658C455.826 65.8941 456.026 66.1397 455.997 66.4144C458.985 66.7219 461.974 67.0266 464.963 67.3284C464.991 67.0537 465.236 66.8534 465.511 66.8811C468.828 67.2157 472.147 67.5466 475.466 67.8739C475.74 67.901 475.941 68.1458 475.914 68.4206C478.902 68.7148 481.89 69.006 484.878 69.2941C484.904 69.0193 485.148 68.8179 485.423 68.8444C488.744 69.1641 492.065 69.48 495.384 69.7919C495.659 69.8177 495.861 70.0615 495.835 70.3364C498.828 70.6172 501.82 70.8946 504.811 71.1686C504.836 70.8936 505.08 70.6911 505.355 70.7162C508.677 71.0202 511.998 71.3199 515.317 71.6152C515.592 71.6397 515.795 71.8825 515.77 72.1576C518.76 72.4232 521.748 72.6852 524.733 72.9436C524.757 72.6685 524.999 72.4647 525.274 72.4885C528.607 72.7764 531.936 73.0597 535.262 73.3382C535.538 73.3612 535.742 73.6029 535.719 73.8781C538.713 74.1284 541.704 74.3748 544.692 74.6172C544.715 74.3419 544.956 74.1369 545.231 74.1592C548.552 74.4281 551.869 74.692 555.182 74.9509C555.457 74.9724 555.663 75.213 555.641 75.4883C558.649 75.7229 561.653 75.9533 564.653 76.1793C564.674 75.904 564.914 75.6975 565.189 75.7182C568.52 75.9687 571.846 76.2138 575.166 76.4533C575.441 76.4732 575.649 76.7126 575.629 76.988C578.616 77.203 581.598 77.4136 584.575 77.6195C584.594 77.344 584.832 77.1361 585.108 77.1551C588.457 77.3863 591.8 77.6116 595.136 77.8308C595.411 77.8489 595.62 78.087 595.602 78.3625C598.604 78.5594 601.6 78.7513 604.59 78.9382C604.607 78.6626 604.845 78.4531 605.12 78.4703C608.441 78.6773 611.753 78.878 615.057 79.0724C615.333 79.0886 615.543 79.3253 615.527 79.6009C618.55 79.7782 621.566 79.9502 624.575 80.1167C624.59 79.8409 624.826 79.6297 625.102 79.6449C628.442 79.8291 631.772 80.0065 635.092 80.1769C635.368 80.191 635.58 80.4261 635.566 80.7018C638.552 80.8545 641.53 81.0015 644.499 81.1427C644.512 80.8669 644.746 80.6539 645.022 80.6669C648.389 80.8264 651.744 80.9783 655.087 81.1226C655.363 81.1345 655.577 81.3678 655.565 81.6436C658.573 81.7728 661.572 81.8958 664.559 82.0124C664.57 81.7365 664.803 81.5215 665.078 81.5322C668.404 81.6612 671.717 81.7824 675.016 81.8954C675.292 81.9048 675.508 82.1362 675.499 82.4121C678.536 82.5155 681.562 82.6119 684.576 82.7013C684.584 82.4253 684.815 82.2082 685.091 82.2163C688.434 82.3147 691.762 82.4044 695.074 82.4851C695.35 82.4918 695.568 82.721 695.561 82.9971C698.563 83.0695 701.551 83.1346 704.526 83.1921C704.531 82.9161 704.759 82.6966 705.036 82.7018C708.411 82.7663 711.768 82.821 715.107 82.8659C715.383 82.8696 715.604 83.0964 715.6 83.3725C718.603 83.4119 721.591 83.4434 724.563 83.4666C724.565 83.1905 724.79 82.9684 725.066 82.9704C726.717 82.9828 728.362 82.9927 730.002 83C731.638 83.0073 733.279 83.0117 734.925 83.0131C735.202 83.0134 735.425 83.2374 735.425 83.5135C738.389 83.5152 741.37 83.5075 744.367 83.4907C744.366 83.2146 744.588 82.9895 744.864 82.9878C748.197 82.9681 751.55 82.9371 754.921 82.8951C755.197 82.8917 755.424 83.1127 755.427 83.3888C758.388 83.351 761.364 83.3048 764.353 83.2503C764.348 82.9742 764.567 82.7463 764.843 82.7412C768.151 82.6799 771.476 82.6085 774.816 82.5273C775.092 82.5206 775.321 82.7389 775.328 83.015C778.333 82.9411 781.35 82.8593 784.379 82.7697C784.371 82.4937 784.588 82.2633 784.864 82.255C788.152 82.1569 791.454 82.0497 794.77 81.9336C795.046 81.9239 795.277 82.1398 795.287 82.4157C798.273 82.3104 801.27 82.1978 804.277 82.0783C804.266 81.8024 804.481 81.5698 804.757 81.5588C808.08 81.4258 811.417 81.2843 814.765 81.1344C815.041 81.122 815.275 81.3356 815.287 81.6115C818.254 81.478 821.229 81.338 824.214 81.1916C824.2 80.9158 824.413 80.6812 824.689 80.6676C828.008 80.5041 831.337 80.3327 834.677 80.1536C834.953 80.1388 835.188 80.3504 835.203 80.6261C838.191 80.4653 841.186 80.2983 844.189 80.1254C844.173 79.8497 844.384 79.6133 844.66 79.5974C847.962 79.4066 851.273 79.2085 854.592 79.0035C854.867 78.9865 855.105 79.1961 855.122 79.4718C858.11 79.2866 861.106 79.0958 864.107 78.8994C864.089 78.6239 864.297 78.3858 864.573 78.3678C867.888 78.1503 871.211 77.9261 874.54 77.6954C874.815 77.6763 875.054 77.8841 875.073 78.1596C878.048 77.9529 881.028 77.7411 884.012 77.5242C883.992 77.2488 884.199 77.0093 884.475 76.9892C887.792 76.7475 891.116 76.4996 894.445 76.2457C894.72 76.2247 894.961 76.4309 894.982 76.7062C897.964 76.4782 900.951 76.2454 903.942 76.0078C903.92 75.7326 904.126 75.4917 904.401 75.4698C907.708 75.2065 911.02 74.9376 914.336 74.6632C914.611 74.6404 914.852 74.845 914.875 75.1202C917.86 74.8727 920.847 74.6207 923.838 74.3644C923.814 74.0893 924.018 73.8471 924.293 73.8235C927.606 73.539 930.922 73.2492 934.241 72.9543C934.516 72.9298 934.759 73.133 934.783 73.408C937.761 73.143 940.741 72.8738 943.722 72.6007C943.697 72.3257 943.899 72.0823 944.174 72.0571C947.487 71.7531 950.802 71.4442 954.118 71.1305C954.393 71.1045 954.637 71.3063 954.663 71.5812C957.644 71.2989 960.626 71.0127 963.609 70.7229C963.582 70.448 963.783 70.2035 964.058 70.1768C967.368 69.8547 970.679 69.528 973.99 69.1971C974.264 69.1696 974.509 69.3701 974.537 69.6449C977.516 69.3467 980.495 69.045 983.474 68.7399C983.445 68.4652 983.645 68.2197 983.92 68.1916C987.232 67.852 990.543 67.5082 993.852 67.1606C994.127 67.1317 994.372 67.331 994.401 67.6056C997.382 67.2921 1000.36 66.9755 1003.34 66.6557C1003.31 66.3812 1003.51 66.1347 1003.78 66.1052C1007.09 65.7495 1010.4 65.3901 1013.7 65.0272C1013.97 64.997 1014.22 65.1951 1014.25 65.4696C1017.23 65.1419 1020.21 64.8112 1023.18 64.4779C1023.15 64.2035 1023.35 63.956 1023.62 63.9252C1026.94 63.5534 1030.25 63.1782 1033.55 62.7998C1033.83 62.7684 1034.07 62.9653 1034.11 63.2397C1037.08 62.8988 1040.05 62.5554 1043.02 62.2095C1042.99 61.9352 1043.18 61.6869 1043.46 61.6549C1046.77 61.2687 1050.07 60.8794 1053.37 60.4873C1053.65 60.4547 1053.89 60.6506 1053.93 60.9248C1056.91 60.5698 1059.89 60.2125 1062.86 59.8531C1062.83 59.5789 1063.03 59.3298 1063.3 59.2966C1066.6 58.897 1069.9 58.4947 1073.19 58.0898C1073.47 58.0561 1073.72 58.251 1073.75 58.525C1076.73 58.1583 1079.7 57.7895 1082.67 57.4188C1082.63 57.1448 1082.83 56.8949 1083.1 56.8607C1086.42 56.4458 1089.73 56.0286 1093.03 55.6092C1093.3 55.5744 1093.55 55.7683 1093.59 56.0422C1096.55 55.6647 1099.52 55.2855 1102.47 54.9047C1102.43 54.6308 1102.63 54.3801 1102.9 54.3448C1106.21 53.9175 1109.52 53.4883 1112.81 53.0572C1113.08 53.0214 1113.33 53.2143 1113.37 53.4881C1116.36 53.097 1119.33 52.7044 1122.3 52.3104C1122.26 52.0367 1122.46 51.7853 1122.73 51.749C1126.03 51.3112 1129.31 50.8719 1132.59 50.4311C1132.86 50.3943 1133.11 50.5863 1133.15 50.8599C1136.13 50.4577 1139.11 50.0544 1142.07 49.65C1142.04 49.3764 1142.23 49.1243 1142.5 49.087C1145.82 48.6344 1149.12 48.1806 1152.41 47.7259C1152.68 47.688 1152.94 47.8791 1152.97 48.1527C1155.93 47.7436 1158.88 47.3337 1161.81 46.9233C1161.77 46.6498 1161.96 46.3971 1162.24 46.3588C1165.57 45.8927 1168.88 45.4259 1172.18 44.9585C1172.45 44.9198 1172.7 45.11 1172.74 45.3834C1175.72 44.9609 1178.69 44.5379 1181.64 44.1146C1181.6 43.8413 1181.79 43.5879 1182.07 43.5487C1185.35 43.0775 1188.62 42.606 1191.87 42.1344C1192.14 42.0947 1192.39 42.2841 1192.43 42.5574C1195.44 42.1205 1198.44 41.6836 1201.41 41.2468C1201.37 40.9736 1201.56 40.7196 1201.84 40.6795C1205.14 40.1946 1208.42 39.71 1211.68 39.2258C1211.96 39.1852 1212.21 39.3738 1212.25 39.6469C1215.23 39.2054 1218.18 38.7643 1221.12 38.3238C1221.08 38.0507 1221.27 37.7961 1221.54 37.7551C1224.87 37.2549 1228.18 36.7555 1231.47 36.2572C1231.74 36.2158 1232 36.4035 1232.04 36.6766C1234.99 36.2287 1237.92 35.7817 1240.83 35.3358C1240.79 35.0628 1240.98 34.8077 1241.25 34.7658C1244.59 34.2536 1247.91 33.7428 1251.19 33.2338C1251.47 33.1915 1251.72 33.3785 1251.76 33.6514C1254.74 33.1898 1257.7 32.7298 1260.63 32.2715C1260.59 31.9986 1260.77 31.7429 1261.05 31.7002C1264.35 31.1834 1267.62 30.6687 1270.87 30.1567C1271.14 30.1136 1271.39 30.2998 1271.44 30.5726C1274.45 30.0966 1277.43 29.6229 1280.39 29.1518C1280.34 28.8791 1280.53 28.6228 1280.8 28.5792C1284.08 28.0564 1287.32 27.5368 1290.52 27.0207C1290.8 26.9768 1291.05 27.1622 1291.1 27.4348C1294.13 26.9454 1297.14 26.4591 1300.1 25.9765C1300.06 25.7039 1300.25 25.447 1300.52 25.4027C1303.82 24.866 1307.07 24.3338 1310.29 23.8064C1310.56 23.7617 1310.82 23.9463 1310.86 24.2188C1313.88 23.7226 1316.86 23.2307 1319.8 22.7436C1319.76 22.4712 1319.94 22.2137 1320.21 22.1686C1323.53 21.6183 1326.8 21.0742 1330.01 20.5366C1330.28 20.4911 1330.54 20.6749 1330.59 20.9473C1333.6 20.4421 1336.57 19.9428 1339.49 19.4498C1339.45 19.1775 1339.63 18.9195 1339.9 18.8735C1343.23 18.311 1346.5 17.7567 1349.7 17.2114C1349.97 17.165 1350.23 17.348 1350.28 17.6202C1353.31 17.1023 1356.29 16.5926 1359.2 16.0916C1359.15 15.8195 1359.33 15.5609 1359.61 15.5141C1362.93 14.9422 1366.17 14.3818 1369.32 13.8338C1369.59 13.7865 1369.85 13.9687 1369.9 14.2408C1372.98 13.7049 1375.98 13.1809 1378.9 12.6697C1378.85 12.3977 1379.03 12.1385 1379.3 12.0908C1382.66 11.5014 1385.9 10.9292 1389.03 10.3754C1389.3 10.3272 1389.56 10.5086 1389.61 10.7805C1392.68 10.2362 1395.63 9.70995 1398.46 9.20294C1398.41 8.93112 1398.6 8.67131 1398.87 8.62263C1402.37 7.99616 1405.68 7.39945 1408.8 6.83486C1409.07 6.78565 1409.33 6.96604 1409.38 7.23776C1412.53 6.66548 1415.49 6.12673 1418.24 5.62399C1418.19 5.35237 1418.37 5.09183 1418.64 5.04205C1422.31 4.36995 1425.59 3.76364 1428.46 3.22925C1428.74 3.17881 1429 3.35802 1429.05 3.62951C1432.54 2.98077 1435.41 2.44193 1437.62 2.02444C1437.57 1.7531 1437.74 1.49155 1438.02 1.44025C1439.62 1.13647 1440.84 0.90358 1441.67 0.746643L1442.17 0.649536L1442.5 0.586739V-4.01224C1442.5 -4.28838 1442.72 -4.51224 1443 -4.51224V-13.5353C1442.72 -13.5353 1442.5 -13.7592 1442.5 -14.0353V-24.0584C1442.5 -24.3345 1442.72 -24.5584 1443 -24.5584V-33.5815C1442.72 -33.5815 1442.5 -33.8054 1442.5 -34.0815V-44.1045C1442.5 -44.3807 1442.72 -44.6045 1443 -44.6045V-53.6276C1442.72 -53.6276 1442.5 -53.8514 1442.5 -54.1276V-64.1507C1442.5 -64.4268 1442.72 -64.6507 1443 -64.6507V-73.6737C1442.72 -73.6737 1442.5 -73.8976 1442.5 -74.1737V-84.1968C1442.5 -84.473 1442.72 -84.6968 1443 -84.6968V-93.7199C1442.72 -93.7199 1442.5 -93.9437 1442.5 -94.2199V-104.243C1442.5 -104.519 1442.72 -104.743 1443 -104.743V-113.766C1442.72 -113.766 1442.5 -113.99 1442.5 -114.266V-124.289C1442.5 -124.565 1442.72 -124.789 1443 -124.789V-133.812C1442.72 -133.812 1442.5 -134.036 1442.5 -134.312V-144.335C1442.5 -144.611 1442.72 -144.835 1443 -144.835V-153.858C1442.72 -153.858 1442.5 -154.082 1442.5 -154.358V-164.381C1442.5 -164.658 1442.72 -164.881 1443 -164.881V-173.904C1442.72 -173.904 1442.5 -174.128 1442.5 -174.404V-184.428C1442.5 -184.704 1442.72 -184.928 1443 -184.928V-193.951C1442.72 -193.951 1442.5 -194.174 1442.5 -194.451V-204.474C1442.5 -204.75 1442.72 -204.974 1443 -204.974V-213.997C1442.72 -213.997 1442.5 -214.221 1442.5 -214.497V-224.52C1442.5 -224.796 1442.72 -225.02 1443 -225.02V-234.043C1442.72 -234.043 1442.5 -234.267 1442.5 -234.543V-244.566C1442.5 -244.842 1442.72 -245.066 1443 -245.066V-254.089C1442.72 -254.089 1442.5 -254.313 1442.5 -254.589V-264.612C1442.5 -264.888 1442.72 -265.112 1443 -265.112V-274.135C1442.72 -274.135 1442.5 -274.359 1442.5 -274.635V-284.658C1442.5 -284.934 1442.72 -285.158 1443 -285.158V-294.181C1442.72 -294.181 1442.5 -294.405 1442.5 -294.681V-304.704C1442.5 -304.981 1442.72 -305.204 1443 -305.204V-314.228C1442.72 -314.228 1442.5 -314.451 1442.5 -314.728V-324.751C1442.5 -325.027 1442.72 -325.251 1443 -325.251V-334.274C1442.72 -334.274 1442.5 -334.498 1442.5 -334.774V-344.797C1442.5 -345.073 1442.72 -345.297 1443 -345.297V-354.32C1442.72 -354.32 1442.5 -354.544 1442.5 -354.82V-364.843C1442.5 -365.119 1442.72 -365.343 1443 -365.343V-374.366C1442.72 -374.366 1442.5 -374.59 1442.5 -374.866V-384.889C1442.5 -385.165 1442.72 -385.389 1443 -385.389V-394.412C1442.72 -394.412 1442.5 -394.636 1442.5 -394.912V-404.935C1442.5 -405.211 1442.72 -405.435 1443 -405.435V-414.458C1442.72 -414.458 1442.5 -414.682 1442.5 -414.958V-424.981C1442.5 -425.257 1442.72 -425.481 1443 -425.481V-434.504C1442.72 -434.504 1442.5 -434.728 1442.5 -435.004V-445.027C1442.5 -445.304 1442.72 -445.527 1443 -445.527V-454.55C1442.72 -454.55 1442.5 -454.774 1442.5 -455.05V-465.074C1442.5 -465.35 1442.72 -465.574 1443 -465.574V-474.597C1442.72 -474.597 1442.5 -474.82 1442.5 -475.097V-485.12C1442.5 -485.396 1442.72 -485.62 1443 -485.62V-494.643C1442.72 -494.643 1442.5 -494.867 1442.5 -495.143V-505.166C1442.5 -505.442 1442.72 -505.666 1443 -505.666V-514.689C1442.72 -514.689 1442.5 -514.913 1442.5 -515.189V-525.212C1442.5 -525.488 1442.72 -525.712 1443 -525.712V-534.735C1442.72 -534.735 1442.5 -534.959 1442.5 -535.235V-545.258C1442.5 -545.534 1442.72 -545.758 1443 -545.758V-554.781C1442.72 -554.781 1442.5 -555.005 1442.5 -555.281V-565.304C1442.5 -565.58 1442.72 -565.804 1443 -565.804V-574.827C1442.72 -574.827 1442.5 -575.051 1442.5 -575.327V-585.35C1442.5 -585.627 1442.72 -585.85 1443 -585.85V-594.873C1442.72 -594.873 1442.5 -595.097 1442.5 -595.373V-605.397C1442.5 -605.673 1442.72 -605.897 1443 -605.897V-614.92C1442.72 -614.92 1442.5 -615.143 1442.5 -615.42V-625.443C1442.5 -625.719 1442.72 -625.943 1443 -625.943V-634.966C1442.72 -634.966 1442.5 -635.19 1442.5 -635.466V-645.489C1442.5 -645.765 1442.72 -645.989 1443 -645.989V-655.012C1442.72 -655.012 1442.5 -655.236 1442.5 -655.512V-665.535C1442.5 -665.811 1442.72 -666.035 1443 -666.035V-675.058C1442.72 -675.058 1442.5 -675.282 1442.5 -675.558V-685.581C1442.5 -685.857 1442.72 -686.081 1443 -686.081V-695.104C1442.72 -695.104 1442.5 -695.328 1442.5 -695.604V-705.627C1442.5 -705.903 1442.72 -706.127 1443 -706.127V-715.15C1442.72 -715.15 1442.5 -715.374 1442.5 -715.65V-725.673C1442.5 -725.95 1442.72 -726.173 1443 -726.173V-735.196C1442.72 -735.196 1442.5 -735.42 1442.5 -735.696V-745.72C1442.5 -745.996 1442.72 -746.22 1443 -746.22V-755.243C1442.72 -755.243 1442.5 -755.466 1442.5 -755.743V-765.766C1442.5 -766.042 1442.72 -766.266 1443 -766.266V-775.289C1442.72 -775.289 1442.5 -775.513 1442.5 -775.789V-785.812C1442.5 -786.088 1442.72 -786.312 1443 -786.312V-795.335C1442.72 -795.335 1442.5 -795.559 1442.5 -795.835V-805.858C1442.5 -806.134 1442.72 -806.358 1443 -806.358V-815.381C1442.72 -815.381 1442.5 -815.605 1442.5 -815.881V-825.904C1442.5 -826.18 1442.72 -826.404 1443 -826.404V-835.427C1442.72 -835.427 1442.5 -835.651 1442.5 -835.927V-845.95C1442.5 -846.226 1442.72 -846.45 1443 -846.45V-855.473C1442.72 -855.473 1442.5 -855.697 1442.5 -855.973V-865.996C1442.5 -866.273 1442.72 -866.496 1443 -866.496V-875.52C1442.72 -875.52 1442.5 -875.743 1442.5 -876.02V-886.043C1442.5 -886.319 1442.72 -886.543 1443 -886.543V-895.566C1442.72 -895.566 1442.5 -895.789 1442.5 -896.066V-906.089C1442.5 -906.365 1442.72 -906.589 1443 -906.589V-915.612C1442.72 -915.612 1442.5 -915.836 1442.5 -916.112V-926.135C1442.5 -926.411 1442.72 -926.635 1443 -926.635V-935.658C1442.72 -935.658 1442.5 -935.882 1442.5 -936.158V-946.181C1442.5 -946.457 1442.72 -946.681 1443 -946.681V-955.704C1442.72 -955.704 1442.5 -955.928 1442.5 -956.204V-966.227C1442.5 -966.503 1442.72 -966.727 1443 -966.727V-975.75C1442.72 -975.75 1442.5 -975.974 1442.5 -976.25V-986.273C1442.5 -986.549 1442.72 -986.773 1443 -986.773V-995.796C1442.72 -995.796 1442.5 -996.02 1442.5 -996.296V-1006.32C1442.5 -1006.6 1442.72 -1006.82 1443 -1006.82V-1015.84C1442.72 -1015.84 1442.5 -1016.07 1442.5 -1016.34V-1026.37C1442.5 -1026.64 1442.72 -1026.87 1443 -1026.87V-1035.89C1442.72 -1035.89 1442.5 -1036.11 1442.5 -1036.39V-1046.41C1442.5 -1046.69 1442.72 -1046.91 1443 -1046.91V-1055.93C1442.72 -1055.93 1442.5 -1056.16 1442.5 -1056.43V-1066.46C1442.5 -1066.73 1442.72 -1066.96 1443 -1066.96V-1075.98C1442.72 -1075.98 1442.5 -1076.2 1442.5 -1076.48V-1086.5C1442.5 -1086.78 1442.72 -1087 1443 -1087V-1096.03C1442.72 -1096.03 1442.5 -1096.25 1442.5 -1096.53V-1106.55C1442.5 -1106.83 1442.72 -1107.05 1443 -1107.05V-1116.07C1442.72 -1116.07 1442.5 -1116.3 1442.5 -1116.57V-1126.6C1442.5 -1126.87 1442.72 -1127.1 1443 -1127.1V-1136.12C1442.72 -1136.12 1442.5 -1136.34 1442.5 -1136.62V-1146.64C1442.5 -1146.92 1442.72 -1147.14 1443 -1147.14V-1156.17C1442.72 -1156.17 1442.5 -1156.39 1442.5 -1156.67V-1166.69C1442.5 -1166.96 1442.72 -1167.19 1443 -1167.19V-1176.21C1442.72 -1176.21 1442.5 -1176.44 1442.5 -1176.71V-1186.73C1442.5 -1187.01 1442.72 -1187.23 1443 -1187.23V-1196.26C1442.72 -1196.26 1442.5 -1196.48 1442.5 -1196.76V-1206.78C1442.5 -1207.06 1442.72 -1207.28 1443 -1207.28V-1216.3C1442.72 -1216.3 1442.5 -1216.53 1442.5 -1216.8V-1226.83C1442.5 -1227.1 1442.72 -1227.33 1443 -1227.33V-1236.35C1442.72 -1236.35 1442.5 -1236.57 1442.5 -1236.85V-1246.87C1442.5 -1247.15 1442.72 -1247.37 1443 -1247.37V-1256.4C1442.72 -1256.4 1442.5 -1256.62 1442.5 -1256.9V-1266.92C1442.5 -1267.2 1442.72 -1267.42 1443 -1267.42V-1276.44C1442.72 -1276.44 1442.5 -1276.67 1442.5 -1276.94V-1286.97C1442.5 -1287.24 1442.72 -1287.47 1443 -1287.47V-1296.49C1442.72 -1296.49 1442.5 -1296.71 1442.5 -1296.99V-1300.93C1442.47 -1300.9 1442.43 -1300.87 1442.4 -1300.84C1441.78 -1300.34 1440.86 -1299.58 1439.63 -1298.61C1439.41 -1298.43 1439.1 -1298.47 1438.93 -1298.69C1437.14 -1297.27 1434.77 -1295.44 1431.8 -1293.22C1431.97 -1293 1431.92 -1292.69 1431.7 -1292.53C1429.4 -1290.81 1426.76 -1288.89 1423.79 -1286.77C1423.56 -1286.61 1423.25 -1286.66 1423.09 -1286.89C1420.85 -1285.3 1418.42 -1283.61 1415.81 -1281.81C1415.96 -1281.59 1415.91 -1281.28 1415.68 -1281.12C1413.11 -1279.36 1410.36 -1277.52 1407.44 -1275.59C1407.21 -1275.44 1406.9 -1275.5 1406.75 -1275.73C1404.35 -1274.16 1401.84 -1272.52 1399.2 -1270.84C1399.35 -1270.61 1399.28 -1270.3 1399.05 -1270.15C1396.42 -1268.47 1393.67 -1266.75 1390.8 -1264.97C1390.57 -1264.83 1390.26 -1264.9 1390.11 -1265.14C1387.68 -1263.63 1385.16 -1262.1 1382.56 -1260.54C1382.7 -1260.3 1382.62 -1259.99 1382.39 -1259.85C1379.61 -1258.18 1376.73 -1256.48 1373.76 -1254.76C1373.52 -1254.62 1373.21 -1254.7 1373.07 -1254.94C1370.61 -1253.51 1368.09 -1252.06 1365.5 -1250.59C1365.63 -1250.35 1365.55 -1250.04 1365.31 -1249.91C1362.5 -1248.31 1359.61 -1246.7 1356.64 -1245.07C1356.4 -1244.94 1356.09 -1245.02 1355.96 -1245.27C1353.42 -1243.87 1350.83 -1242.46 1348.18 -1241.04C1348.31 -1240.8 1348.22 -1240.49 1347.97 -1240.36C1345.13 -1238.84 1342.22 -1237.3 1339.25 -1235.76C1339 -1235.63 1338.7 -1235.72 1338.57 -1235.97C1335.98 -1234.62 1333.35 -1233.27 1330.66 -1231.9C1330.79 -1231.66 1330.69 -1231.35 1330.44 -1231.23C1327.56 -1229.77 1324.62 -1228.3 1321.63 -1226.82C1321.38 -1226.7 1321.08 -1226.8 1320.96 -1227.05C1318.34 -1225.75 1315.68 -1224.46 1312.98 -1223.15C1313.1 -1222.91 1312.99 -1222.61 1312.74 -1222.49C1309.82 -1221.08 1306.84 -1219.66 1303.81 -1218.25C1303.56 -1218.13 1303.26 -1218.24 1303.14 -1218.49C1300.51 -1217.25 1297.84 -1216.02 1295.13 -1214.78C1295.24 -1214.53 1295.13 -1214.23 1294.88 -1214.12C1291.9 -1212.76 1288.87 -1211.39 1285.79 -1210.03C1285.54 -1209.91 1285.25 -1210.03 1285.13 -1210.28C1282.49 -1209.11 1279.81 -1207.93 1277.1 -1206.76C1277.21 -1206.51 1277.1 -1206.21 1276.84 -1206.1C1273.82 -1204.79 1270.75 -1203.48 1267.64 -1202.17C1267.39 -1202.07 1267.1 -1202.19 1266.99 -1202.44C1264.32 -1201.32 1261.63 -1200.2 1258.9 -1199.08C1259.01 -1198.82 1258.88 -1198.53 1258.63 -1198.42C1255.61 -1197.18 1252.55 -1195.94 1249.45 -1194.71C1249.2 -1194.6 1248.91 -1194.73 1248.8 -1194.99C1246.07 -1193.89 1243.3 -1192.8 1240.51 -1191.72C1240.61 -1191.46 1240.48 -1191.17 1240.22 -1191.07C1237.21 -1189.9 1234.16 -1188.73 1231.08 -1187.56C1230.82 -1187.46 1230.53 -1187.59 1230.44 -1187.85C1227.66 -1186.8 1224.86 -1185.75 1222.03 -1184.71C1222.13 -1184.45 1221.99 -1184.16 1221.73 -1184.07C1218.69 -1182.95 1215.62 -1181.83 1212.52 -1180.72C1212.26 -1180.63 1211.97 -1180.76 1211.88 -1181.02C1209.12 -1180.04 1206.34 -1179.05 1203.53 -1178.07C1203.63 -1177.81 1203.49 -1177.53 1203.23 -1177.44C1200.1 -1176.35 1196.94 -1175.26 1193.75 -1174.18C1193.49 -1174.09 1193.21 -1174.23 1193.12 -1174.49C1190.38 -1173.57 1187.62 -1172.65 1184.84 -1171.73C1184.92 -1171.47 1184.78 -1171.18 1184.52 -1171.1C1181.41 -1170.07 1178.28 -1169.06 1175.12 -1168.04C1174.85 -1167.96 1174.57 -1168.11 1174.49 -1168.37C1171.66 -1167.46 1168.8 -1166.56 1165.92 -1165.67C1166 -1165.4 1165.86 -1165.12 1165.59 -1165.04C1162.51 -1164.08 1159.4 -1163.13 1156.27 -1162.19C1156 -1162.11 1155.73 -1162.26 1155.65 -1162.52C1152.83 -1161.67 1149.99 -1160.83 1147.13 -1159.99C1147.21 -1159.73 1147.05 -1159.45 1146.79 -1159.37C1143.62 -1158.44 1140.42 -1157.52 1137.19 -1156.61C1136.93 -1156.53 1136.65 -1156.68 1136.58 -1156.95C1133.79 -1156.16 1130.98 -1155.38 1128.15 -1154.6C1128.22 -1154.33 1128.07 -1154.05 1127.8 -1153.98C1124.65 -1153.11 1121.47 -1152.25 1118.27 -1151.4C1118 -1151.33 1117.72 -1151.49 1117.65 -1151.75C1114.77 -1150.99 1111.87 -1150.23 1108.95 -1149.47C1109.02 -1149.2 1108.85 -1148.93 1108.59 -1148.86C1105.46 -1148.05 1102.31 -1147.25 1099.13 -1146.46C1098.87 -1146.4 1098.6 -1146.56 1098.53 -1146.83C1095.68 -1146.12 1092.82 -1145.41 1089.93 -1144.72C1090 -1144.45 1089.83 -1144.18 1089.56 -1144.11C1086.35 -1143.34 1083.12 -1142.57 1079.86 -1141.81C1079.59 -1141.75 1079.32 -1141.92 1079.26 -1142.19C1076.41 -1141.52 1073.55 -1140.87 1070.66 -1140.22C1070.72 -1139.95 1070.55 -1139.68 1070.29 -1139.62C1067.11 -1138.9 1063.91 -1138.2 1060.7 -1137.5C1060.43 -1137.44 1060.16 -1137.61 1060.1 -1137.88C1057.21 -1137.25 1054.3 -1136.63 1051.37 -1136.02C1051.43 -1135.75 1051.25 -1135.49 1050.98 -1135.43C1047.76 -1134.76 1044.52 -1134.09 1041.26 -1133.43C1040.99 -1133.38 1040.73 -1133.56 1040.67 -1133.83C1037.82 -1133.25 1034.95 -1132.69 1032.07 -1132.13C1032.12 -1131.85 1031.94 -1131.59 1031.67 -1131.54C1028.45 -1130.92 1025.22 -1130.3 1021.96 -1129.7C1021.69 -1129.65 1021.43 -1129.83 1021.38 -1130.1C1018.45 -1129.55 1015.51 -1129.02 1012.55 -1128.49C1012.59 -1128.22 1012.41 -1127.96 1012.14 -1127.91C1008.94 -1127.34 1005.72 -1126.78 1002.49 -1126.22C1002.22 -1126.18 1001.96 -1126.36 1001.91 -1126.63C999.025 -1126.14 996.125 -1125.66 993.211 -1125.18C993.256 -1124.91 993.071 -1124.65 992.798 -1124.6C989.551 -1124.07 986.285 -1123.55 983.002 -1123.04C982.729 -1123 982.474 -1123.18 982.431 -1123.45C979.493 -1123 976.541 -1122.55 973.575 -1122.1C973.616 -1121.83 973.427 -1121.58 973.154 -1121.54C969.95 -1121.06 966.73 -1120.59 963.493 -1120.13C963.219 -1120.09 962.966 -1120.28 962.927 -1120.56C960.019 -1120.15 957.096 -1119.74 954.161 -1119.35C954.198 -1119.07 954.006 -1118.82 953.732 -1118.78C950.462 -1118.34 947.175 -1117.91 943.872 -1117.49C943.598 -1117.46 943.348 -1117.65 943.313 -1117.93C940.381 -1117.55 937.437 -1117.19 934.48 -1116.83C934.513 -1116.56 934.317 -1116.31 934.043 -1116.27C930.82 -1115.89 927.581 -1115.51 924.327 -1115.14C924.052 -1115.11 923.805 -1115.3 923.773 -1115.58C920.849 -1115.25 917.911 -1114.92 914.962 -1114.61C914.991 -1114.33 914.792 -1114.09 914.518 -1114.06C911.233 -1113.71 907.932 -1113.37 904.616 -1113.04C904.341 -1113.01 904.096 -1113.21 904.069 -1113.48C901.136 -1113.19 898.19 -1112.91 895.233 -1112.63C895.259 -1112.36 895.057 -1112.11 894.782 -1112.09C891.546 -1111.79 888.296 -1111.49 885.032 -1111.21C884.756 -1111.19 884.514 -1111.39 884.49 -1111.67C881.556 -1111.41 878.611 -1111.17 875.653 -1110.93C875.675 -1110.66 875.47 -1110.42 875.195 -1110.39C871.901 -1110.13 868.593 -1109.88 865.271 -1109.63C864.996 -1109.61 864.756 -1109.82 864.736 -1110.1C861.793 -1109.88 858.838 -1109.68 855.872 -1109.48C855.89 -1109.2 855.682 -1108.96 855.406 -1108.94C852.164 -1108.73 848.909 -1108.52 845.641 -1108.32C845.365 -1108.31 845.128 -1108.52 845.112 -1108.79C842.174 -1108.62 839.226 -1108.45 836.267 -1108.29C836.281 -1108.01 836.07 -1107.78 835.794 -1107.76C832.498 -1107.59 829.189 -1107.42 825.866 -1107.26C825.591 -1107.25 825.356 -1107.46 825.343 -1107.74C822.381 -1107.6 819.407 -1107.47 816.423 -1107.34C816.435 -1107.07 816.22 -1106.83 815.944 -1106.82C812.702 -1106.69 809.448 -1106.56 806.181 -1106.45C805.905 -1106.44 805.673 -1106.66 805.663 -1106.93C802.728 -1106.83 799.782 -1106.74 796.826 -1106.65C796.834 -1106.38 796.617 -1106.15 796.341 -1106.14C793.048 -1106.04 789.743 -1105.96 786.425 -1105.88C786.149 -1105.88 785.92 -1106.1 785.914 -1106.37C782.927 -1106.31 779.931 -1106.25 776.924 -1106.2C776.929 -1105.92 776.709 -1105.7 776.432 -1105.69C773.191 -1105.64 769.937 -1105.6 766.671 -1105.56C766.395 -1105.56 766.169 -1105.78 766.166 -1106.06C763.237 -1106.03 760.299 -1106.01 757.351 -1105.99C757.352 -1105.72 757.129 -1105.49 756.853 -1105.49C753.568 -1105.48 750.272 -1105.47 746.963 -1105.48C746.687 -1105.48 746.464 -1105.7 746.464 -1105.98C743.488 -1105.98 740.502 -1106 737.506 -1106.02C737.504 -1105.74 737.278 -1105.52 737.002 -1105.52C735.336 -1105.54 733.667 -1105.55 731.995 -1105.57C730.321 -1105.59 728.649 -1105.61 726.98 -1105.63C726.704 -1105.63 726.483 -1105.86 726.487 -1106.14C723.486 -1106.18 720.493 -1106.23 717.509 -1106.28C717.504 -1106.01 717.276 -1105.79 716.999 -1105.79C713.683 -1105.86 710.378 -1105.93 707.083 -1106.01C706.807 -1106.02 706.588 -1106.24 706.595 -1106.52C703.636 -1106.59 700.686 -1106.67 697.745 -1106.76C697.737 -1106.49 697.506 -1106.27 697.23 -1106.28C693.952 -1106.38 690.684 -1106.48 687.428 -1106.6C687.152 -1106.61 686.936 -1106.84 686.946 -1107.12C683.936 -1107.22 680.935 -1107.34 677.944 -1107.46C677.932 -1107.19 677.699 -1106.97 677.424 -1106.98C674.1 -1107.12 670.788 -1107.27 667.488 -1107.42C667.212 -1107.43 666.999 -1107.67 667.012 -1107.94C664.047 -1108.08 661.092 -1108.23 658.146 -1108.38C658.131 -1108.11 657.896 -1107.9 657.62 -1107.91C654.343 -1108.08 651.076 -1108.26 647.821 -1108.45C647.546 -1108.47 647.335 -1108.71 647.351 -1108.98C644.363 -1109.16 641.384 -1109.34 638.415 -1109.53C638.397 -1109.25 638.16 -1109.04 637.884 -1109.06C634.557 -1109.27 631.243 -1109.49 627.941 -1109.72C627.665 -1109.74 627.457 -1109.98 627.477 -1110.26C624.51 -1110.47 621.553 -1110.68 618.606 -1110.9C618.586 -1110.63 618.345 -1110.42 618.07 -1110.44C614.792 -1110.69 611.526 -1110.95 608.273 -1111.21C607.997 -1111.23 607.792 -1111.47 607.815 -1111.75C604.845 -1111.99 601.886 -1112.24 598.937 -1112.5C598.913 -1112.22 598.671 -1112.02 598.396 -1112.04C595.07 -1112.33 591.757 -1112.63 588.457 -1112.94C588.182 -1112.96 587.98 -1113.21 588.005 -1113.48C585.041 -1113.76 582.086 -1114.04 579.143 -1114.33C579.115 -1114.06 578.871 -1113.86 578.596 -1113.88C575.322 -1114.21 572.061 -1114.54 568.813 -1114.88C568.538 -1114.91 568.339 -1115.16 568.368 -1115.43C565.41 -1115.74 562.463 -1116.06 559.527 -1116.39C559.497 -1116.11 559.25 -1115.91 558.975 -1115.94C555.655 -1116.31 552.348 -1116.69 549.055 -1117.07C548.781 -1117.11 548.584 -1117.35 548.616 -1117.63C545.658 -1117.98 542.711 -1118.33 539.775 -1118.69C539.741 -1118.42 539.492 -1118.22 539.218 -1118.26C535.953 -1118.66 532.701 -1119.07 529.464 -1119.48C529.19 -1119.52 528.997 -1119.77 529.032 -1120.04C526.079 -1120.43 523.137 -1120.82 520.207 -1121.21C520.17 -1120.94 519.918 -1120.75 519.645 -1120.78C516.334 -1121.23 513.039 -1121.69 509.758 -1122.15C509.485 -1122.19 509.294 -1122.44 509.333 -1122.72C506.386 -1123.13 503.451 -1123.56 500.528 -1123.99C500.488 -1123.72 500.234 -1123.53 499.961 -1123.57C496.71 -1124.05 493.473 -1124.54 490.252 -1125.03C489.979 -1125.08 489.792 -1125.33 489.834 -1125.6C486.878 -1126.06 483.934 -1126.52 481.002 -1126.99C480.959 -1126.72 480.702 -1126.53 480.43 -1126.58C477.135 -1127.1 473.857 -1127.64 470.594 -1128.18C470.321 -1128.23 470.137 -1128.49 470.183 -1128.76C467.253 -1129.25 464.336 -1129.75 461.432 -1130.25C461.385 -1129.98 461.126 -1129.79 460.854 -1129.84C457.623 -1130.4 454.408 -1130.97 451.209 -1131.54C450.938 -1131.59 450.757 -1131.85 450.806 -1132.12C447.838 -1132.65 444.884 -1133.19 441.944 -1133.74C441.894 -1133.47 441.633 -1133.29 441.361 -1133.34C438.089 -1133.95 434.834 -1134.57 431.596 -1135.19C431.325 -1135.24 431.147 -1135.5 431.2 -1135.77C428.293 -1136.34 425.4 -1136.9 422.522 -1137.47C422.468 -1137.2 422.204 -1137.03 421.934 -1137.08C418.691 -1137.73 415.467 -1138.38 412.26 -1139.04C411.989 -1139.1 411.815 -1139.36 411.871 -1139.63C408.923 -1140.24 405.989 -1140.85 403.071 -1141.47C403.013 -1141.2 402.748 -1141.03 402.478 -1141.09C399.235 -1141.78 396.011 -1142.47 392.806 -1143.18C392.536 -1143.24 392.365 -1143.5 392.425 -1143.77C389.549 -1144.4 386.689 -1145.04 383.843 -1145.68C383.782 -1145.41 383.514 -1145.25 383.245 -1145.31C379.976 -1146.05 376.727 -1146.79 373.498 -1147.54C373.229 -1147.61 373.062 -1147.88 373.125 -1148.15C370.21 -1148.83 367.312 -1149.51 364.43 -1150.2C364.365 -1149.93 364.095 -1149.77 363.827 -1149.83C360.623 -1150.6 357.439 -1151.38 354.275 -1152.16C354.007 -1152.22 353.843 -1152.5 353.91 -1152.76C351.012 -1153.48 348.131 -1154.2 345.266 -1154.93C345.198 -1154.66 344.926 -1154.5 344.659 -1154.57C341.417 -1155.39 338.197 -1156.22 334.999 -1157.06C334.732 -1157.13 334.572 -1157.4 334.642 -1157.67C331.771 -1158.42 328.918 -1159.17 326.082 -1159.93C326.01 -1159.67 325.736 -1159.51 325.469 -1159.58C322.278 -1160.44 319.109 -1161.3 315.962 -1162.17C315.695 -1162.24 315.539 -1162.52 315.612 -1162.78C312.704 -1163.59 309.815 -1164.39 306.945 -1165.21C306.87 -1164.94 306.594 -1164.79 306.328 -1164.86C303.14 -1165.76 299.976 -1166.67 296.835 -1167.58C296.57 -1167.66 296.418 -1167.94 296.495 -1168.2C293.655 -1169.03 290.835 -1169.86 288.034 -1170.69C287.955 -1170.43 287.677 -1170.28 287.412 -1170.36C284.19 -1171.32 280.993 -1172.28 277.822 -1173.25C277.557 -1173.34 277.409 -1173.61 277.49 -1173.88C274.643 -1174.75 271.817 -1175.63 269.012 -1176.5C268.929 -1176.24 268.648 -1176.09 268.385 -1176.18C265.237 -1177.16 262.115 -1178.15 259.019 -1179.15C258.756 -1179.23 258.612 -1179.52 258.696 -1179.78C255.816 -1180.7 252.959 -1181.63 250.124 -1182.57C250.038 -1182.3 249.755 -1182.16 249.493 -1182.25C246.346 -1183.28 243.227 -1184.32 240.136 -1185.37C239.874 -1185.45 239.733 -1185.74 239.822 -1186C237.002 -1186.95 234.207 -1187.91 231.434 -1188.86C231.344 -1188.6 231.059 -1188.46 230.798 -1188.55C227.623 -1189.65 224.478 -1190.75 221.364 -1191.85C221.104 -1191.94 220.967 -1192.23 221.059 -1192.49C218.266 -1193.48 215.498 -1194.47 212.756 -1195.46C212.662 -1195.2 212.375 -1195.07 212.115 -1195.16C208.969 -1196.3 205.855 -1197.44 202.775 -1198.58C202.516 -1198.68 202.384 -1198.97 202.48 -1199.23C199.663 -1200.27 196.873 -1201.32 194.112 -1202.36C194.014 -1202.1 193.725 -1201.97 193.467 -1202.07C190.395 -1203.24 187.357 -1204.4 184.354 -1205.57C184.097 -1205.67 183.969 -1205.96 184.069 -1206.22C181.228 -1207.32 178.418 -1208.42 175.639 -1209.52C175.537 -1209.27 175.247 -1209.14 174.99 -1209.24C171.907 -1210.47 168.862 -1211.69 165.856 -1212.91C165.6 -1213.02 165.477 -1213.31 165.581 -1213.56C162.795 -1214.7 160.043 -1215.83 157.324 -1216.96C157.218 -1216.7 156.925 -1216.58 156.67 -1216.69C153.575 -1217.97 150.522 -1219.26 147.513 -1220.54C147.259 -1220.65 147.141 -1220.94 147.249 -1221.19C144.513 -1222.36 141.813 -1223.52 139.149 -1224.68C139.039 -1224.42 138.744 -1224.31 138.491 -1224.42C135.387 -1225.77 132.333 -1227.11 129.327 -1228.45C129.074 -1228.56 128.961 -1228.86 129.073 -1229.11C126.376 -1230.31 123.718 -1231.51 121.099 -1232.7C120.985 -1232.45 120.688 -1232.34 120.437 -1232.45C117.332 -1233.86 114.283 -1235.27 111.29 -1236.66C111.04 -1236.78 110.931 -1237.08 111.048 -1237.33C108.369 -1238.58 105.735 -1239.82 103.147 -1241.05C103.028 -1240.8 102.73 -1240.7 102.48 -1240.81C99.3895 -1242.29 96.3636 -1243.75 93.4029 -1245.19C93.1547 -1245.31 93.0518 -1245.61 93.1729 -1245.86C90.5044 -1247.17 87.8891 -1248.46 85.3272 -1249.74C85.2037 -1249.49 84.9034 -1249.39 84.6564 -1249.51C81.5886 -1251.05 78.5978 -1252.56 75.684 -1254.05C75.4382 -1254.18 75.341 -1254.48 75.4669 -1254.72C72.7847 -1256.1 70.1683 -1257.46 67.6179 -1258.79C67.4895 -1258.55 67.1873 -1258.45 66.9428 -1258.58C63.9331 -1260.16 61.0158 -1261.71 58.1911 -1263.23C57.948 -1263.37 57.857 -1263.67 57.9879 -1263.91C55.2749 -1265.37 52.648 -1266.81 50.1077 -1268.21C49.9741 -1267.97 49.6699 -1267.88 49.4282 -1268.01C46.4501 -1269.66 43.5916 -1271.26 40.8532 -1272.82C40.6131 -1272.95 40.529 -1273.26 40.6653 -1273.5C37.9972 -1275.02 35.4444 -1276.49 33.0072 -1277.91C32.8679 -1277.67 32.5617 -1277.59 32.3233 -1277.73C29.2761 -1279.51 26.4116 -1281.21 23.7308 -1282.83C23.4942 -1282.97 23.4181 -1283.28 23.5606 -1283.51C20.8345 -1285.16 18.3013 -1286.71 15.9621 -1288.17C15.816 -1287.94 15.5075 -1287.86 15.2732 -1288.01C12.1693 -1289.95 9.41343 -1291.71 7.00776 -1293.27C6.77611 -1293.42 6.71017 -1293.73 6.86048 -1293.96C3.73121 -1295.99 1.21689 -1297.68 -0.677514 -1298.97C-0.677598 -1298.97 -0.677684 -1298.97 -0.677769 -1298.97C-0.833947 -1298.75 -1.14517 -1298.69 -1.3729 -1298.84C-2.6758 -1299.74 -3.65544 -1300.43 -4.30987 -1300.89C-4.37663 -1300.94 -4.44001 -1300.98 -4.5 -1301.02V-1296.99C-4.5 -1296.71 -4.72386 -1296.49 -5 -1296.49V-1287.47C-4.72386 -1287.47 -4.5 -1287.24 -4.5 -1286.97V-1276.94C-4.5 -1276.67 -4.72386 -1276.44 -5 -1276.44V-1267.42C-4.72386 -1267.42 -4.5 -1267.2 -4.5 -1266.92V-1256.9C-4.5 -1256.62 -4.72386 -1256.4 -5 -1256.4V-1247.37C-4.72386 -1247.37 -4.5 -1247.15 -4.5 -1246.87V-1236.85C-4.5 -1236.57 -4.72386 -1236.35 -5 -1236.35V-1227.33C-4.72386 -1227.33 -4.5 -1227.1 -4.5 -1226.83V-1216.8C-4.5 -1216.53 -4.72386 -1216.3 -5 -1216.3V-1207.28C-4.72386 -1207.28 -4.5 -1207.06 -4.5 -1206.78V-1196.76C-4.5 -1196.48 -4.72386 -1196.26 -5 -1196.26V-1187.23C-4.72386 -1187.23 -4.5 -1187.01 -4.5 -1186.73V-1176.71C-4.5 -1176.44 -4.72386 -1176.21 -5 -1176.21V-1167.19C-4.72386 -1167.19 -4.5 -1166.96 -4.5 -1166.69V-1156.67C-4.5 -1156.39 -4.72386 -1156.17 -5 -1156.17V-1147.14C-4.72386 -1147.14 -4.5 -1146.92 -4.5 -1146.64V-1136.62C-4.5 -1136.34 -4.72386 -1136.12 -5 -1136.12V-1127.1C-4.72386 -1127.1 -4.5 -1126.87 -4.5 -1126.6V-1116.57C-4.5 -1116.3 -4.72386 -1116.07 -5 -1116.07V-1107.05C-4.72386 -1107.05 -4.5 -1106.83 -4.5 -1106.55V-1096.53C-4.5 -1096.25 -4.72386 -1096.03 -5 -1096.03V-1087C-4.72386 -1087 -4.5 -1086.78 -4.5 -1086.5V-1076.48C-4.5 -1076.2 -4.72386 -1075.98 -5 -1075.98V-1066.96C-4.72386 -1066.96 -4.5 -1066.73 -4.5 -1066.46V-1056.43C-4.5 -1056.16 -4.72386 -1055.93 -5 -1055.93V-1046.91C-4.72386 -1046.91 -4.5 -1046.69 -4.5 -1046.41V-1036.39C-4.5 -1036.11 -4.72386 -1035.89 -5 -1035.89V-1026.87C-4.72386 -1026.87 -4.5 -1026.64 -4.5 -1026.37V-1016.34C-4.5 -1016.07 -4.72386 -1015.84 -5 -1015.84V-1006.82C-4.72386 -1006.82 -4.5 -1006.6 -4.5 -1006.32V-996.296C-4.5 -996.02 -4.72386 -995.796 -5 -995.796V-986.773C-4.72386 -986.773 -4.5 -986.549 -4.5 -986.273V-976.25C-4.5 -975.974 -4.72386 -975.75 -5 -975.75V-966.727C-4.72386 -966.727 -4.5 -966.503 -4.5 -966.227V-956.204C-4.5 -955.928 -4.72386 -955.704 -5 -955.704V-946.681C-4.72386 -946.681 -4.5 -946.457 -4.5 -946.181V-936.158C-4.5 -935.881 -4.72386 -935.658 -5 -935.658V-926.634C-4.72386 -926.634 -4.5 -926.411 -4.5 -926.134V-916.111C-4.5 -915.835 -4.72386 -915.611 -5 -915.611V-906.588C-4.72386 -906.588 -4.5 -906.365 -4.5 -906.088V-896.065C-4.5 -895.789 -4.72386 -895.565 -5 -895.565V-886.542C-4.72386 -886.542 -4.5 -886.318 -4.5 -886.042V-876.019C-4.5 -875.743 -4.72386 -875.519 -5 -875.519V-866.496C-4.72386 -866.496 -4.5 -866.272 -4.5 -865.996V-855.973C-4.5 -855.697 -4.72386 -855.473 -5 -855.473V-846.45C-4.72386 -846.45 -4.5 -846.226 -4.5 -845.95V-835.927C-4.5 -835.651 -4.72386 -835.427 -5 -835.427V-826.404C-4.72386 -826.404 -4.5 -826.18 -4.5 -825.904V-815.881C-4.5 -815.605 -4.72386 -815.381 -5 -815.381V-806.358C-4.72386 -806.358 -4.5 -806.134 -4.5 -805.858V-795.835C-4.5 -795.558 -4.72386 -795.335 -5 -795.335V-786.311C-4.72386 -786.311 -4.5 -786.088 -4.5 -785.811V-775.788C-4.5 -775.512 -4.72386 -775.288 -5 -775.288V-766.265C-4.72386 -766.265 -4.5 -766.041 -4.5 -765.765V-755.742C-4.5 -755.466 -4.72386 -755.242 -5 -755.242V-746.219C-4.72386 -746.219 -4.5 -745.995 -4.5 -745.719V-735.696C-4.5 -735.42 -4.72386 -735.196 -5 -735.196V-726.173C-4.72386 -726.173 -4.5 -725.949 -4.5 -725.673V-715.65C-4.5 -715.374 -4.72386 -715.15 -5 -715.15V-706.127C-4.72386 -706.127 -4.5 -705.903 -4.5 -705.627V-695.604C-4.5 -695.328 -4.72386 -695.104 -5 -695.104V-686.081C-4.72386 -686.081 -4.5 -685.857 -4.5 -685.581V-675.558C-4.5 -675.282 -4.72386 -675.058 -5 -675.058V-666.035C-4.72386 -666.035 -4.5 -665.811 -4.5 -665.535V-655.512C-4.5 -655.235 -4.72386 -655.012 -5 -655.012V-645.988C-4.72386 -645.988 -4.5 -645.765 -4.5 -645.488V-635.465C-4.5 -635.189 -4.72386 -634.965 -5 -634.965V-625.942C-4.72386 -625.942 -4.5 -625.719 -4.5 -625.442V-615.419C-4.5 -615.143 -4.72386 -614.919 -5 -614.919V-605.896C-4.72386 -605.896 -4.5 -605.672 -4.5 -605.396V-595.373C-4.5 -595.097 -4.72386 -594.873 -5 -594.873V-585.85C-4.72386 -585.85 -4.5 -585.626 -4.5 -585.35V-575.327C-4.5 -575.051 -4.72386 -574.827 -5 -574.827V-565.804C-4.72386 -565.804 -4.5 -565.58 -4.5 -565.304V-555.281C-4.5 -555.005 -4.72386 -554.781 -5 -554.781V-545.758C-4.72386 -545.758 -4.5 -545.534 -4.5 -545.258V-535.235C-4.5 -534.959 -4.72386 -534.735 -5 -534.735V-525.712C-4.72386 -525.712 -4.5 -525.488 -4.5 -525.212V-515.189C-4.5 -514.912 -4.72386 -514.689 -5 -514.689V-505.665C-4.72386 -505.665 -4.5 -505.442 -4.5 -505.165V-495.142C-4.5 -494.866 -4.72386 -494.642 -5 -494.642V-485.619C-4.72386 -485.619 -4.5 -485.395 -4.5 -485.119V-475.096C-4.5 -474.82 -4.72386 -474.596 -5 -474.596V-465.573C-4.72386 -465.573 -4.5 -465.349 -4.5 -465.073V-455.05C-4.5 -454.774 -4.72386 -454.55 -5 -454.55V-445.527C-4.72386 -445.527 -4.5 -445.303 -4.5 -445.027V-435.004C-4.5 -434.728 -4.72386 -434.504 -5 -434.504V-425.481C-4.72386 -425.481 -4.5 -425.257 -4.5 -424.981V-414.958C-4.5 -414.682 -4.72386 -414.458 -5 -414.458V-405.435C-4.72386 -405.435 -4.5 -405.211 -4.5 -404.935V-394.912C-4.5 -394.636 -4.72386 -394.412 -5 -394.412V-385.389C-4.72386 -385.389 -4.5 -385.165 -4.5 -384.889V-374.866C-4.5 -374.589 -4.72386 -374.366 -5 -374.366V-365.342C-4.72386 -365.342 -4.5 -365.119 -4.5 -364.842V-354.819C-4.5 -354.543 -4.72386 -354.319 -5 -354.319V-345.296C-4.72386 -345.296 -4.5 -345.072 -4.5 -344.796V-334.773C-4.5 -334.497 -4.72386 -334.273 -5 -334.273V-325.25C-4.72386 -325.25 -4.5 -325.026 -4.5 -324.75V-314.727C-4.5 -314.451 -4.72386 -314.227 -5 -314.227V-305.204C-4.72386 -305.204 -4.5 -304.98 -4.5 -304.704V-294.681C-4.5 -294.405 -4.72386 -294.181 -5 -294.181V-285.158C-4.72386 -285.158 -4.5 -284.934 -4.5 -284.658V-274.635C-4.5 -274.359 -4.72386 -274.135 -5 -274.135V-265.112C-4.72386 -265.112 -4.5 -264.888 -4.5 -264.612V-254.589C-4.5 -254.313 -4.72386 -254.089 -5 -254.089V-245.066C-4.72386 -245.066 -4.5 -244.842 -4.5 -244.566V-234.543C-4.5 -234.266 -4.72386 -234.043 -5 -234.043V-225.019C-4.72386 -225.019 -4.5 -224.796 -4.5 -224.519V-214.496C-4.5 -214.22 -4.72386 -213.996 -5 -213.996V-204.973C-4.72386 -204.973 -4.5 -204.749 -4.5 -204.473V-194.45C-4.5 -194.174 -4.72386 -193.95 -5 -193.95V-184.927C-4.72386 -184.927 -4.5 -184.703 -4.5 -184.427V-174.404C-4.5 -174.128 -4.72386 -173.904 -5 -173.904V-164.881C-4.72386 -164.881 -4.5 -164.657 -4.5 -164.381V-154.358C-4.5 -154.082 -4.72386 -153.858 -5 -153.858V-144.835C-4.72386 -144.835 -4.5 -144.611 -4.5 -144.335V-134.312C-4.5 -134.036 -4.72386 -133.812 -5 -133.812V-124.789C-4.72386 -124.789 -4.5 -124.565 -4.5 -124.289V-114.266C-4.5 -113.99 -4.72386 -113.766 -5 -113.766V-104.743C-4.72386 -104.743 -4.5 -104.519 -4.5 -104.243V-94.2195C-4.5 -93.9434 -4.72386 -93.7195 -5 -93.7195V-84.6964C-4.72386 -84.6964 -4.5 -84.4726 -4.5 -84.1964V-74.1734C-4.5 -73.8972 -4.72386 -73.6734 -5 -73.6734V-64.6503C-4.72386 -64.6503 -4.5 -64.4264 -4.5 -64.1503V-54.1272C-4.5 -53.8511 -4.72386 -53.6272 -5 -53.6272V-44.6041C-4.72386 -44.6041 -4.5 -44.3803 -4.5 -44.1041V-34.0811C-4.5 -33.8049 -4.72386 -33.5811 -5 -33.5811V-24.558C-4.72386 -24.558 -4.5 -24.3341 -4.5 -24.058V-14.0349C-4.5 -13.7588 -4.72386 -13.5349 -5 -13.5349V-4.51183Z" stroke="black" stroke-linecap="round" stroke-dasharray="10 10"/>
</g>
<g filter="url(#filter1_d_734_33)">
<path d="M-1 81.0005C-1 81.0005 440.25 162.579 722.5 162.5C1005.53 162.421 1439 81.0005 1439 81.0005V1008C1439 1008 938.5 958.5 722.5 957C506.5 955.5 -1 1008 -1 1008V81.0005Z" fill="#fcf1e9"/>
<path d="M-1 86.5385C-0.723858 86.5385 -0.5 86.3147 -0.5 86.0385V81.6009C-0.318285 81.6343 -0.095072 81.6752 0.169068 81.7235C1.00276 81.8761 2.24416 82.1025 3.87528 82.3978C4.147 82.447 4.40716 82.2666 4.45635 81.9948C4.45636 81.9948 4.45636 81.9948 4.45636 81.9948C6.70449 82.4014 9.62534 82.9266 13.1778 83.5593C13.1778 83.5593 13.1778 83.5594 13.1778 83.5594C13.1295 83.8312 13.3106 84.0909 13.5825 84.1392C16.5045 84.6593 19.839 85.2494 23.5642 85.9037C23.8361 85.9515 24.0953 85.7698 24.1431 85.4978C24.1431 85.4978 24.1431 85.4978 24.1431 85.4978C26.9353 85.9879 29.9426 86.5133 33.156 87.0715C33.1087 87.3436 33.291 87.6024 33.5631 87.6497C36.7308 88.1997 40.0959 88.781 43.6497 89.3915C43.9219 89.4382 44.1804 89.2555 44.2272 88.9834C47.1051 89.4775 50.1055 89.9904 53.2239 90.5209C53.1776 90.7932 53.3608 91.0514 53.633 91.0977C56.8079 91.6376 60.1038 92.1955 63.5164 92.7703C63.7887 92.8162 64.0466 92.6326 64.0925 92.3603C67.0579 92.8595 70.1106 93.3713 73.2476 93.8949C73.2021 94.1673 73.3861 94.4249 73.6585 94.4704C76.8586 95.0042 80.1458 95.5502 83.5169 96.1075C83.7894 96.1525 84.0467 95.9682 84.0918 95.6957C87.0549 96.1854 90.0825 96.6836 93.1723 97.1899C93.1277 97.4624 93.3124 97.7195 93.5849 97.7642C96.8302 98.2957 100.144 98.8361 103.523 99.3846C103.796 99.4288 104.053 99.2437 104.097 98.9712C107.068 99.4533 110.091 99.9416 113.162 100.436C113.118 100.708 113.303 100.965 113.576 101.009C116.836 101.533 120.151 102.064 123.518 102.601C123.791 102.644 124.047 102.458 124.091 102.186C127.083 102.662 130.117 103.144 133.191 103.629C133.148 103.902 133.334 104.158 133.607 104.201C136.866 104.716 140.17 105.236 143.517 105.759C143.79 105.802 144.046 105.616 144.089 105.343C147.11 105.815 150.166 106.292 153.257 106.771C153.215 107.044 153.402 107.299 153.675 107.342C156.926 107.846 160.214 108.353 163.539 108.864C163.812 108.906 164.067 108.719 164.109 108.446C167.111 108.906 170.142 109.37 173.201 109.836C173.159 110.109 173.347 110.364 173.62 110.405C176.913 110.906 180.239 111.41 183.597 111.916C183.87 111.957 184.125 111.769 184.166 111.496C187.144 111.945 190.147 112.395 193.174 112.847C193.133 113.12 193.322 113.374 193.595 113.415C196.934 113.914 200.303 114.414 203.699 114.916C203.972 114.956 204.226 114.767 204.266 114.494C207.224 114.931 210.203 115.369 213.202 115.808C213.162 116.081 213.351 116.335 213.624 116.375C216.957 116.862 220.316 117.351 223.698 117.841C223.971 117.88 224.225 117.691 224.264 117.418C227.253 117.85 230.26 118.283 233.285 118.717C233.246 118.99 233.436 119.243 233.709 119.283C237.019 119.757 240.35 120.231 243.702 120.706C243.975 120.745 244.228 120.555 244.267 120.282C247.292 120.71 250.333 121.139 253.39 121.567C253.352 121.841 253.542 122.094 253.816 122.132C257.117 122.595 260.437 123.058 263.774 123.52C264.048 123.558 264.3 123.367 264.338 123.094C267.338 123.509 270.352 123.925 273.379 124.34C273.341 124.613 273.533 124.865 273.806 124.903C277.156 125.362 280.521 125.82 283.903 126.278C284.176 126.315 284.428 126.123 284.465 125.85C287.446 126.253 290.439 126.656 293.444 127.058C293.407 127.332 293.6 127.583 293.873 127.62C297.211 128.067 300.563 128.512 303.928 128.957C304.202 128.993 304.453 128.8 304.489 128.526C307.505 128.925 310.531 129.322 313.567 129.718C313.532 129.992 313.725 130.243 313.998 130.279C317.32 130.712 320.654 131.144 323.998 131.574C324.272 131.609 324.523 131.416 324.558 131.142C327.574 131.53 330.598 131.916 333.631 132.302C333.597 132.576 333.791 132.826 334.064 132.861C337.408 133.285 340.761 133.708 344.124 134.129C344.398 134.163 344.648 133.969 344.683 133.695C347.684 134.07 350.694 134.444 353.71 134.816C353.676 135.091 353.871 135.34 354.145 135.374C357.494 135.787 360.851 136.198 364.217 136.607C364.491 136.64 364.74 136.445 364.773 136.171C367.789 136.537 370.811 136.901 373.839 137.264C373.806 137.538 374.002 137.787 374.276 137.819C377.615 138.219 380.96 138.616 384.312 139.01C384.586 139.042 384.835 138.846 384.867 138.572C387.889 138.927 390.916 139.28 393.947 139.631C393.915 139.906 394.112 140.154 394.386 140.185C397.735 140.573 401.09 140.958 404.45 141.34C404.724 141.371 404.972 141.174 405.003 140.899C408.018 141.242 411.037 141.582 414.059 141.919C414.028 142.194 414.226 142.441 414.5 142.472C417.855 142.846 421.213 143.217 424.575 143.585C424.85 143.615 425.096 143.417 425.127 143.143C428.149 143.473 431.175 143.801 434.202 144.126C434.173 144.401 434.372 144.647 434.646 144.677C437.998 145.037 441.353 145.393 444.709 145.746C444.984 145.774 445.23 145.575 445.259 145.301C448.284 145.618 451.311 145.933 454.339 146.244C454.311 146.519 454.51 146.765 454.785 146.793C458.143 147.138 461.503 147.48 464.863 147.817C465.138 147.845 465.383 147.644 465.411 147.37C468.437 147.673 471.464 147.974 474.491 148.271C474.464 148.546 474.665 148.79 474.94 148.817C478.299 149.146 481.658 149.472 485.017 149.793C485.292 149.819 485.536 149.617 485.562 149.342C488.592 149.632 491.622 149.917 494.651 150.199C494.625 150.474 494.827 150.718 495.102 150.743C498.467 151.056 501.831 151.365 505.192 151.669C505.467 151.693 505.711 151.491 505.735 151.216C508.764 151.489 511.792 151.758 514.817 152.024C514.793 152.299 514.996 152.542 515.271 152.566C518.638 152.861 522.002 153.151 525.362 153.436C525.638 153.459 525.88 153.255 525.903 152.98C528.941 153.237 531.977 153.491 535.009 153.74C534.987 154.015 535.192 154.256 535.467 154.279C538.831 154.554 542.192 154.825 545.547 155.09C545.823 155.112 546.063 154.906 546.085 154.631C549.122 154.87 552.156 155.105 555.185 155.335C555.164 155.61 555.37 155.851 555.646 155.872C559.024 156.128 562.397 156.378 565.764 156.623C566.039 156.643 566.279 156.436 566.299 156.16C569.331 156.38 572.358 156.595 575.38 156.805C575.361 157.08 575.569 157.319 575.844 157.338C579.221 157.572 582.591 157.8 585.953 158.021C586.229 158.039 586.467 157.831 586.485 157.555C589.534 157.756 592.578 157.95 595.614 158.14C595.597 158.416 595.807 158.653 596.082 158.67C599.45 158.88 602.81 159.083 606.16 159.278C606.436 159.295 606.673 159.084 606.689 158.809C609.738 158.986 612.78 159.158 615.813 159.324C615.798 159.6 616.01 159.836 616.285 159.851C619.675 160.036 623.054 160.214 626.422 160.384C626.697 160.397 626.932 160.185 626.946 159.909C629.978 160.062 633.001 160.208 636.015 160.348C636.002 160.624 636.215 160.858 636.491 160.871C639.888 161.028 643.272 161.177 646.643 161.317C646.919 161.329 647.152 161.115 647.163 160.839C650.219 160.966 653.264 161.086 656.297 161.199C656.287 161.475 656.502 161.707 656.778 161.717C660.143 161.842 663.494 161.958 666.829 162.065C667.105 162.074 667.336 161.857 667.345 161.581C670.422 161.68 673.486 161.77 676.537 161.853C676.53 162.129 676.747 162.359 677.023 162.367C680.414 162.458 683.788 162.54 687.145 162.612C687.421 162.618 687.649 162.399 687.655 162.123C690.691 162.187 693.712 162.243 696.718 162.292C696.713 162.568 696.934 162.795 697.21 162.799C700.633 162.853 704.036 162.897 707.419 162.929C707.695 162.932 707.921 162.71 707.924 162.434C710.968 162.462 713.996 162.481 717.007 162.491C717.006 162.768 717.229 162.992 717.505 162.993C719.175 162.998 720.841 163 722.5 163C724.145 163 725.796 162.996 727.451 162.99C727.727 162.989 727.95 162.765 727.949 162.489C730.929 162.477 733.925 162.457 736.937 162.428C736.94 162.704 737.166 162.925 737.442 162.923C740.791 162.889 744.16 162.845 747.546 162.791C747.822 162.787 748.043 162.559 748.038 162.283C751.016 162.234 754.008 162.178 757.013 162.113C757.02 162.389 757.248 162.608 757.524 162.602C760.849 162.53 764.189 162.449 767.545 162.358C767.821 162.35 768.039 162.12 768.031 161.844C771.052 161.761 774.086 161.671 777.131 161.574C777.14 161.85 777.371 162.066 777.647 162.057C780.952 161.95 784.27 161.835 787.601 161.711C787.877 161.701 788.093 161.469 788.082 161.193C791.082 161.081 794.093 160.962 797.113 160.836C797.125 161.112 797.358 161.326 797.634 161.315C800.976 161.175 804.331 161.027 807.697 160.871C807.973 160.858 808.186 160.624 808.174 160.348C811.155 160.209 814.145 160.064 817.144 159.913C817.158 160.189 817.392 160.402 817.668 160.388C821.002 160.219 824.347 160.043 827.701 159.86C827.977 159.845 828.188 159.609 828.173 159.333C831.178 159.168 834.191 158.997 837.211 158.821C837.227 159.097 837.463 159.307 837.739 159.291C841.057 159.097 844.383 158.895 847.718 158.688C847.993 158.67 848.203 158.433 848.186 158.157C851.188 157.97 854.197 157.777 857.212 157.578C857.23 157.854 857.468 158.062 857.744 158.044C861.077 157.824 864.418 157.598 867.765 157.365C868.041 157.346 868.248 157.107 868.229 156.832C871.219 156.624 874.213 156.411 877.212 156.193C877.232 156.468 877.472 156.675 877.747 156.655C881.08 156.413 884.419 156.164 887.763 155.91C888.038 155.889 888.244 155.649 888.223 155.373C891.223 155.145 894.227 154.911 897.234 154.674C897.256 154.949 897.497 155.154 897.772 155.133C901.096 154.869 904.423 154.601 907.755 154.327C908.03 154.304 908.235 154.063 908.212 153.787C911.211 153.54 914.213 153.289 917.218 153.034C917.241 153.309 917.483 153.513 917.758 153.49C921.089 153.206 924.422 152.917 927.758 152.624C928.033 152.6 928.236 152.357 928.212 152.082C931.206 151.818 934.201 151.55 937.197 151.279C937.222 151.554 937.465 151.757 937.74 151.732C941.069 151.429 944.4 151.123 947.731 150.811C948.006 150.786 948.208 150.542 948.182 150.267C951.18 149.987 954.178 149.703 957.176 149.415C957.202 149.69 957.446 149.892 957.721 149.865C961.049 149.546 964.376 149.222 967.703 148.894C967.978 148.867 968.179 148.622 968.152 148.347C971.146 148.052 974.141 147.753 977.134 147.451C977.162 147.726 977.407 147.926 977.682 147.898C981.01 147.562 984.337 147.222 987.662 146.879C987.937 146.85 988.136 146.605 988.108 146.33C991.105 146.02 994.1 145.706 997.094 145.39C997.123 145.665 997.369 145.864 997.644 145.835C1000.97 145.484 1004.29 145.128 1007.61 144.77C1007.89 144.74 1008.08 144.494 1008.05 144.219C1011.05 143.896 1014.04 143.569 1017.03 143.24C1017.06 143.515 1017.31 143.713 1017.58 143.683C1020.91 143.315 1024.24 142.945 1027.56 142.572C1027.84 142.541 1028.03 142.293 1028 142.019C1030.99 141.683 1033.98 141.344 1036.97 141.003C1037 141.277 1037.24 141.474 1037.52 141.442C1040.84 141.062 1044.16 140.678 1047.48 140.292C1047.75 140.26 1047.95 140.012 1047.92 139.738C1050.92 139.388 1053.91 139.036 1056.91 138.681C1056.94 138.955 1057.19 139.151 1057.46 139.119C1060.78 138.725 1064.1 138.329 1067.41 137.93C1067.68 137.897 1067.87 137.648 1067.84 137.374C1070.83 137.013 1073.82 136.65 1076.8 136.286C1076.83 136.56 1077.08 136.755 1077.35 136.721C1080.69 136.313 1084.02 135.902 1087.34 135.489C1087.61 135.455 1087.81 135.205 1087.77 134.931C1090.76 134.56 1093.74 134.186 1096.71 133.812C1096.74 134.086 1096.99 134.28 1097.27 134.245C1100.59 133.825 1103.91 133.404 1107.21 132.98C1107.49 132.945 1107.68 132.695 1107.65 132.421C1110.65 132.036 1113.65 131.65 1116.63 131.262C1116.67 131.536 1116.92 131.729 1117.19 131.694C1120.51 131.263 1123.81 130.831 1127.11 130.398C1127.38 130.362 1127.57 130.111 1127.54 129.837C1130.53 129.442 1133.52 129.046 1136.5 128.65C1136.53 128.923 1136.79 129.116 1137.06 129.079C1140.4 128.634 1143.72 128.188 1147.03 127.741C1147.3 127.704 1147.49 127.452 1147.46 127.179C1150.43 126.777 1153.4 126.374 1156.35 125.97C1156.39 126.244 1156.64 126.435 1156.91 126.398C1160.25 125.941 1163.58 125.483 1166.89 125.025C1167.16 124.988 1167.35 124.735 1167.32 124.462C1170.32 124.046 1173.3 123.631 1176.27 123.215C1176.31 123.488 1176.57 123.679 1176.84 123.64C1180.14 123.179 1183.42 122.716 1186.68 122.254C1186.96 122.215 1187.15 121.962 1187.11 121.689C1190.13 121.26 1193.15 120.831 1196.14 120.402C1196.18 120.676 1196.43 120.866 1196.71 120.827C1200.03 120.35 1203.33 119.875 1206.62 119.399C1206.89 119.36 1207.08 119.106 1207.04 118.833C1210.02 118.4 1212.99 117.969 1215.94 117.537C1215.98 117.811 1216.23 118 1216.5 117.96C1219.86 117.469 1223.19 116.978 1226.5 116.489C1226.77 116.449 1226.96 116.195 1226.92 115.922C1229.89 115.482 1232.84 115.043 1235.77 114.605C1235.81 114.878 1236.07 115.067 1236.34 115.026C1239.69 114.525 1243.02 114.025 1246.32 113.527C1246.59 113.486 1246.78 113.231 1246.74 112.958C1249.74 112.505 1252.72 112.053 1255.67 111.603C1255.71 111.876 1255.97 112.064 1256.24 112.022C1259.55 111.517 1262.84 111.013 1266.09 110.513C1266.36 110.471 1266.55 110.215 1266.51 109.942C1269.54 109.475 1272.55 109.01 1275.52 108.548C1275.56 108.821 1275.82 109.007 1276.09 108.965C1279.39 108.452 1282.65 107.942 1285.88 107.436C1286.15 107.393 1286.34 107.138 1286.3 106.865C1289.34 106.386 1292.36 105.911 1295.34 105.439C1295.38 105.711 1295.64 105.898 1295.91 105.854C1299.23 105.328 1302.51 104.806 1305.75 104.289C1306.02 104.245 1306.2 103.989 1306.16 103.716C1309.19 103.231 1312.18 102.75 1315.14 102.274C1315.18 102.547 1315.44 102.732 1315.71 102.688C1319.05 102.148 1322.34 101.615 1325.58 101.087C1325.85 101.043 1326.03 100.786 1325.99 100.514C1329.02 100.02 1332 99.5317 1334.93 99.0498C1334.98 99.3223 1335.23 99.5069 1335.51 99.4621C1338.86 98.9103 1342.15 98.3668 1345.37 97.8322C1345.64 97.787 1345.83 97.5295 1345.78 97.2571C1348.83 96.7508 1351.82 96.2526 1354.74 95.763C1354.79 96.0353 1355.04 96.2191 1355.32 96.1735C1358.66 95.6127 1361.93 95.0632 1365.1 94.526C1365.38 94.4799 1365.56 94.2219 1365.51 93.9496C1368.61 93.4257 1371.62 92.9135 1374.55 92.4138C1374.6 92.686 1374.85 92.869 1375.13 92.8225C1378.5 92.2464 1381.76 91.6872 1384.9 91.146C1385.17 91.0991 1385.35 90.8405 1385.3 90.5683C1388.4 90.0343 1391.38 89.5181 1394.23 89.0208C1394.28 89.2928 1394.54 89.4749 1394.81 89.4275C1398.32 88.815 1401.65 88.2317 1404.79 87.6797C1405.06 87.6318 1405.24 87.3725 1405.19 87.1006C1408.37 86.5407 1411.34 86.0138 1414.1 85.5221C1414.15 85.7939 1414.41 85.975 1414.68 85.9266C1418.37 85.269 1421.67 84.6759 1424.56 84.1532C1424.84 84.1041 1425.02 83.844 1424.97 83.5722C1428.47 82.9382 1431.36 82.4115 1433.58 82.0034C1433.58 82.0034 1433.58 82.0034 1433.58 82.0034C1433.63 82.275 1433.89 82.4547 1434.16 82.4048C1435.78 82.1071 1437.01 81.8789 1437.84 81.7252C1438.1 81.677 1438.32 81.6361 1438.5 81.6026V86.0378C1438.5 86.3139 1438.72 86.5378 1439 86.5378V95.6139C1438.72 95.6139 1438.5 95.8377 1438.5 96.1139V106.19C1438.5 106.466 1438.72 106.69 1439 106.69V115.766C1438.72 115.766 1438.5 115.99 1438.5 116.266V126.342C1438.5 126.618 1438.72 126.842 1439 126.842V135.918C1438.72 135.918 1438.5 136.142 1438.5 136.418V146.494C1438.5 146.771 1438.72 146.994 1439 146.994V156.071C1438.72 156.071 1438.5 156.294 1438.5 156.571V166.647C1438.5 166.923 1438.72 167.147 1439 167.147V176.223C1438.72 176.223 1438.5 176.447 1438.5 176.723V186.799C1438.5 187.075 1438.72 187.299 1439 187.299V196.375C1438.72 196.375 1438.5 196.599 1438.5 196.875V206.951C1438.5 207.227 1438.72 207.451 1439 207.451V216.527C1438.72 216.527 1438.5 216.751 1438.5 217.027V227.103C1438.5 227.38 1438.72 227.603 1439 227.603V236.679C1438.72 236.679 1438.5 236.903 1438.5 237.179V247.256C1438.5 247.532 1438.72 247.756 1439 247.756V256.832C1438.72 256.832 1438.5 257.056 1438.5 257.332V267.408C1438.5 267.684 1438.72 267.908 1439 267.908V276.984C1438.72 276.984 1438.5 277.208 1438.5 277.484V287.56C1438.5 287.836 1438.72 288.06 1439 288.06V297.136C1438.72 297.136 1438.5 297.36 1438.5 297.636V307.712C1438.5 307.988 1438.72 308.212 1439 308.212V317.288C1438.72 317.288 1438.5 317.512 1438.5 317.788V327.864C1438.5 328.141 1438.72 328.364 1439 328.364V337.441C1438.72 337.441 1438.5 337.664 1438.5 337.941V348.017C1438.5 348.293 1438.72 348.517 1439 348.517V357.593C1438.72 357.593 1438.5 357.817 1438.5 358.093V368.169C1438.5 368.445 1438.72 368.669 1439 368.669V377.745C1438.72 377.745 1438.5 377.969 1438.5 378.245V388.321C1438.5 388.597 1438.72 388.821 1439 388.821V397.897C1438.72 397.897 1438.5 398.121 1438.5 398.397V408.473C1438.5 408.749 1438.72 408.973 1439 408.973V418.049C1438.72 418.049 1438.5 418.273 1438.5 418.549V428.626C1438.5 428.902 1438.72 429.126 1439 429.126V438.202C1438.72 438.202 1438.5 438.426 1438.5 438.702V448.778C1438.5 449.054 1438.72 449.278 1439 449.278V458.354C1438.72 458.354 1438.5 458.578 1438.5 458.854V468.93C1438.5 469.206 1438.72 469.43 1439 469.43V478.506C1438.72 478.506 1438.5 478.73 1438.5 479.006V489.082C1438.5 489.358 1438.72 489.582 1439 489.582V498.658C1438.72 498.658 1438.5 498.882 1438.5 499.158V509.234C1438.5 509.511 1438.72 509.734 1439 509.734V518.81C1438.72 518.81 1438.5 519.034 1438.5 519.31V529.387C1438.5 529.663 1438.72 529.887 1439 529.887V538.963C1438.72 538.963 1438.5 539.186 1438.5 539.463V549.539C1438.5 549.815 1438.72 550.039 1439 550.039V559.115C1438.72 559.115 1438.5 559.339 1438.5 559.615V569.691C1438.5 569.967 1438.72 570.191 1439 570.191V579.267C1438.72 579.267 1438.5 579.491 1438.5 579.767V589.843C1438.5 590.119 1438.72 590.343 1439 590.343V599.419C1438.72 599.419 1438.5 599.643 1438.5 599.919V609.995C1438.5 610.271 1438.72 610.495 1439 610.495V619.571C1438.72 619.571 1438.5 619.795 1438.5 620.071V630.147C1438.5 630.424 1438.72 630.647 1439 630.647V639.723C1438.72 639.723 1438.5 639.947 1438.5 640.223V650.3C1438.5 650.576 1438.72 650.8 1439 650.8V659.876C1438.72 659.876 1438.5 660.099 1438.5 660.376V670.452C1438.5 670.728 1438.72 670.952 1439 670.952V680.028C1438.72 680.028 1438.5 680.252 1438.5 680.528V690.604C1438.5 690.88 1438.72 691.104 1439 691.104V700.18C1438.72 700.18 1438.5 700.404 1438.5 700.68V710.756C1438.5 711.032 1438.72 711.256 1439 711.256V720.332C1438.72 720.332 1438.5 720.556 1438.5 720.832V730.908C1438.5 731.184 1438.72 731.408 1439 731.408V740.484C1438.72 740.484 1438.5 740.708 1438.5 740.984V751.06C1438.5 751.336 1438.72 751.56 1439 751.56V760.636C1438.72 760.636 1438.5 760.86 1438.5 761.136V771.213C1438.5 771.489 1438.72 771.713 1439 771.713V780.789C1438.72 780.789 1438.5 781.012 1438.5 781.289V791.365C1438.5 791.641 1438.72 791.865 1439 791.865V800.941C1438.72 800.941 1438.5 801.165 1438.5 801.441V811.517C1438.5 811.793 1438.72 812.017 1439 812.017V821.093C1438.72 821.093 1438.5 821.317 1438.5 821.593V831.669C1438.5 831.945 1438.72 832.169 1439 832.169V841.245C1438.72 841.245 1438.5 841.469 1438.5 841.745V851.821C1438.5 852.097 1438.72 852.321 1439 852.321V861.397C1438.72 861.397 1438.5 861.621 1438.5 861.897V871.973C1438.5 872.249 1438.72 872.473 1439 872.473V881.549C1438.72 881.549 1438.5 881.773 1438.5 882.049V892.125C1438.5 892.402 1438.72 892.625 1439 892.625V901.702C1438.72 901.702 1438.5 901.925 1438.5 902.202V912.278C1438.5 912.554 1438.72 912.778 1439 912.778V921.854C1438.72 921.854 1438.5 922.078 1438.5 922.354V932.43C1438.5 932.706 1438.72 932.93 1439 932.93V942.006C1438.72 942.006 1438.5 942.23 1438.5 942.506V952.582C1438.5 952.858 1438.72 953.082 1439 953.082V962.158C1438.72 962.158 1438.5 962.382 1438.5 962.658V972.734C1438.5 973.01 1438.72 973.234 1439 973.234V982.31C1438.72 982.31 1438.5 982.534 1438.5 982.81V992.886C1438.5 993.162 1438.72 993.386 1439 993.386V1002.46C1438.72 1002.46 1438.5 1002.69 1438.5 1002.96V1007.45L1437.84 1007.38C1437.03 1007.3 1435.84 1007.19 1434.27 1007.03C1434 1007.01 1433.75 1007.21 1433.72 1007.48C1431.45 1007.26 1428.47 1006.97 1424.83 1006.62C1424.86 1006.34 1424.65 1006.1 1424.38 1006.07C1422.8 1005.92 1421.11 1005.76 1419.3 1005.58C1417.76 1005.43 1416.13 1005.28 1414.43 1005.11C1414.16 1005.09 1413.91 1005.29 1413.89 1005.56C1411.07 1005.29 1408.05 1005.01 1404.81 1004.7C1404.84 1004.42 1404.64 1004.18 1404.36 1004.15C1401.27 1003.86 1397.98 1003.54 1394.52 1003.22C1394.25 1003.19 1394.01 1003.39 1393.98 1003.67C1391.14 1003.4 1388.18 1003.12 1385.11 1002.83C1385.14 1002.56 1384.94 1002.31 1384.66 1002.29L1380.85 1001.93C1378.79 1001.73 1376.68 1001.54 1374.52 1001.33C1374.25 1001.31 1374.01 1001.51 1373.98 1001.79C1371.14 1001.52 1368.21 1001.25 1365.21 1000.97C1365.24 1000.69 1365.04 1000.45 1364.76 1000.42C1361.5 1000.12 1358.15 999.808 1354.71 999.49C1354.44 999.464 1354.19 999.666 1354.17 999.941C1351.28 999.674 1348.33 999.401 1345.32 999.124C1345.34 998.849 1345.14 998.605 1344.86 998.58C1341.59 998.278 1338.24 997.971 1334.83 997.658C1334.55 997.633 1334.31 997.836 1334.28 998.11C1331.38 997.845 1328.43 997.575 1325.43 997.302C1325.46 997.027 1325.26 996.784 1324.98 996.759C1321.68 996.457 1318.31 996.152 1314.9 995.843C1314.63 995.818 1314.38 996.021 1314.36 996.296C1311.46 996.033 1308.52 995.767 1305.55 995.499C1305.57 995.224 1305.37 994.981 1305.1 994.957L1301.61 994.642C1299.43 994.447 1297.23 994.249 1295.02 994.051C1294.75 994.026 1294.5 994.229 1294.48 994.504C1291.56 994.243 1288.62 993.98 1285.64 993.714C1285.66 993.439 1285.46 993.196 1285.19 993.172L1283.42 993.014C1280.71 992.773 1277.97 992.53 1275.21 992.285C1274.94 992.261 1274.7 992.464 1274.67 992.739C1271.71 992.476 1268.71 992.211 1265.69 991.945C1265.72 991.67 1265.51 991.427 1265.24 991.403C1261.97 991.116 1258.68 990.826 1255.36 990.535C1255.08 990.511 1254.84 990.714 1254.82 990.989C1251.82 990.727 1248.8 990.463 1245.76 990.198C1245.79 989.923 1245.58 989.68 1245.31 989.656C1242.04 989.372 1238.76 989.086 1235.44 988.799C1235.17 988.775 1234.93 988.979 1234.9 989.254C1231.94 988.997 1228.95 988.74 1225.95 988.481C1225.98 988.206 1225.77 987.964 1225.5 987.94C1223.65 987.781 1221.79 987.621 1219.92 987.461C1218.45 987.334 1216.97 987.207 1215.48 987.08C1215.2 987.056 1214.96 987.26 1214.94 987.536C1212 987.284 1209.04 987.032 1206.07 986.779C1206.09 986.504 1205.89 986.262 1205.61 986.238L1202.96 986.013C1200.53 985.806 1198.08 985.599 1195.63 985.392C1195.36 985.369 1195.12 985.573 1195.09 985.848C1192.12 985.597 1189.13 985.345 1186.12 985.093C1186.15 984.818 1185.94 984.576 1185.67 984.553C1182.38 984.277 1179.08 984.001 1175.76 983.724C1175.49 983.701 1175.25 983.906 1175.22 984.181C1172.24 983.932 1169.24 983.683 1166.23 983.433C1166.25 983.158 1166.05 982.917 1165.77 982.894L1163.05 982.668C1160.65 982.47 1158.24 982.272 1155.83 982.073C1155.56 982.051 1155.32 982.256 1155.29 982.531C1152.33 982.287 1149.35 982.043 1146.37 981.799C1146.39 981.524 1146.18 981.283 1145.91 981.26C1142.59 980.989 1139.26 980.719 1135.92 980.448C1135.64 980.426 1135.4 980.631 1135.38 980.906C1132.41 980.665 1129.43 980.425 1126.44 980.185C1126.47 979.91 1126.26 979.668 1125.99 979.646C1122.68 979.381 1119.37 979.116 1116.05 978.851C1115.77 978.829 1115.53 979.034 1115.51 979.309C1112.52 979.071 1109.53 978.833 1106.53 978.596C1106.55 978.32 1106.34 978.08 1106.07 978.058C1102.76 977.796 1099.45 977.536 1096.13 977.275C1095.86 977.254 1095.61 977.459 1095.59 977.735C1092.62 977.501 1089.63 977.268 1086.65 977.036C1086.67 976.761 1086.46 976.52 1086.19 976.499C1082.87 976.241 1079.54 975.984 1076.21 975.727C1075.94 975.706 1075.7 975.912 1075.68 976.188C1072.7 975.958 1069.71 975.729 1066.73 975.502C1066.75 975.226 1066.54 974.986 1066.27 974.965C1062.96 974.712 1059.64 974.46 1056.32 974.21C1056.04 974.189 1055.8 974.395 1055.78 974.671C1052.8 974.445 1049.81 974.221 1046.82 973.997C1046.84 973.722 1046.63 973.482 1046.36 973.461C1043.04 973.213 1039.72 972.966 1036.4 972.721C1036.13 972.701 1035.89 972.907 1035.87 973.183C1032.88 972.962 1029.89 972.742 1026.91 972.524C1026.93 972.249 1026.72 972.009 1026.45 971.989C1023.13 971.746 1019.81 971.505 1016.5 971.265C1016.22 971.246 1015.98 971.453 1015.96 971.728C1012.97 971.512 1009.98 971.297 1006.99 971.084C1007.01 970.808 1006.8 970.569 1006.53 970.549C1003.21 970.312 999.886 970.077 996.569 969.843C996.293 969.824 996.054 970.031 996.035 970.307C993.051 970.097 990.07 969.888 987.092 969.681C987.111 969.405 986.903 969.166 986.628 969.147C983.297 968.916 979.971 968.686 976.65 968.459C976.374 968.44 976.136 968.648 976.117 968.923C973.124 968.718 970.134 968.515 967.15 968.313C967.169 968.038 966.96 967.799 966.685 967.781C963.369 967.557 960.058 967.335 956.755 967.116C956.48 967.098 956.241 967.306 956.223 967.582C953.219 967.382 950.221 967.185 947.23 966.989C947.248 966.714 947.039 966.476 946.763 966.458C943.432 966.24 940.109 966.025 936.795 965.812C936.519 965.795 936.281 966.004 936.264 966.279C933.284 966.089 930.312 965.9 927.347 965.713C927.365 965.437 927.155 965.2 926.88 965.182C923.532 964.972 920.194 964.764 916.867 964.559C916.592 964.542 916.355 964.751 916.338 965.027C913.339 964.842 910.349 964.66 907.369 964.48C907.385 964.205 907.175 963.968 906.9 963.951C903.589 963.751 900.291 963.555 897.005 963.361C896.73 963.345 896.493 963.555 896.477 963.831C893.45 963.653 890.434 963.478 887.431 963.305C887.447 963.029 887.236 962.793 886.96 962.777C883.626 962.586 880.306 962.398 877.002 962.213C876.727 962.198 876.491 962.409 876.475 962.685C873.491 962.518 870.519 962.355 867.562 962.195C867.577 961.919 867.365 961.683 867.09 961.668C863.722 961.486 860.372 961.307 857.042 961.133C856.766 961.118 856.531 961.33 856.517 961.606C853.523 961.45 850.546 961.296 847.585 961.146C847.598 960.871 847.386 960.636 847.11 960.622C843.767 960.453 840.445 960.289 837.145 960.128C836.869 960.115 836.635 960.328 836.622 960.604C833.594 960.457 830.585 960.314 827.596 960.176C827.609 959.9 827.395 959.666 827.119 959.653C823.802 959.499 820.509 959.35 817.241 959.207C816.965 959.194 816.732 959.408 816.72 959.684C813.677 959.55 810.656 959.421 807.659 959.296C807.671 959.02 807.456 958.787 807.18 958.776C803.828 958.637 800.505 958.503 797.214 958.375C796.938 958.365 796.705 958.58 796.695 958.856C793.695 958.74 790.722 958.629 787.777 958.522C787.786 958.246 787.571 958.015 787.295 958.005C783.901 957.883 780.543 957.768 777.222 957.66C776.946 957.651 776.715 957.867 776.706 958.143C773.727 958.046 770.779 957.955 767.863 957.87C767.871 957.594 767.653 957.363 767.377 957.355C763.961 957.256 760.588 957.164 757.261 957.081C756.985 957.074 756.756 957.292 756.749 957.568C753.741 957.493 750.771 957.425 747.84 957.364C747.845 957.087 747.626 956.859 747.35 956.853C743.95 956.783 740.603 956.722 737.312 956.67C737.036 956.666 736.808 956.886 736.804 957.162C733.769 957.115 730.782 957.077 727.844 957.046C727.846 956.77 727.625 956.544 727.349 956.541C725.718 956.525 724.103 956.511 722.503 956.5C720.889 956.489 719.259 956.481 717.613 956.475C717.337 956.474 717.112 956.698 717.111 956.974C714.142 956.966 711.12 956.967 708.049 956.977C708.048 956.701 707.824 956.478 707.547 956.479C704.227 956.492 700.849 956.515 697.415 956.549C697.139 956.552 696.917 956.778 696.92 957.054C693.956 957.085 690.95 957.123 687.906 957.168C687.902 956.892 687.674 956.672 687.398 956.676C684.042 956.727 680.639 956.788 677.19 956.857C676.914 956.862 676.694 957.091 676.7 957.367C673.75 957.427 670.766 957.493 667.751 957.566C667.744 957.29 667.515 957.072 667.239 957.078C663.882 957.16 660.486 957.25 657.052 957.347C656.776 957.355 656.559 957.585 656.566 957.861C653.594 957.946 650.593 958.036 647.566 958.132C647.557 957.856 647.326 957.639 647.05 957.648C643.722 957.754 640.363 957.867 636.972 957.986C636.696 957.995 636.48 958.227 636.49 958.503C633.465 958.61 630.416 958.721 627.343 958.838C627.333 958.562 627.1 958.347 626.824 958.358C623.522 958.483 620.193 958.615 616.838 958.752C616.562 958.764 616.348 958.996 616.359 959.272C613.333 959.396 610.287 959.525 607.221 959.658C607.209 959.382 606.976 959.168 606.7 959.18C603.373 959.325 600.023 959.475 596.652 959.63C596.376 959.642 596.162 959.876 596.175 960.152C593.178 960.29 590.165 960.432 587.135 960.577C587.122 960.301 586.887 960.089 586.611 960.102C583.244 960.264 579.857 960.431 576.452 960.602C576.176 960.616 575.963 960.851 575.977 961.127C572.993 961.277 569.994 961.431 566.982 961.588C566.968 961.312 566.733 961.1 566.457 961.115C563.118 961.289 559.762 961.468 556.391 961.651C556.115 961.665 555.904 961.901 555.919 962.177C552.886 962.341 549.841 962.509 546.784 962.68C546.769 962.404 546.533 962.193 546.257 962.208C542.938 962.394 539.604 962.584 536.259 962.776C535.983 962.792 535.772 963.029 535.788 963.304C532.773 963.478 529.748 963.655 526.713 963.835C526.697 963.559 526.46 963.349 526.184 963.365C522.828 963.564 519.461 963.766 516.082 963.971C515.807 963.988 515.597 964.225 515.614 964.501C512.615 964.683 509.609 964.868 506.594 965.055C506.577 964.78 506.34 964.57 506.064 964.587C502.716 964.796 499.357 965.007 495.991 965.221C495.715 965.239 495.506 965.476 495.524 965.752C492.502 965.944 489.473 966.139 486.439 966.336C486.421 966.06 486.183 965.851 485.907 965.869C482.571 966.086 479.227 966.305 475.877 966.527C475.601 966.545 475.393 966.783 475.411 967.059C472.392 967.259 469.369 967.461 466.341 967.665C466.323 967.39 466.084 967.181 465.809 967.2C462.456 967.426 459.099 967.654 455.737 967.885C455.461 967.904 455.253 968.143 455.272 968.418C452.261 968.625 449.247 968.833 446.23 969.044C446.211 968.768 445.972 968.56 445.696 968.58C442.346 968.813 438.992 969.049 435.636 969.287C435.36 969.306 435.153 969.546 435.172 969.821C432.152 970.035 429.13 970.251 426.107 970.468C426.087 970.193 425.847 969.985 425.572 970.005C422.224 970.246 418.873 970.489 415.523 970.733C415.247 970.753 415.04 970.992 415.06 971.268C412.042 971.488 409.024 971.71 406.005 971.933C405.985 971.657 405.745 971.45 405.47 971.471C402.117 971.718 398.765 971.968 395.414 972.219C395.139 972.239 394.932 972.479 394.953 972.755C391.932 972.981 388.911 973.208 385.892 973.437C385.872 973.162 385.632 972.955 385.356 972.976C382.005 973.23 378.656 973.485 375.311 973.742C375.035 973.763 374.829 974.003 374.85 974.279C371.831 974.51 368.814 974.743 365.8 974.976C365.779 974.701 365.538 974.495 365.263 974.516C364.004 974.614 362.746 974.712 361.488 974.81C359.389 974.973 357.291 975.137 355.196 975.301C354.92 975.323 354.715 975.563 354.736 975.839C351.719 976.075 348.705 976.313 345.696 976.551C345.674 976.276 345.433 976.07 345.158 976.092C341.805 976.358 338.457 976.624 335.117 976.891C334.841 976.913 334.636 977.154 334.658 977.43C331.626 977.672 328.6 977.916 325.58 978.16C325.557 977.884 325.316 977.679 325.041 977.701C321.69 977.972 318.347 978.244 315.012 978.515C314.737 978.538 314.532 978.779 314.555 979.054C311.533 979.301 308.519 979.548 305.512 979.795C305.489 979.52 305.248 979.315 304.973 979.338C301.602 979.615 298.241 979.893 294.892 980.171C294.616 980.194 294.412 980.435 294.435 980.711C291.419 980.961 288.413 981.212 285.416 981.462C285.393 981.187 285.152 980.983 284.876 981.006C281.514 981.287 278.165 981.569 274.828 981.851C274.553 981.874 274.349 982.116 274.372 982.391C271.333 982.648 268.305 982.904 265.288 983.161C265.265 982.886 265.023 982.682 264.748 982.705C261.402 982.99 258.071 983.274 254.755 983.559C254.48 983.582 254.276 983.824 254.3 984.1C251.26 984.36 248.234 984.621 245.222 984.881C245.198 984.606 244.955 984.402 244.68 984.426C241.306 984.718 237.95 985.009 234.613 985.299C234.337 985.323 234.134 985.566 234.158 985.841C231.156 986.102 228.17 986.363 225.2 986.624C225.176 986.349 224.933 986.145 224.658 986.169C222.489 986.36 220.327 986.549 218.175 986.739C216.957 986.846 215.742 986.954 214.529 987.061C214.254 987.085 214.051 987.328 214.075 987.603C211.044 987.871 208.031 988.138 205.038 988.404C205.014 988.129 204.771 987.926 204.496 987.95C201.146 988.248 197.821 988.545 194.521 988.84C194.246 988.865 194.043 989.108 194.068 989.383C190.998 989.658 187.951 989.932 184.927 990.204C184.903 989.929 184.66 989.726 184.385 989.751C181.034 990.053 177.712 990.354 174.421 990.652C174.146 990.677 173.944 990.92 173.968 991.195C170.91 991.473 167.879 991.749 164.874 992.023C164.849 991.748 164.606 991.546 164.331 991.571C160.944 991.88 157.592 992.187 154.277 992.492C154.002 992.517 153.8 992.761 153.825 993.036C150.81 993.313 147.826 993.588 144.873 993.861C144.847 993.586 144.604 993.384 144.329 993.409C140.9 993.727 137.513 994.041 134.172 994.352C133.897 994.377 133.695 994.621 133.721 994.896C130.72 995.175 127.756 995.452 124.83 995.726C124.805 995.451 124.561 995.249 124.286 995.275C120.835 995.598 117.436 995.917 114.094 996.232C113.819 996.258 113.617 996.502 113.643 996.777C110.619 997.062 107.642 997.344 104.712 997.621C104.686 997.346 104.442 997.145 104.167 997.171C100.718 997.498 97.3343 997.82 94.0201 998.136C93.7452 998.162 93.5437 998.406 93.5699 998.681C90.5333 998.971 87.555 999.256 84.6373 999.536C84.6109 999.261 84.3666 999.06 84.0918 999.086C80.6177 999.419 77.2299 999.746 73.9324 1000.06C73.6576 1000.09 73.4563 1000.34 73.4828 1000.61C70.4578 1000.9 67.5092 1001.19 64.6402 1001.47C64.6134 1001.19 64.369 1000.99 64.0941 1001.02C60.5562 1001.36 57.1402 1001.69 53.8517 1002.02C53.5769 1002.04 53.3759 1002.29 53.4028 1002.56C50.2955 1002.87 47.3032 1003.16 44.4306 1003.44C44.4036 1003.17 44.1589 1002.97 43.884 1002.99C40.3986 1003.34 37.0917 1003.67 33.972 1003.97C33.6972 1004 33.4965 1004.25 33.5238 1004.52C30.2536 1004.85 27.1924 1005.15 24.3502 1005.44C24.3228 1005.16 24.0777 1004.96 23.803 1004.99C20.0589 1005.36 16.7031 1005.7 13.7596 1006C13.4848 1006.02 13.2846 1006.27 13.3123 1006.54C9.62667 1006.92 6.6108 1007.22 4.31413 1007.46C4.2861 1007.18 4.04068 1006.98 3.76596 1007.01C2.18507 1007.17 0.980772 1007.29 0.17167 1007.38L-0.5 1007.45V1002.96C-0.5 1002.69 -0.723858 1002.46 -1 1002.46V993.387C-0.723858 993.387 -0.5 993.163 -0.5 992.887V982.811C-0.5 982.535 -0.723858 982.311 -1 982.311V973.235C-0.723858 973.235 -0.5 973.011 -0.5 972.735V962.659C-0.5 962.383 -0.723858 962.159 -1 962.159V953.083C-0.723858 953.083 -0.5 952.859 -0.5 952.583V942.507C-0.5 942.23 -0.723858 942.007 -1 942.007V932.93C-0.723858 932.93 -0.5 932.707 -0.5 932.43V922.354C-0.5 922.078 -0.723858 921.854 -1 921.854V912.778C-0.723858 912.778 -0.5 912.554 -0.5 912.278V902.202C-0.5 901.926 -0.723858 901.702 -1 901.702V892.626C-0.723858 892.626 -0.5 892.402 -0.5 892.126V882.05C-0.5 881.774 -0.723858 881.55 -1 881.55V872.474C-0.723858 872.474 -0.5 872.25 -0.5 871.974V861.898C-0.5 861.621 -0.723858 861.398 -1 861.398V852.322C-0.723858 852.322 -0.5 852.098 -0.5 851.822V841.745C-0.5 841.469 -0.723858 841.245 -1 841.245V832.169C-0.723858 832.169 -0.5 831.945 -0.5 831.669V821.593C-0.5 821.317 -0.723858 821.093 -1 821.093V812.017C-0.723858 812.017 -0.5 811.793 -0.5 811.517V801.441C-0.5 801.165 -0.723858 800.941 -1 800.941V791.865C-0.723858 791.865 -0.5 791.641 -0.5 791.365V781.289C-0.5 781.013 -0.723858 780.789 -1 780.789V771.713C-0.723858 771.713 -0.5 771.489 -0.5 771.213V761.137C-0.5 760.86 -0.723858 760.637 -1 760.637V751.56C-0.723858 751.56 -0.5 751.337 -0.5 751.06V740.984C-0.5 740.708 -0.723858 740.484 -1 740.484V731.408C-0.723858 731.408 -0.5 731.184 -0.5 730.908V720.832C-0.5 720.556 -0.723858 720.332 -1 720.332V711.256C-0.723858 711.256 -0.5 711.032 -0.5 710.756V700.68C-0.5 700.404 -0.723858 700.18 -1 700.18V691.104C-0.723858 691.104 -0.5 690.88 -0.5 690.604V680.528C-0.5 680.252 -0.723858 680.028 -1 680.028V670.952C-0.723858 670.952 -0.5 670.728 -0.5 670.452V660.375C-0.5 660.099 -0.723858 659.875 -1 659.875V650.799C-0.723858 650.799 -0.5 650.575 -0.5 650.299V640.223C-0.5 639.947 -0.723858 639.723 -1 639.723V630.647C-0.723858 630.647 -0.5 630.423 -0.5 630.147V620.071C-0.5 619.795 -0.723858 619.571 -1 619.571V610.495C-0.723858 610.495 -0.5 610.271 -0.5 609.995V599.919C-0.5 599.643 -0.723858 599.419 -1 599.419V590.343C-0.723858 590.343 -0.5 590.119 -0.5 589.843V579.767C-0.5 579.49 -0.723858 579.267 -1 579.267V570.191C-0.723858 570.191 -0.5 569.967 -0.5 569.691V559.614C-0.5 559.338 -0.723858 559.114 -1 559.114V550.038C-0.723858 550.038 -0.5 549.814 -0.5 549.538V539.462C-0.5 539.186 -0.723858 538.962 -1 538.962V529.886C-0.723858 529.886 -0.5 529.662 -0.5 529.386V519.31C-0.5 519.034 -0.723858 518.81 -1 518.81V509.734C-0.723858 509.734 -0.5 509.51 -0.5 509.234V499.158C-0.5 498.882 -0.723858 498.658 -1 498.658V489.582C-0.723858 489.582 -0.5 489.358 -0.5 489.082V479.006C-0.5 478.73 -0.723858 478.506 -1 478.506V469.43C-0.723858 469.43 -0.5 469.206 -0.5 468.93V458.854C-0.5 458.577 -0.723858 458.354 -1 458.354V449.278C-0.723858 449.278 -0.5 449.054 -0.5 448.778V438.701C-0.5 438.425 -0.723858 438.201 -1 438.201V429.125C-0.723858 429.125 -0.5 428.902 -0.5 428.625V418.549C-0.5 418.273 -0.723858 418.049 -1 418.049V408.973C-0.723858 408.973 -0.5 408.749 -0.5 408.473V398.397C-0.5 398.121 -0.723858 397.897 -1 397.897V388.821C-0.723858 388.821 -0.5 388.597 -0.5 388.321V378.245C-0.5 377.969 -0.723858 377.745 -1 377.745V368.669C-0.723858 368.669 -0.5 368.445 -0.5 368.169V358.093C-0.5 357.817 -0.723858 357.593 -1 357.593V348.517C-0.723858 348.517 -0.5 348.293 -0.5 348.017V337.941C-0.5 337.664 -0.723858 337.441 -1 337.441V328.365C-0.723858 328.365 -0.5 328.141 -0.5 327.865V317.788C-0.5 317.512 -0.723858 317.288 -1 317.288V308.212C-0.723858 308.212 -0.5 307.989 -0.5 307.712V297.636C-0.5 297.36 -0.723858 297.136 -1 297.136V288.06C-0.723858 288.06 -0.5 287.836 -0.5 287.56V277.484C-0.5 277.208 -0.723858 276.984 -1 276.984V267.908C-0.723858 267.908 -0.5 267.684 -0.5 267.408V257.332C-0.5 257.056 -0.723858 256.832 -1 256.832V247.756C-0.723858 247.756 -0.5 247.532 -0.5 247.256V237.18C-0.5 236.904 -0.723858 236.68 -1 236.68V227.604C-0.723858 227.604 -0.5 227.38 -0.5 227.104V217.028C-0.5 216.752 -0.723858 216.528 -1 216.528V207.452C-0.723858 207.452 -0.5 207.228 -0.5 206.952V196.876C-0.5 196.599 -0.723858 196.376 -1 196.376V187.299C-0.723858 187.299 -0.5 187.076 -0.5 186.799V176.723C-0.5 176.447 -0.723858 176.223 -1 176.223V167.147C-0.723858 167.147 -0.5 166.923 -0.5 166.647V156.571C-0.5 156.295 -0.723858 156.071 -1 156.071V146.995C-0.723858 146.995 -0.5 146.771 -0.5 146.495V136.419C-0.5 136.143 -0.723858 135.919 -1 135.919V126.843C-0.723858 126.843 -0.5 126.619 -0.5 126.343V116.267C-0.5 115.991 -0.723858 115.767 -1 115.767V106.691C-0.723858 106.691 -0.5 106.467 -0.5 106.191V96.1146C-0.5 95.8385 -0.723858 95.6146 -1 95.6146V86.5385Z" stroke="black" stroke-linecap="round" stroke-dasharray="10 10"/>
</g>
</g>
<defs>
<filter id="filter0_d_734_33" x="-25" y="-1318" width="1488" height="1425.51" filterUnits="userSpaceOnUse" color-interpolation-filters="sRGB">
<feFlood flood-opacity="0" result="BackgroundImageFix"/>
<feColorMatrix in="SourceAlpha" type="matrix" values="0 0 0 0 0 0 0 0 0 0 0 0 0 0 0 0 0 0 127 0" result="hardAlpha"/>
<feOffset dy="4"/>
<feGaussianBlur stdDeviation="10"/>
<feComposite in2="hardAlpha" operator="out"/>
<feColorMatrix type="matrix" values="0 0 0 0 0.554167 0 0 0 0 0.435944 0 0 0 0 0 0 0 0 0.64 0"/>
<feBlend mode="normal" in2="BackgroundImageFix" result="effect1_dropShadow_734_33"/>
<feBlend mode="normal" in="SourceGraphic" in2="effect1_dropShadow_734_33" result="shape"/>
</filter>
<filter id="filter1_d_734_33" x="-21" y="65.0005" width="1480" height="967" filterUnits="userSpaceOnUse" color-interpolation-filters="sRGB">
<feFlood flood-opacity="0" result="BackgroundImageFix"/>
<feColorMatrix in="SourceAlpha" type="matrix" values="0 0 0 0 0 0 0 0 0 0 0 0 0 0 0 0 0 0 127 0" result="hardAlpha"/>
<feOffset dy="4"/>
<feGaussianBlur stdDeviation="10"/>
<feComposite in2="hardAlpha" operator="out"/>
<feColorMatrix type="matrix" values="0 0 0 0 0.554167 0 0 0 0 0.435944 0 0 0 0 0 0 0 0 0.64 0"/>
<feBlend mode="normal" in2="BackgroundImageFix" result="effect1_dropShadow_734_33"/>
<feBlend mode="normal" in="SourceGraphic" in2="effect1_dropShadow_734_33" result="shape"/>
</filter>
</defs>
</svg>
