<svg fill="none" height="502" viewBox="0 0 1440 502" width="1440" xmlns="http://www.w3.org/2000/svg" xmlns:xlink="http://www.w3.org/1999/xlink"><clipPath id="a"><path d="m0 0h1440v502h-1440z"/></clipPath><clipPath id="b"><path d="m-97 0h1634v502h-1634z"/></clipPath><g clip-path="url(#a)"><path d="m0 344h1440v158h-1440z" fill="#fcf1e9"/><g clip-path="url(#b)"><path d="m1593.22 119.858c-5.13 3.955-16.63 11.644-33.79 13.692-5.53.662-28.95 3.439-36.81-6.385-8.5-10.62 2.84-33.5947 19.98-42.7843 24.75-13.2919 13.68-5.252 24.75-13.2919 8.4-6.0962 23.45-19.5981 19.77-25.6747-4.67-7.7095-15.91-64.4111-50.3-57.7778-45.37 8.79014-150.31 86.0284-248.27 154.2057-227.15 136.129-159.18 132.537-303.273 167.922-134.828 33.099-379.342-48.689-678.363 15.346 100.592 26.414 256.578 72.947 315.85 80.77 105.598 13.927 92.261-33.395 219.114-15.797 84.856 11.769 129.269 58.534 180.712 39.265 52.09-22.95 64.78-40.636 157.78-68.086 7.13-2.102 52.31-26.391 99.23-36.886 56.32-12.577 86.95-4.159 133.48-10.616 67.94-9.439 99.74-10.94 121.33-11.382 16.7-.35 30.58-.139 40.19.132l18.59-182.655z" fill="#cfcfd0"/><path d="m-95.3902 412.534c3.3833 3.576 37.7627-11.582 90.61404-19.694 44.06556-6.76 79.67276-5.728 136.80816-1.156 156.125 12.506 232.742 23.163 232.742 23.163 154.271 21.472 156.89 25.582 275.39 41.699 110.641 15.051 192.633 22.95 255.853 28.963 135.003 12.844 193.203 14.516 218.553 15.068 82.87 1.779 143.03-1.459 158.15-2.313 66.52-3.789 119.7-10.425 156.34-15.068 30.12-3.807 55.39-7.543 73.97-10.425 52.25-156.98 33.64-205.884 0-216.63-35.39-11.296-71.57 24.675-233.89 68.35-105.92 28.517-183.52 38.231-214.98 41.7-49.38 5.461-96.888 7.881-154.569 8.112-195.471.765-347.258-20.494-607.641-35.918 0 0-99.154-5.871-216.7533 10.425-15.5526 2.152-51.4871 7.507-92.3876 22.006-44.6931 15.851-81.8828 37.822-78.1993 41.718z" fill="#fcf1e9"/><path d="m-79.2102 393.142c-2.3738-2.242 6.4393-8.7 10.2866-11.493 90.5595-65.716 221.9376-74.754 221.9376-74.754 23.902-1.636 50.45-2.01 129.332 4.786 204.475 17.648 288.431 42.803 433.589 45.044 26.139.41 75.634.392 136.698-7.667 21.992-2.9 58.882-7.917 101.419-20.121 52.308-15.014 80.028-31.417 108.758-45.044 56.48-26.756 107.72-37.644 210.18-59.419 63.16-13.414 146.17-27.343 245.46-34.495 21.77 44.404 11.7 63.546-1.48 72.833-9.93 7.009-19.45 6.867-52.9 19.16-27.92 10.264-42.05 17.985-57.33 24.923-35.82 16.261-68.19 23.697-123.46 36.417-13.18 3.024-71.22 16.153-154.33 25.866-16.7 1.957-87.34 9.963-185.184 11.493-71.133 1.121-122.347-1.708-195.499-5.746-68.813-3.807-75.552-5.729-207.23-15.335-97.272-7.099-146.986-10.674-199.892-12.453-91.842-3.096-137.79-4.644-196.944 1.921-57.7901 6.404-102.5378 11.35-157.2719 27.788-24.7476 7.436-61.8828 20.316-66.1393 16.296z" fill="#fcf1e9"/></g></g></svg>